<svg id="ducky" xmlns="http://www.w3.org/2000/svg" width="356.69" height="191.25" viewBox="0 0 356.69 191.25">
  <title>bear</title>
  <path d="M276.08,131.85c-5.46,2.63-8.18,6.69-9.07,13.23-.76,5.59-4.07,10.89-6.6,16.15a177.28,177.28,0,0,1-10.08,19.16c-2,3.16-5.35,6.62-8.74,7.56-12.55,3.46-25.42,5.08-38.13.43a65.69,65.69,0,0,1-11.06-5.54c-.68-.4-.94-2.84-.4-3.72,2.82-4.55,6.9-7.42,12.45-7.65,2.89-.12,5.78,0,9.74,0,.14-8.27.23-16.21.41-24.14.13-6.05.37-12.09.56-17.94-4.16.28-9.62,1.29-14.94.82s-10.69-2.44-15.69-3.67c.74,5.66,2.46,12.13,2.22,18.54a85.76,85.76,0,0,1-3.79,23c-1.23,3.85-5.32,8.32-9.08,9.55-12.78,4.16-26,5-38.75-.59a8.71,8.71,0,0,1-4.24-4.77c-.27-.83,2.18-3.25,3.81-3.89a134.44,134.44,0,0,1,14-4.37,65.65,65.65,0,0,1,7.69-1.1c-4.43-9.47-8.62-18.46-13.09-28a47.33,47.33,0,0,0-3.12,3.66c-5.5,8-10.75,16.17-16.48,24-5.27,7.19-10.89,14.15-16.7,20.92a8.88,8.88,0,0,1-6.09,2.56c-9.23,0-18.56.26-27.66-1-5.35-.75-10.37-4.11-15.4-6.58-.49-.24-.55-2.87.09-3.68,3-3.74,6.8-6.11,11.85-6.22a126.78,126.78,0,0,0,13.36-.87c3-.38,5.68-1.83,5.83-5.49C89.58,147,95.21,133,99.48,118.75c2.94-9.82-.21-17.32-5.22-24.93C86,96,77.75,98,69.68,100.48c-2.55.77-4.84,2.61-7.06,4.23-3,2.22-6.63,3.23-9.46.93-9.35-7.58-20.54-5.9-31.22-7.28-8.83-1.15-16.1-5.5-20.83-13.47C-.63,82-.47,79.94,2.65,78c3.94-2.4,7.72-5.09,11.4-7.87A14.31,14.31,0,0,0,19.82,59.6c.34-3.18,2-6.45,3.76-9.21C26.42,46,30.06,42.15,33,37.8c1.25-1.85,1.33-4.45,2.29-6.54.84-1.82,2-4.65,3.34-4.84,2.65-.37,5.52.76,9.06,1.42,1.59-4.32,5.55-5.7,11.23-3.48,1.34.53,3.76-.2,5-1.2,8.82-7,19.1-9.75,30.05-10.61a90.41,90.41,0,0,0,32.41-8.64C131.74,1.33,137.47.3,143,2.62c22.25,9.41,44.47,7.31,67,1.14C238.44-4,265.31.37,290.26,16c10,6.31,20.05,12.72,29.67,19.64,8.7,6.25,9.4,12.5,4.43,22a9.78,9.78,0,0,0,.11,7.81c6.21,12.08,6.82,24.93,5.38,37.91-1,8.82,1.23,15.57,7.61,22,6,6.06,11,13.3,15.9,20.35,4,5.72,4.78,11.84.17,18-2.11,2.81-3.45,6.18-5.37,9.15-6.47,10-20,15-31.23,11.27a14.71,14.71,0,0,1-6.17-3.78c-4-4.46-2.31-8.82,3.58-9.79a8.69,8.69,0,0,0,2.71-.46c1.18-.65,3.06-1.69,3-2.51-.06-1.55-.86-3.77-2.06-4.46a46,46,0,0,0-9-3.48c-10.79-3.38-19.36-10.1-26.87-18.21C279.68,138.8,278.2,135.28,276.08,131.85Z"/>
</svg>
