<svg id="ducky" xmlns="http://www.w3.org/2000/svg" width="110.41" height="174.64" viewBox="0 0 110.41 174.64">
  <title>bitcoin</title>
  <path d="M26.85.69c-.63.52-.65,1.09-.54,11.65.06,5.69.06,10.42,0,10.51s-5.83.2-13.1.27S.12,23.3.06,23.36,0,44,.18,44s1.81,0,4,0c4.61,0,6.46.16,7.31.8,1.18.88,1.49,1.79,1.65,4.86.13,2.14.84,74.11.77,76.3a11.57,11.57,0,0,1-.62,3.95c-.56,1-1.77,1.55-3.8,1.75-.6.06-2.73.13-4.75.14s-3.67.07-3.69.11,0,4.7.06,10.37c.08,7,.16,10.3.29,10.32s6,0,13.14-.1,13-.08,13.07,0,.16,4.71.22,10.29c.06,6.75.16,10.36.28,10.76.35,1.11.38,1.12,8,1s7.68-.08,8-1.09c.13-.37.17-3.57.09-10.82-.08-8.68-.06-10.3.14-10.4s1.91-.12,4-.13c3.13,0,3.71,0,3.82.22s.16,4.88.21,10.56c.11,11.21,0,10.35,1,11,.19.13,1.93.16,5.74.12,3,0,6.23-.05,7.12,0h1.65l.52-.48a2,2,0,0,0,.55-.81c0-.16,0-4.91-.09-10.54s-.08-10.29,0-10.38a5.67,5.67,0,0,1,1.77-.29c2.3-.21,6.08-.72,8.53-1.16a62.4,62.4,0,0,0,10.65-3.33,35.52,35.52,0,0,0,16.69-16,37.12,37.12,0,0,0,3.54-22.91,40.69,40.69,0,0,0-3.07-9.57C103.1,91.36,98.24,87,90.44,84a5.36,5.36,0,0,1-1.61-.79,3,3,0,0,1,1-.72,31.36,31.36,0,0,0,15.83-25.21,37.65,37.65,0,0,0-.7-9.87,16.73,16.73,0,0,0-1.28-4.17c-.19-.38-.65-1.34-1-2.14a29.26,29.26,0,0,0-13-13.53A37,37,0,0,0,77.4,23.46c-1.73-.27-6.13-.7-8-.77-1.34-.05-1.6-.09-1.67-.33s-.13-5-.19-10.8L67.48,1,67,.51C66.57.11,66.33,0,66,0L59,.07c-3.61,0-6.7.12-6.86.16a2,2,0,0,0-1,1.23c0,.2,0,4.82.08,10.28.12,12,.13,10.88-.06,10.93s-1.94.09-4.1.11c-3.36,0-4,0-4-.21S42.8,17.66,42.75,12c-.1-7.95-.16-10.43-.33-10.8C42,.27,41.85.25,34.58.3c-3.67,0-6.84.07-7.08.1A1.63,1.63,0,0,0,26.85.69Zm23,45.74c8.89-.1,12.22,0,15.66.57,3.92.62,6.32,2,8.2,4.78A8.47,8.47,0,0,1,75,54.72,13.83,13.83,0,0,1,75.7,58c.41,5-1.24,9.38-4.41,11.9a13,13,0,0,1-4.81,2.44c-3.29,1-6.78,1.36-14.76,1.44s-7.47.1-7.56-.2-.38-26-.31-26.64a.46.46,0,0,1,.22-.39C44.17,46.52,46.76,46.47,49.82,46.43Zm2.42,49.22c8.16-.07,9.94,0,13.15.49a16.73,16.73,0,0,1,5.7,1.62q6.85,3.38,7.33,12.18c.33,5.8-1.34,10.5-4.92,14.06-2.13,2.1-4.33,3.16-8,3.84a58.57,58.57,0,0,1-10.61.77c-7,.07-9.06,0-9.48-.27s-.68-1.15-.81-4.32c-.11-2.64-.36-27.82-.27-28S43.77,95.73,52.24,95.65Z"/>
</svg>
