<svg id="buy" xmlns="http://www.w3.org/2000/svg" width="807.04" height="800.93" viewBox="0 0 807.04 800.93">
  <defs>
    <style>
      .cls-1 {
        fill: #020202;
      }
    </style>
  </defs>
  <title>buy</title>
  <path id="arrow" class="cls-1" d="M599.36,708.11C610.22,697.33,620.56,687,631,676.7c4.86-4.76,10.51-5.59,16-2.7a13.29,13.29,0,0,1,7.09,13.72c-.47,3.65-2.45,6.41-5,8.95q-22.27,22.26-44.48,44.59c-10,10-21.29,7.24-25.32-6.21Q554.68,653,530.15,570.86C526,557,522,543.14,517.72,529.34c-1.82-5.87-1.67-11.18,2.81-15.74s9.57-4.35,15.26-2.64q103.55,31.1,207.13,62c11.83,3.55,14.8,14.83,6.19,23.54-11,11.14-22,22.31-33.26,33.19-3,2.94-2.45,4.17.46,6.6,27.87,23.27,55.41,46.93,83.48,70,9.62,7.89,9.34,17.81,1.08,25.74-21.38,20.54-42.09,41.79-63.09,62.74-8.58,8.57-16.24,8.19-24-1.11Q697.42,774.12,681,754.59c-5.62-6.71-5.21-14.5,1.05-19.87,5.53-4.75,13.79-4,19.14,2.19,7.84,9.07,15.47,18.32,23,27.62,2,2.46,3.12,2.87,5.59.34q20.63-21.09,41.63-41.79c2.25-2.22,2.48-3.31-.21-5.55q-42.6-35.49-85-71.26c-9.08-7.62-9.52-15.29-1.15-23.63,9.78-9.74,19.62-19.41,30.23-29.9L550.08,543.4Z"/>
  <path id="down_arrows" data-name="down arrows" class="cls-1" d="M263.08,649.91a14,14,0,0,1-3.95,9.44c-5.47,5.58-10.91,11.2-16.56,16.6s-13.66,5.52-18.83.43c-5.51-5.42-5.77-13.34-.26-19.2s11.35-11.7,17.29-17.28c4.12-3.88,9.13-4.64,14.32-2.24S262.73,644.32,263.08,649.91Zm117,42c0-4.32.22-8.65,0-13a13.54,13.54,0,0,0-13-12.63c-6.72-.19-13.23,5.06-13.61,12a230.21,230.21,0,0,0,0,26.4c.46,7.62,6.75,12.36,14.44,11.9,6.85-.4,12-5.91,12.24-13.24.12-3.81,0-7.64,0-11.46Z"/>
  <path id="top_arrows" data-name="top arrows" class="cls-1" d="M231.78,36.75c5,0,8.19,1.46,10.92,4.16,5.22,5.14,10.54,10.2,15.64,15.46,6.13,6.31,6.28,14.56.6,20s-13.36,5-19.61-1c-5.53-5.31-11-10.66-16.27-16.25-4-4.3-4.65-9.47-2.14-14.82A12.4,12.4,0,0,1,231.78,36.75ZM380.09,25.21c0-4.15.19-8.32,0-12.46A13.14,13.14,0,0,0,367.27,0c-7.07-.21-13.39,4.56-13.82,11.58a217.35,217.35,0,0,0,0,26.89c.47,7.38,6.81,12.13,14.13,11.75,6.87-.35,12.18-5.83,12.47-13.06.16-4,0-8,0-12ZM492.81,76.62c5.86-5.64,11.72-11.3,17.32-17.2a13.13,13.13,0,0,0-.16-18.8,13.32,13.32,0,0,0-18.84-.07c-5.8,5.47-11.44,11.11-17,16.86a12.54,12.54,0,0,0-2.52,14.71c2.41,5.37,6.9,7.81,12.66,8C487.76,80.42,490.51,78.84,492.81,76.62Z"/>
  <path id="buy_text" data-name="buy text" class="cls-1" d="M366.08,164.64q-134.5,0-269,0c-26.5,0-46.91,10.8-60.95,33.22A58.16,58.16,0,0,0,26.94,229q-.07,100.74-.1,201.49c0,17.67-.14,35.34,0,53,.38,39.47,29.7,68.56,69.18,68.6q89.25.12,178.5,0h187c8.13,0,12.82,3.21,14.78,10A13.2,13.2,0,0,1,464.22,579c-1.17,0-2.34,0-3.5,0h-367C45.88,579,5,541.87.25,494.18,0,492,.09,489.85.09,487.69c0-86.33-.26-172.67.12-259,.16-33.26,16.27-58.39,43.55-76.42,16-10.53,33.9-14.73,53.06-14.72q271.25.13,542.48.06a93.94,93.94,0,0,1,93.83,89c1.32,26,.38,52,.49,78,.15,32.83.06,65.67,0,98.5,0,10.53-5.65,16.63-14.65,16.08a13,13,0,0,1-11.94-10.88,49.36,49.36,0,0,1-.29-7q0-83,0-166c0-18.15-5-34.55-17.32-48.13-14.27-15.67-32.14-22.72-53.37-22.67Q501.07,164.85,366.08,164.64ZM133.3,380.53c0,20.16-.05,40.32,0,60.48,0,9.22,4.88,15.1,13,15.18,20.15.19,40.31.06,60.47,0a11.65,11.65,0,0,0,8.11-3.33,13.4,13.4,0,0,0,3.72-14.58c-2-5.64-6.83-8.95-13.61-9-13.67-.1-27.33-.13-41,0-3.1,0-3.89-.85-3.87-3.92q.24-24.74,0-49.48c0-3.43,1.09-4.1,4.24-4.06,13.49.16,27,0,40.48.1a30.78,30.78,0,0,1,8.42.8c12.8,3.61,20.21,13.25,21.7,28.43.78,8,6.7,13.38,14.26,12.86a13.66,13.66,0,0,0,12.53-14.24c-.61-14.88-5.76-28-16.43-38.49-2.58-2.54-2.41-3.71,0-6.09,11-10.76,16.87-24.08,16.31-39.41-1.19-32.92-25.21-55.52-58.26-55.57q-26.75,0-53.48,0c-11.68,0-16.64,5-16.65,16.78q0,40.49,0,81Zm26.87-89.9c-.07-2.9.89-3.59,3.66-3.56,14.15.14,28.31-.13,42.46.13a28.87,28.87,0,0,1,28.61,28.69c.22,15.47-12.3,28.53-28.37,28.95-14.32.37-28.65,0-43,.17-2.65,0-3.42-.82-3.37-3.42.14-8.49.05-17,.05-25.48S160.36,299.12,160.17,290.63ZM303,398.7c2.66,37.85,42.54,65.78,79.07,55.64,30.12-8.36,48.8-32.59,48.89-63.81.11-38,0-76,0-114a21.45,21.45,0,0,0-.74-6.42,13.34,13.34,0,0,0-26.19,3.19c-.08,1.66,0,3.33,0,5,0,37.82.14,75.64-.06,113.45-.13,25.1-23.62,42.9-47.24,36.2-16.88-4.79-27.3-19.08-27.33-37.86q-.11-56,0-112a38.82,38.82,0,0,0-.28-6.48c-.95-5.33-4-9.07-9.28-10.66-9.25-2.77-17.24,3.67-17.31,14.24-.13,20.32,0,40.65,0,65.26C302.85,357.06,301.56,377.91,303,398.7Zm230.11-71.1q-18-29.91-35.95-59.83c-3.36-5.59-9.16-8.37-14.6-7.17-9.87,2.17-13.84,11.92-8.41,21q22.74,38.1,45.66,76.11a17,17,0,0,1,2.54,9.37c-.14,15-.06,30-.06,45,0,9.83-.1,19.67,0,29.5.12,8.9,5.6,14.71,13.54,14.7s13.31-5.74,13.34-14.28q.12-37.49,0-75a16.24,16.24,0,0,1,2.48-8.88q23-38.22,45.89-76.54c4.28-7.17,2.58-15.41-3.79-19.28-6.74-4.09-14.71-1.86-19.27,5.48-2.89,4.66-5.65,9.4-8.47,14.11L535.87,332C534.69,330.14,533.89,328.88,533.12,327.6Zm173.8,148.19c0,3.48-.24,7,.05,10.45a13.07,13.07,0,0,0,12.57,11.86c6.53.26,12.69-4.28,13.6-10.7a80.83,80.83,0,0,0,0-22.35,13,13,0,0,0-13.92-10.88,13.14,13.14,0,0,0-12.31,12.15c-.23,3.14,0,6.31,0,9.46Z"/>
</svg>
