<svg id="ducky" xmlns="http://www.w3.org/2000/svg" width="306.42" height="353.88" viewBox="0 0 306.42 353.88">
  <title>crystal</title>
  <path d="M151.7.78c-.4.3-.7,2.9-.7,5.6,0,4.3-.2,4.8-1.7,4.2-7.5-3.2-8.6-.1-1.5,4,3,1.8,3.2,2.3,3.2,7.2,0,8-3.6,6.5-4.2-1.7-.4-5.5-3.1-6.4-3.6-1.3-.3,3.2-2.4,4.5-3.7,2.3a2.4,2.4,0,0,0-4.2.6c-.4,1.1.2,2.3,1.8,3.5l2.4,1.8-2.2,1.6c-2.6,1.8-3,4.3-.9,5.1.7.3,3-.5,5-1.7,3.3-1.9,3.8-2,6-.6,2.9,1.9,3.6,5.4,3.6,16.8,0,9.4-.4,10-4.5,7.3-2.2-1.4-2.5-2.3-2.5-7.8,0-6.6-1.4-9.4-3.7-7.5-.7.7-1.3,3.2-1.3,6v5l-3-1.6c-2.9-1.5-2.9-1.6-3.2-11.3-.2-7.8-.6-9.7-1.8-9.7-.9,0-1.6,1.1-1.8,3-.1,1.6-.5,5.4-.8,8.2l-.5,5.3-2.4-1.6c-1.8-1.2-2.5-2.6-2.7-5.7-.2-3.4-.7-4.2-2.3-4.2-1.4,0-2.1.8-2.5,2.7-.4,2.2-.8,2.5-2,1.8a7.48,7.48,0,0,0-3.2-1c-2.5,0-2.3,3.7.2,5,1.9,1,1.9,1.1,0,3-4,4-.9,6,4.4,2.9,3.2-1.9,3.4-1.9,5.6-.1l2.3,1.9L119.7,53c-6.3,3.6-8.7,6.5-6.1,7.5.9.4,4.9-1.2,9.4-3.6,7.2-3.9,8-4.1,10.7-2.9l2.8,1.3-4.3,2.5c-2.6,1.5-4.2,3.2-4.2,4.4,0,2.6,2,2.4,8.4-.8l5.4-2.6,4.6,2.7,4.6,2.7v7.5c0,6.7-.2,7.5-1.7,7.2s-1.8-1.4-1.9-4.6c-.1-5.1-1.6-7.1-3.9-5.2a3.35,3.35,0,0,0-1,3.7c.6,2.6-.2,2.9-2.8.8a4.38,4.38,0,0,0-3.3-.8c-2.3.9-1.6,3.9,1.3,5.2l2.8,1.3-2.8,1.4c-3.1,1.7-3.8,5.4-.9,5.4a13.74,13.74,0,0,0,4.8-1.9c3-1.8,3.3-1.9,6-.2s2.9,2,3.2,11.4c.2,5.4.1,9.7-.3,9.7a13.55,13.55,0,0,1-2.6-1c-1.6-.9-1.9-2.2-1.9-7.5,0-3.5-.5-6.7-1-7-2.1-1.3-4,1.7-4,6.1,0,3.4-.3,4.2-1.5,3.8-1-.4-1.5-2-1.5-4.4,0-3.8-2.1-6.7-4-5.5-.5.3-1,1.7-1,3.1,0,2.4-1.4,3.2-2.5,1.4-.8-1.3-4.2-1.3-5,0-.3.5.5,2.1,1.9,3.5,2.4,2.4,2.4,2.5.5,3.5-2.2,1.3-2.5,3.8-.5,4.6.8.3,2.8-.2,4.5-1.2,2.3-1.4,3.5-1.5,5.3-.7,2.2,1,2.2,1.1-1.8,3.1-3.5,1.8-5.4,3.8-5.4,5.8,0,1.2,4.6.1,9.3-2.2,5.1-2.5,5.5-2.6,7.9-1,2.9,1.9,3.8,5.2,3.8,14v6.1l-8.2,8.2-8.3,8.2-10.3,2.6-10.4,2.6-7.9-4.7c-7.7-4.5-7.9-4.7-7.9-8.5s.3-4.1,5.5-7c3.7-2,5.5-3.7,5.5-5,0-2.5-2.9-2.5-7.4.2l-3.6,2.1v-2.1c0-1.4,1.1-2.8,2.9-3.9,3.4-1.9,4.6-4.8,2.4-5.6a5.25,5.25,0,0,0-3.4.4c-1.6.9-1.9.7-1.9-1.3,0-3.2-2.2-5.1-3.8-3.5a5.68,5.68,0,0,0-1.2,3.5c0,2-.3,2.2-1.9,1.3-2.3-1.2-5.1-.3-5.1,1.5,0,.7,1.6,2.3,3.5,3.5,2.1,1.3,3.5,3,3.5,4.2,0,2,0,2-3.6-.1-4.5-2.7-7.4-2.7-7.4-.2,0,1.3,1.8,3,5.5,5s5.5,3.7,5.5,5.1c0,1.1-.4,2-.8,2s-4.4-2.1-8.8-4.8c-6.8-4-7.9-5.1-8.2-7.7s.2-3.4,3.8-5.4c2.6-1.5,4-2.9,4-4.3,0-2.1-1.8-2.2-6.4-.3-1.6.7-1.8.5-1.4-1.8.7-3.4-1.5-5.5-3.7-3.7-1,.8-1.3,2.1-.8,3.8.5,2.2.4,2.4-1.3,1.7-4.6-1.9-6.4-1.8-6.4.3,0,1.4,1.3,2.8,3.8,4.2,3.6,2,5.3,5.1,2.8,4.9-1.7-.1-13.1-7.5-12.8-8.2a52.12,52.12,0,0,0,.2-5.6c0-4.5.2-5,3-6.1,6.8-2.8,10.6-8,5.9-8a12.71,12.71,0,0,0-5.5,2.1l-3.4,2.1v-3.4c0-3.1.5-3.6,7-7.1s9.7-6.6,8.3-8.1c-1.3-1.2-3.6-.5-9.4,2.9L57,89v-3.3c0-2.5.6-3.5,2.4-4.4a7.66,7.66,0,0,0,3.5-3.1c.9-1.6.7-2.1-.9-2.6a4.17,4.17,0,0,0-3.5.5c-1.3,1-1.5.8-1.5-1.3,0-3.2-2.7-5.7-4.1-3.6a8.07,8.07,0,0,0-.9,3.7c0,2-.3,2.1-2.1,1.2a4.63,4.63,0,0,0-3.5-.6c-2.4.9-1.5,3.3,2.1,5.5,2.8,1.6,3.5,2.7,3.5,5.1,0,1.6-.2,3-.4,3a59.74,59.74,0,0,1-6.3-3.5c-6.5-3.9-9.3-4.4-9.3-1.6,0,1.2,2.5,3.3,8,6.5,7.2,4.1,8,4.9,8,7.6,0,3.6,0,3.6-4.2,1s-8.3-2.7-7.4-.4a16.16,16.16,0,0,1,.6,1.9,35.09,35.09,0,0,0,5.5,3.5c5,2.9,5.5,3.5,5.5,6.6,0,1.9-.4,3.4-1,3.4s-5.4-2.7-11-6.1c-9-5.4-10-6.3-10-9,0-2.3.8-3.4,4-5.4,5.9-3.7,4.9-7.9-1.2-4.8-2.7,1.3-2.8,1.3-2.8-1.6,0-3.5-2.1-5.6-3.8-3.9a6.67,6.67,0,0,0-1.2,4.1c0,2.6-.1,2.7-2.1,1.4-2.6-1.9-5.8-1.1-5.2,1.2.2.9,2,2.5,3.9,3.6,2.1,1.1,3.4,2.6,3.4,3.8,0,1.8-.2,1.8-4.2-.6-3.7-2.2-4.3-3-4.6-6.3C15.6,84,12,82,12,88.18c0,3.4-.5,3.5-4.5.9-3.6-2.4-7.5-2.6-7.5-.5,0,.8,2,2.8,4.5,4.3l4.6,2.8-2.6,1.4c-2.6,1.4-3.3,3.4-1.5,4.5.6.4,2.7-.3,4.6-1.4l3.5-2.1,4.5,2.6c3.2,1.9,4.2,3,3.5,3.7s-2.2.4-5-1.1c-3.6-2-7.1-2.1-7.1-.2,0,1.1,2.6,3.7,4.2,4.2.8.3.2,1.4-1.7,3.1-2.4,2-2.7,2.8-1.8,3.8s1.8,1,3.8.1c3.4-1.6,3.5-1.6,3.5,1.2a5.51,5.51,0,0,0,1.3,3.5c2.1,1.7,3.7-.7,3.7-5.5,0-3.7.4-4.3,2.9-5.4,2.8-1.1,3.7-.8,13,4.5,5.6,3.1,10.1,6,10.1,6.4s-1.2,1.4-2.7,2.3c-2.6,1.6-2.9,1.5-8.3-1.5-3.4-1.8-6.3-2.8-7.3-2.4-2.5.9-1,3.5,3.4,5.8,2.2,1.1,3.9,2.1,3.9,2.4a7.49,7.49,0,0,1-2.7,1.8c-2.4,1.3-3.1,1.1-10-2.9-7.2-4.3-9.3-5-10.6-3.8-1.3,1.4,1.5,4.3,7,7.4l5.7,3.2-2.3,1.9c-2.3,1.9-2.4,1.9-5.7,0-3.5-2.1-6.4-1.9-6.4.5a4.1,4.1,0,0,0,1.9,2.6c1.9,1.2,1.9,1.3-.6,3.6-3.4,3.1-1.8,5.2,2.7,3.5,2.8-1.1,3-1,3,1.2,0,1.3.5,2.7,1,3,1.8,1.1,4-1.6,4-5a5.09,5.09,0,0,1,2.5-4.9l2.5-1.6v7.4c0,4.9.4,7.7,1.3,8.5,2.6,2.1,3.7-.9,3.7-10.1,0-8.7,0-8.8,3-10.3l3-1.6v5c0,2.8.6,5.3,1.3,6,2.3,1.9,3.7-.9,3.7-7.6v-6.2l4.5-2.6,4.4-2.6,6.3,3.6c7.7,4.5,7.6,4.4,5.9,5.5-.9.5-2.5.1-4.5-1.1-5.7-3.5-9.6-1.7-5.2,2.4l2.5,2.4-2.4,2.1c-1.4,1.2-2.5,2.6-2.5,3.2,0,1.3,3.6,1.3,6.1,0,1.6-.9,1.9-.7,1.9,1a10,10,0,0,0,1.1,4.1c1.7,3.2,3.9.5,3.9-4.7,0-3.8.4-4.5,3-5.9,2.9-1.5,3.2-1.4,11,3.1,4.4,2.6,7.9,5.2,7.7,5.8-.7,2.1-3.6,1.7-8.3-1.2-5-3.2-7.4-3.2-7.4-.1,0,1.2,1.5,2.6,4.3,4,4,2.1,4.1,2.2,2,3.2-1.7.7-2.9.6-4.7-.7-5.1-3.3-9.1-.8-4.7,3,1.7,1.5,1.7,1.7-.7,4.1s-2.3,2.6-.9,3.5a3.85,3.85,0,0,0,3.6-.2c2.7-1.4,3.1-1.3,3.1.7a7,7,0,0,0,.9,3.2c1.6,2.5,4.1-.6,4.1-4.9,0-2.5.5-4,1.6-4.4,2.6-1,2.7-.8,2.2,3.9-.6,5.1,1.1,7.7,3.7,5.5,1-.9,1.5-3.2,1.5-7.4,0-5.8.2-6.2,3.1-7.8l3-1.8,7.8,4.5,7.8,4.5,3.1,10.3A100.05,100.05,0,0,1,117,177a115.55,115.55,0,0,1-3.1,11.5l-3.1,10.2-7.4,4.2c-4,2.3-7.8,4.2-8.5,4.2a10.83,10.83,0,0,1-3.9-2c-2.6-1.8-2.9-2.8-3.2-8.3-.2-4.7-.7-6.2-1.8-6.2s-1.6,1.3-1.8,4.8c-.3,3.9-.6,4.8-2,4.5-1.2-.2-1.9-1.7-2.3-4.5-.3-2.4-.8-4.6-1.2-4.9-1.3-1.3-3.7.6-3.7,3.1,0,2.2-.3,2.4-1.9,1.5-2.5-1.3-6.1-1.3-6.1,0,0,.6,1.1,2.1,2.4,3.3,2.4,2.2,2.4,2.3.5,3.5a4.27,4.27,0,0,0-1.9,2.7c0,2,3.9,1.9,6.7,0,2-1.4,5.3-1.1,5.3.4,0,.5-1.5,1.6-3.4,2.6-3.8,2.1-5.2,5-2.9,6,.9.3,4-.8,7-2.5,4.7-2.7,5.6-2.9,7.3-1.7s1.1,1.7-6.6,6.1-8.6,4.8-11.4,3.6-3-1.7-3-6.1c0-2.6-.5-5.1-1-5.4-1.6-1-4,1.5-4,4.1,0,2.4-1.4,3.2-2.5,1.4-.8-1.3-4.2-1.3-5,0-.3.5.5,2,1.9,3.3l2.5,2.4-2.4,2.1c-1.4,1.2-2.5,2.6-2.5,3.1,0,1.8,3.5,1.6,7.2-.4,2.8-1.5,4-1.7,4.8-.9s-.5,2.1-5.5,5l-6.8,3.7L49.4,229l-4.4-2.4v-6.1c0-4.2-.5-6.5-1.5-7.4-2.3-1.9-3.5-.2-3.5,5.1,0,2.7-.2,4.9-.5,4.9a11,11,0,0,1-3-1.6c-2.3-1.5-2.5-2.2-2.5-10.4,0-6-.4-9.1-1.3-9.9-2.5-2-3.7.9-3.7,8.6v7.4l-2.9-1.6c-2.5-1.2-3-2.2-3.3-5.7-.4-5-3.1-6.1-3.6-1.6-.3,2.8-1.6,3.6-2.7,1.8-.8-1.3-4.2-1.3-5,0-.3.5.5,2.1,1.8,3.4,2.2,2.2,2.3,2.4.5,3.5-4.1,2.5-1,5.9,3.3,3.5,3.1-1.7,5.1-1.7,7.4-.1,1.6,1.3,1.4,1.6-3.7,4.5-6.9,4-8.6,5.8-6.9,7.5.9.9,3,.3,9.4-3.1,7.5-4,8.4-4.3,11-3.1l2.8,1.3-3.7,2.2c-5.3,3.2-6.8,6-3.6,6.6.9.2,3.9-.9,6.5-2.4,5.6-3.3,6.4-3.4,9.5-1l2.2,1.7-10.2,6.1c-9.8,5.8-10.4,6.1-13,4.7-2.4-1.2-2.8-2-2.8-5.7,0-4.4-1.9-7.4-4-6.1-.5.3-1,2-1,3.7,0,2.5-.3,2.9-1.7,2.3-5.5-2.3-8.8,1.1-3.7,3.8l2.7,1.4-2.6,1.8c-5.5,3.5-1.9,6.7,3.8,3.4,2.4-1.4,3.9-1.8,5.1-1.1s.8,1.4-3,3.6l-4.6,2.7-3.8-2c-2.6-1.3-4.3-1.6-5.3-1-1.1.8-.9,1.4,1.5,3.3l2.8,2.3-4.1,2.4c-2.4,1.3-4.1,3-4.1,4.1,0,2.3,2.1,2.3,7-.2l3.9-2,.3,3.3c.5,5.2,3.2,4.2,3.6-1.4.3-4.4.5-4.8,5.2-7.3,4-2.2,5-2.4,5-1.2,0,.9-1.8,2.7-4.1,4.1-6,3.8-4.1,7.8,2.4,5,1.3-.6,1.7-.2,1.7,1.8,0,3.1,2.2,5.1,3.8,3.5a5.46,5.46,0,0,0,1.2-3.5c0-2.6.3-2.7,3-1.3a4.91,4.91,0,0,0,3.3.4c2.4-.9.8-4-2.9-6-2.8-1.5-3.4-2.4-3.4-5.1,0-3.6.8-4.2,14.3-11.7l6.7-3.8v3.9c0,3.5-.4,4-5.1,6.6-5.4,3.1-7,5.4-4.8,6.8.9.5,2.9,0,5.6-1.6l4.3-2.4v3.2c0,3-.6,3.6-7.7,7.7-7.7,4.5-10.1,7.5-6.6,8.2,1,.2,4.3-1.1,7.3-2.9s5.8-3.3,6.3-3.3.7,1.3.7,3c0,2.2-.7,3.3-2.9,4.4-2.5,1.3-4.1,3.4-4.1,5.3,0,.3,1.6.3,3.5,0,2.9-.5,3.5-.3,3.5,1.2,0,2.2,2.5,4.5,4,3.6.5-.3,1-1.7,1-3,0-2.2.3-2.3,3.6-1.8,3.1.5,3.6.4,3.2-1.3-.2-1-1.8-2.8-3.5-3.9-2.3-1.4-3.2-2.8-3.3-4.8,0-1.5.3-2.7.6-2.7a63,63,0,0,1,6.8,3.5c4,2.2,6.6,3.1,7.5,2.6,2.5-1.6.4-3.9-7.3-8.3-7-4-7.5-4.6-7.6-7.6V252l4.3,2.4c2.3,1.4,4.8,2.3,5.5,2,2.7-1,1-3.9-4.1-6.8s-5.2-3.2-5.5-8.2-.2-5.3,3.5-7.6c2.1-1.3,5.3-3.2,7.1-4.1,3.1-1.6,3.2-1.6,3.2.3a2.71,2.71,0,0,1-1.8,2.5c-2.2.7-6.2,4.3-6.2,5.5,0,1.6,3.9,1.9,5.9.4,2-1.3,2.1-1.2,2.1,1.5,0,3.6,2.1,5.7,3.8,4a6.67,6.67,0,0,0,1.2-4.1c0-2.9,0-2.9,2.4-1.3,2.7,1.7,5.6,1.2,5.6-1,0-.8-1.8-2.6-4.1-4.1-3.4-2.2-4-3.1-3.7-5.7s1.3-3.6,8.5-7.7c7.4-4.3,8.2-4.5,8.6-2.8.4,1.5-.5,2.6-3.5,4.5a33.2,33.2,0,0,1-5.3,3c-1.9.8-2.5,4.2-.8,4.8.8.3,3.2-.3,5.3-1.4,4.7-2.4,4.7-2.4,4.7-.4,0,.9-1.5,2.5-3.4,3.6s-3.3,2.8-3.3,4c0,1.8.4,1.9,3.5,1.4s3.5-.5,3.5,1.8c0,1.4.5,2.8,1,3.1,1.5.9,4-1.3,4-3.4,0-1.4.7-1.7,3-1.3,2.5.4,3,.1,3-1.7,0-1.3-1.1-2.6-3-3.6s-3-2.3-3-3.5c0-2.5.1-2.5,4.3,0,3.2,1.9,6.7,1.9,6.7,0,0-1.4-2.7-3.7-7-6.1-3.7-2.1-4-2.6-4-6.4,0-4.1.1-4.1,7.6-8.4l7.5-4.3,11.2,3.1,11.2,3.1,7.7,7.7,7.8,7.8v8.7c0,8.6,0,8.7-3.2,10.9l-3.2,2.3-5.5-3c-9.6-5.2-12.9-2-3.7,3.6,3.3,2,3.6,2.4,2.1,3.3-1.2.6-2.9.4-5.5-.8-5.4-2.4-8.2-.3-4.1,3.1,1.7,1.5,1.7,1.7-.7,4.1s-2.3,2.6-.9,3.5a3.85,3.85,0,0,0,3.6-.2c2.7-1.4,3.1-1.3,3.1.7a7,7,0,0,0,.9,3.2c1.6,2.5,4.1-.6,4.1-4.9,0-2.4.5-4,1.5-4.4,1.2-.4,1.5.4,1.5,3.8,0,2.7.6,4.8,1.5,5.6,2.6,2.1,3.9-.3,3.6-6.6-.2-5.5.9-8.4,3.4-8.4,1,0,1.2,2.4,1.1,9.8-.2,9.4-.3,9.7-2.9,11.2s-3,1.3-5.8-.3a14,14,0,0,0-5-1.7c-2.8,0-2.4,3.2.6,5.1l2.6,1.5-2.6,1.4c-3.3,1.7-3.5,5.4-.2,4.7a23.38,23.38,0,0,0,4-1.2c1.4-.6,1.7-.2,1.7,2.3,0,3.6,1.5,4.9,3.6,3.1,1-.8,1.4-2.6,1.2-5.3-.2-3.2.1-4.2,1.4-4.4,1.5-.3,1.7.7,1.5,7.3l-.1,7.7-4.5,2.6-4.4,2.6-5.1-2.7c-2.8-1.5-5.9-2.7-6.9-2.7-3.2,0-1.8,3.5,2.5,5.9,3.9,2.2,4,2.5,2.3,3.7-2.8,2.1-4.2,1.8-11.7-2.6-6.8-3.9-8.9-4.6-10.1-3.4s.7,3.6,5.2,6.1c7.5,4.3,7.6,4.4,4.9,6.4-2.2,1.7-2.4,1.7-5.4-.2s-6.4-1.7-6.4.2a7.11,7.11,0,0,0,2.1,2.8l2.1,1.9-2.1,1.1c-2.6,1.4-2.8,5.1-.3,5.1a7.48,7.48,0,0,0,3.2-1c1.2-.7,1.6-.4,2,1.8.4,1.9,1.1,2.7,2.5,2.7,1.6,0,2.1-.8,2.5-4.4.4-3.1,1.2-4.8,2.8-5.9l2.2-1.4v7.5c0,5.5.4,7.8,1.5,8.7,2.9,2.4,4-.4,4-10.2.1-8.5.2-9.1,2.5-10.3,2.5-1.3,2.5-1.3,3,3.8.4,4.4.8,5.2,2.5,5.2s2.1-.8,2.5-6.9c.5-6.6.7-7.1,3.7-8.9l3.2-1.8v24.7l-3,1.8c-2.8,1.7-3.1,1.7-6.3-.3a12.67,12.67,0,0,0-5-2.1c-2.4,0-2,3.5.7,5.3l2.2,1.6-2.2,1.6c-1.3.9-2.3,2.2-2.3,2.9,0,1.8,2.3,2.6,4.1,1.5,2.3-1.4,3.7-1,3.3.8a4.82,4.82,0,0,0,1.1,3.8l1.5,2,1.6-2a8.29,8.29,0,0,0,1.2-5c-.2-3.2.7-5.5,2.3-5.5.6,0,.9,2.2.7,5.1-.3,4.8-.6,5.4-4.1,7.6-5.4,3.4-3.4,6.4,2.6,3.8,1.5-.6,1.7-.1,1.7,4.3,0,2.8.5,5.4,1,5.7,2.1,1.3,4-1.7,4-6.2,0-4,.2-4.3,1.9-3.3,5.5,2.9,7.1-.9,1.7-4.1-3.1-1.8-3.4-2.4-3.8-7.5-.2-4.2,0-5.3,1-4.9a8.45,8.45,0,0,0,1.8.5c.2,0,.4,2.2.4,4.9s.5,5.3,1,5.6c1.6,1,4-1.5,4-4.1s.3-2.8,3-1.4a4.91,4.91,0,0,0,3.3.4c2-.7,1-4.2-1.4-4.9s-2.4-2.2.1-3.5c2.3-1.2,2.7-5,.6-5a13.94,13.94,0,0,0-5,2.1c-3.3,1.9-3.6,1.9-6,.3-2.6-1.6-2.6-1.8-2.6-14.1V296l3,2.1c2.7,2,3,2.6,3,7.9,0,3.9.5,6.3,1.5,7.1,2.3,1.9,3.5.2,3.5-5.1,0-2.7.2-4.9.5-4.9a11,11,0,0,1,3,1.6c2.3,1.5,2.5,2.2,2.5,10.4,0,6,.4,9.1,1.3,9.9,2.5,2,3.7-.9,3.7-8.7v-7.4l2.3,1.4a6.61,6.61,0,0,1,2.5,5.1c.5,5.8,5.2,7.8,5.2,2.2,0-2.2.2-2.3,3-1.2,4.5,1.7,6.1-.4,2.7-3.5-2.5-2.3-2.5-2.4-.6-3.6a4.1,4.1,0,0,0,1.9-2.6c0-2.2-3.1-2.8-5.6-1.1-2.9,1.9-4.5,1.9-6.9.2-1.6-1.3-1.3-1.7,4.3-5.1s7.8-5.7,6.5-7-3.3-.5-10.1,3.4c-7.5,4.3-8.8,4.6-11.5,2.6-1.7-1.3-1.5-1.6,2.2-3.7,4-2.2,5.4-5.3,2.9-6.2-.7-.2-3.7,1-6.7,2.6l-5.3,3-4.4-2.4-4.4-2.4v-7.8c0-5.8.3-7.8,1.3-7.5.6.3,1.3,2.4,1.5,4.9s.7,4.8,1.2,5.3c1.4,1.4,4-1.3,4-3.9,0-2.2.2-2.2,3-1.2,4.6,1.7,6.1-.4,2.5-3.7-2.7-2.5-2.7-2.5-.6-3.8,2.3-1.4,2.8-4.4.9-5.1-.7-.2-2.9.5-5,1.7-3.2,1.8-3.9,1.9-6.1.7-2.4-1.3-2.6-1.9-2.9-11.2-.3-9.8.3-11.4,3-8.7.7.7,1.2,3.8,1.2,6.9,0,3.5.5,6.1,1.3,6.8,2.1,1.7,3.7-.7,3.7-5.6,0-3.4.3-4.1,1.5-3.7,1,.4,1.5,2,1.5,4.4,0,3.8,2.1,6.7,4,5.5.5-.3,1-1.7,1-3.1,0-2.8,0-2.8,3.5-1.2,1.7.8,2.9.8,3.6.1,1.4-1.4.2-3.9-2.4-5l-2.2-1,2.3-1.2c2.5-1.3,3-5.1.7-5.1a12.6,12.6,0,0,0-4.6,1.6c-3.1,1.5-5.9,1.3-5.9-.5,0-.5.8-1.2,1.8-1.5,2.2-.7,6.2-4.3,6.2-5.5,0-2.2-3.3-1.7-8.4,1-5.6,3.1-5.6,3.1-8.8,1.2l-3.1-1.8.2-9,.2-9,8.2-8.1,8.2-8.1,10.1-2.6,10.2-2.7,7.3,4.3c7.1,4.2,7.4,4.5,7.7,8.5s.2,4.2-4.7,6.9c-5.3,2.9-6.9,4.9-5.1,6.7.7.7,2.4.3,5.5-1.2,4.5-2.2,4.5-2.2,4.5-.1,0,1.2-1.2,2.7-2.9,3.7s-3.2,2.4-3.4,3.4c-.6,1.9,2.3,3,4.7,1.6,1.3-.7,1.6-.4,1.6,1.5,0,3.1,2.2,5.1,3.8,3.5a5.46,5.46,0,0,0,1.2-3.5c0-2.5,1-2.9,2.6-1.3,1.4,1.4,4.4.2,4.4-1.6,0-.8-1.6-2.4-3.5-3.5s-3.5-2.9-3.5-4c0-2.4.2-2.4,4.2.1,4.3,2.6,6.8,2.6,6.8,0,0-1.4-1.7-3-5.5-5.1s-5.5-3.7-5.5-5c0-1,.4-1.9.9-1.9s4.5,2.1,9,4.7c7.3,4.3,8.1,5.1,8.1,7.8,0,2.5-.7,3.4-4.1,5.3-6,3.5-4.1,7.5,2.4,4.7,1.4-.6,1.7-.2,1.7,2.3,0,1.7.5,3.4,1,3.7,1.6,1,4-1.5,4-4.1,0-2.1.2-2.3,2.4-1.2a6.09,6.09,0,0,0,4.1.4c2.2-.8.4-4.1-3.5-6.1-1.7-.9-3-2.3-3-3.1,0-2,1.4-1.5,8.5,3.1,5.4,3.4,5.5,3.5,5.5,8.3s-.1,4.9-5,7.6c-5.7,3.1-8.1,6.3-5.5,7.3.9.3,3.4-.4,5.5-1.6,4.8-2.7,5-2.7,5,.8,0,2.6-.8,3.4-7.5,7.1-8.2,4.5-10.8,7.4-7.6,8.5,1.2.3,4.1-.7,7.9-3,3.3-1.9,6.2-3.5,6.4-3.5s.2,1.5,0,3.3a5.91,5.91,0,0,1-3.3,4.9c-3.1,1.8-3.8,4.5-1.4,5.4a3.09,3.09,0,0,0,3-.6c1.3-1,1.5-.8,1.5,1.3,0,2.7,2.3,5.2,4,4.2.5-.3,1-1.9,1-3.6,0-3.1.9-3.6,2.7-1.8,1.5,1.5,4.3.4,4.3-1.6,0-.9-1.6-2.5-3.5-3.6-2.7-1.6-3.5-2.7-3.5-5,0-1.6.2-2.9.4-2.9a59.74,59.74,0,0,1,6.3,3.5c5.9,3.5,8.7,4.3,9.8,2.5.9-1.4-2.6-4.4-9.3-8.2-5.2-2.8-6.1-3.7-6.4-6.5-.5-3.9-.3-3.9,3.7-1.3,3.5,2.3,7.5,2.6,7.5.6,0-1.6-2.9-4.1-7.9-6.8-2.6-1.4-3.1-2.3-3.1-5.3,0-2,.4-3.5.9-3.3s5.2,2.8,10.5,5.8c9,5.2,9.6,5.7,9.6,8.7,0,2.7-.7,3.7-4,5.8-2.2,1.4-4,3.2-4,4,0,1.7,3.2,2,6.1.5,1.7-.9,1.9-.7,1.9,1.8,0,3.6,2.1,5.7,3.8,4a6.67,6.67,0,0,0,1.2-4.1c0-2.9,0-2.9,2.4-1.3s5.6,1.3,5.6-.3c0-1.2-2.4-3.7-5.2-5.4-1.6-1-2.8-2.4-2.8-3.3,0-1.3.7-1.1,4.3.8,3.7,2.1,4.2,2.8,4.5,6.3.4,4.9,1.9,7,3.8,5.4a5.14,5.14,0,0,0,1.4-3.6v-2.5l3.6,2.1c4.4,2.6,7.4,2.7,7.4.3,0-1.1-1.6-2.8-4-4.1l-4.1-2.3,2.7-2.5c2-1.9,2.4-2.7,1.5-3.6s-2.1-.7-5.2,1l-3.9,2.1-4.6-2.5c-3.4-1.9-4.3-2.8-3.4-3.7s2.1-.5,5.1,1.1c4.1,2.3,6.9,2.1,6.9-.3,0-.7-1.1-2.1-2.5-3l-2.5-1.6,2.5-2c1.4-1.1,2.5-2.6,2.5-3.4,0-1.6-4.5-2-5.5-.4-1.2,2-2.5,1-2.5-1.9,0-1.7-.5-3.3-1-3.6-2.1-1.3-4,1.7-4,6,0,3.8-.3,4.4-3,5.5s-3.6.9-13-4.6c-5.5-3.3-10-6.2-10-6.6s1.3-1.4,3-2.3c2.8-1.4,3.1-1.4,7.7,1.5s7.7,3.7,8.7,2.1c.8-1.2-1.4-3.6-5.3-5.9l-3.3-2,2.8-1.5c2.8-1.4,3.2-1.3,10.6,3,7.1,4.2,10.8,5,10.8,2.4,0-1.4-1.6-2.7-7.9-6.6l-5.4-3.3,2.6-1.6c2.4-1.6,2.7-1.6,5.7.3,3.4,2,6,1.8,6-.5a4.1,4.1,0,0,0-1.9-2.6c-1.9-1.2-1.9-1.3.5-3.5,3.6-3.3,3.1-4.7-1.6-3.9-3.5.5-4,.4-4-1.3a3.5,3.5,0,0,0-1-2.6c-1.8-1.1-4,1.6-4,5a5.09,5.09,0,0,1-2.5,4.9l-2.5,1.6v-7.4c0-4.9-.4-7.7-1.3-8.5-2.6-2.1-3.7.9-3.7,10.1,0,8.7,0,8.8-3,10.3l-3,1.6v-5c0-5.3-1.2-7-3.5-5.1-1,.8-1.5,3.2-1.5,7v5.8l-4.4,2.6-4.5,2.6-6.3-3.6c-7.8-4.5-7.4-4.2-6.1-5.5.9-.9,2.1-.6,4.6,1,6,3.7,9.7,2.1,5.4-2.3l-2.5-2.4,2.4-2.1c1.3-1.2,2.4-2.5,2.4-3,0-1.8-3.3-2.1-5.6-.6s-2.4,1.5-2.4-1.4a6.57,6.57,0,0,0-1.3-4c-2.1-1.7-3.7.7-3.7,5.4,0,3.4-.5,4.3-2.9,5.8-2.9,1.7-2.9,1.7-11.7-3.5-8.2-4.8-8.6-5.2-6.5-6.2,1.9-.8,3.2-.5,7.1,1.7,9.9,5.5,12.4,1.8,3-4.5-2.3-1.5-2.4-1.7-.6-2.4,1.1-.4,2.9,0,4.8,1,1.6,1,3.6,1.5,4.4,1.2,2-.8,1.7-3.3-.5-4.6-1.9-1-1.9-1.1.6-3.6,2.3-2.3,2.4-2.7,1-3.6a3.85,3.85,0,0,0-3.6.2c-2.8,1.4-3.1,1.3-3.1-1.4,0-1.4-.5-2.8-1-3.1-1.9-1.2-4,1.7-4,5.5,0,2.5-.5,4-1.6,4.4-2.6,1-2.7.8-2-3.7.5-3.3.3-4.7-.8-5.6-2.5-2.1-3.6-.3-3.6,6.4,0,6.2-.1,6.4-3.5,8.5l-3.5,2.1-7.8-4.6-7.8-4.7L192.6,188l-2.8-10.9,2.8-10.9,2.9-11,7.9-4.4,7.8-4.5,3.4,2c3.3,1.9,3.4,2.2,3.4,8.3,0,3.5.5,6.7,1,7,2.1,1.3,4-1.7,4-6.2,0-3.9.2-4.4,1.5-3.3a6.88,6.88,0,0,1,1.5,4.5c0,4,2.3,6.3,4.5,4.5a4.16,4.16,0,0,0,1.5-2.6c0-.9,1-1.1,3.5-.7,2.8.4,3.5.2,3.5-1,0-.9-1.1-2.4-2.5-3.3-2.5-1.7-2.5-1.7-.5-3.1,2.2-1.6,2.6-3.9.8-4.6-.7-.2-2.9.4-5,1.4-3.1,1.6-3.8,1.6-4.8.4s-.6-1.7,2.4-3.1c3.5-1.7,5.1-3.8,4-5.5-.9-1.5-3.1-1-8.3,2-4.1,2.5-5.2,2.7-6.7,1.7s-.7-1.9,6.7-6.4c8.2-4.9,8.4-5,11.1-3.4,2.4,1.4,2.8,2.3,2.8,5.8,0,4.6,1.9,7.1,3.8,5.2a5.46,5.46,0,0,0,1.2-3.5c0-2.4,1.4-3.1,2.5-1.3.3.5,1.7,1,3.1,1,3.6,0,3-3.5-1-5.7-1.8-1-1.8-1.1.7-2.8,5.7-3.7,1.7-6.7-4.4-3.3-2.7,1.5-4.2,1.9-5,1.1s.9-2.1,5.1-4.7c3.4-2,6.6-3.6,7.2-3.6a21.34,21.34,0,0,1,5.5,2.5l4.3,2.6v6.4c0,3.5.5,6.7,1,7,2.1,1.3,4-1.7,4-6.1s0-4.3,2.5-3.2,2.5,1.5,2.5,10.3c0,6.5.4,9.6,1.3,10.4,2.5,2,3.7-.9,3.7-8.6,0-4,.2-7.3.5-7.3a11.15,11.15,0,0,1,2.8,1.5c1.6,1,2.4,2.6,2.5,5.2.2,2.1.7,4.2,1.2,4.7,1.3,1.3,4-1.2,4-3.6,0-1.6.3-1.7,2.1-.8,2.2,1.2,4.9.7,4.9-1,0-.6-.9-1.8-1.9-2.7-2-1.6-2-1.7,0-4.2,1.8-2.3,1.9-2.5.3-3.4-1.2-.7-2.5-.5-4.4.7-3.4,1.9-4.9,2-7.3.1-1.7-1.2-1.4-1.6,4.7-5.1,4.3-2.5,6.6-4.5,6.6-5.6,0-2.8-3.2-2.2-11,2.3-6.2,3.6-7.5,4-9.6,3-3.3-1.5-3-2.3,1.3-4.6,2.1-1.1,3.9-2.7,4.1-3.6.6-3-2.8-2.9-8.3.2-5.2,2.9-5.5,3-8.4,1.4a10.24,10.24,0,0,1-3.1-1.9c0-.2,4.7-3.1,10.5-6.5,10.2-6,10.6-6.1,13-4.5,1.9,1.2,2.5,2.5,2.5,5.3a11.35,11.35,0,0,0,1.5,5.7c1.5,1.9,1.5,1.9,3,0a8,8,0,0,0,1.5-3.8c0-1.6.3-1.7,2.1-.8,4.4,2.4,6.8-1.6,2.7-4.4l-2.2-1.6,2.2-1.6c2.6-1.8,3-5.4.6-5.4a12.67,12.67,0,0,0-5,2.1c-2.3,1.4-3.8,1.8-5,1.1s-.8-1.4,3.2-3.6l4.9-2.7,3.7,2.1c3.8,2.1,5.8,2,5.8-.3,0-.7-1.2-2-2.7-2.8l-2.6-1.7,4.1-2.3c4.4-2.6,6-5.6,3.3-6.2-.9-.2-3.5.7-5.8,2l-4.2,2.4-.3-3.3c-.5-5.2-3.2-4.3-3.6,1.2-.3,4.1-.7,4.7-4.2,6.8-7,4-8.6,2-2-2.4,5.9-3.9,4.2-7.6-2.2-4.9-1.5.6-1.8.2-1.8-2.3,0-1.7-.5-3.4-1-3.7-1.6-1-4,1.5-4,4.1s-1,3-2.7,1.3a3.42,3.42,0,0,0-3.2-.4c-1.7.5-1.9,1-1.1,2.6a11.1,11.1,0,0,0,4.1,3.4c2.6,1.4,3,2.1,2.7,5.2-.3,3.9.2,3.5-15,12.2l-5.8,3.2v-3.8c0-3.5.4-4,5.1-6.6,5.4-3.1,6.9-5.1,5-7-.8-.8-2.1-.5-5,1.1-4.9,2.8-5.1,2.8-5.1-.6,0-2.4,1-3.3,7.7-7.2,4.3-2.5,7.9-5.3,8.1-6.1.6-3.1-2.8-2.8-8.7.6a63.17,63.17,0,0,1-6.5,3.5c-.3,0-.6-1.3-.6-3,0-2.2.7-3.3,2.9-4.4,2.5-1.3,4.1-3.4,4.1-5.3,0-.3-1.5-.3-3.4,0-3.2.5-3.5.3-3.8-2.1-.2-1.9-.9-2.7-2.3-2.7s-2.1.8-2.3,2.7c-.3,2.5-.6,2.6-3.9,2.1s-3.5-.4-3,1.1a9.86,9.86,0,0,1,.7,2.2,13.83,13.83,0,0,0,3,1.9c2.3,1.2,3,2.2,3,4.5,0,1.7-.3,3-.6,3a63,63,0,0,1-6.8-3.5c-4-2.2-6.6-3.1-7.5-2.6-2.4,1.5-.5,3.6,7.3,8.1,6.6,3.8,7.6,4.7,7.6,7.2,0,3.3-.5,3.4-4.7.8-3.5-2.1-6.6-1.7-6.1.8.2.9,2.7,3,5.6,4.6l5.2,3v5.2c0,5.7,0,5.7-8.2,10.3-5.4,3-5.8,3.1-5.8,1.2a2.71,2.71,0,0,1,1.8-2.5c2.2-.7,6.2-4.3,6.2-5.5,0-1.8-3.4-2.1-5.6-.6s-2.4,1.5-2.4-1.4c0-3.5-2.1-5.6-3.8-3.9a6.56,6.56,0,0,0-1.2,4c0,2.8-.1,2.8-2.4,1.3s-5.6-1.2-5.6.6c0,1.2,4,4.8,6.2,5.5,1.5.4,1.8,1.4,1.6,4.2-.3,3.3-.8,3.9-8.5,8.3-8,4.6-8.3,4.7-8.3,2.4,0-1.8,1.2-3.1,4.9-5.2,2.8-1.5,5.2-3.5,5.4-4.5.8-2.7-2.7-3.1-6.7-.7-3.6,2.1-3.6,2.1-3.6.1,0-1.3,1.2-2.8,3-3.9,1.7-.9,3-2.6,3-3.6,0-1.6-.6-1.8-3-1.5s-3,.1-3-1.3c0-2.1-2.5-4.3-4-3.4-.5.3-1,1.7-1,3,0,2.2-.3,2.3-3.5,1.8-4.7-.8-4.8,1.9,0,4.9,1.9,1.3,3.5,3.1,3.5,4,0,2.2-.2,2.2-5-.2-4.1-2.1-7.2-1.8-6.3.6.3.8,3,3,5.9,4.9,4.8,3.1,5.4,3.9,5.4,6.9,0,3.2-.5,3.7-8,8l-8,4.6-10.7-2.6-10.8-2.7-7.9-8.3-7.9-8.4.2-8.8c.2-7.6.5-8.9,2.4-10.4,3-2.4,3.8-2.3,9.7,1.2,7.9,4.6,11.7,1.3,4-3.5-3.9-2.5-4.5-4.5-1.4-4.5a9.15,9.15,0,0,1,3.9,1.6c2.8,1.8,5.5,1.3,5.5-1a3.68,3.68,0,0,0-1.9-2.6c-1.9-1-1.9-1.1.5-3.5,1.4-1.4,2.2-3,1.9-3.5-.8-1.3-4.2-1.3-5,0-1.1,1.8-2.5,1-2.5-1.4,0-1.4-.5-2.8-1-3.1-1.9-1.2-4,1.7-4,5.5,0,2.4-.5,4-1.5,4.4-1.2.4-1.5-.4-1.5-3.8,0-4.4-1.9-7.4-4-6.1-.5.3-1,3.5-1,7,0,5.4-.3,6.6-2,7.5-1.9,1-2,.8-2-8.9,0-10,0-10.1,2.8-11.4,2.4-1.3,3-1.2,5.7.4,5.7,3.6,9.5,1.6,5-2.5-2.7-2.5-2.7-2.5-.6-3.8,2.4-1.5,2.8-4.3.7-5.1-.7-.3-2.3.1-3.5.9-2,1.4-2.1,1.4-2.1-1.4,0-3.6-2.2-5.9-3.8-3.9-.6.7-1.2,3.2-1.4,5.6s-.9,4.6-1.5,4.9c-1,.3-1.3-1.7-1.3-7.6v-8l4.4-2.5,4.3-2.4,5.5,3c8.9,5,12,1.5,3.3-3.7l-3.8-2.4,2.8-1.5c2.8-1.4,3.2-1.3,10.3,2.9s9.2,5,10.4,3.8c1.6-1.5-.9-4.3-6.4-7.4l-6.1-3.3,2.3-1.9c2.2-1.8,2.3-1.8,5.6.1,3.5,2.1,6.4,1.9,6.4-.5a4.1,4.1,0,0,0-1.9-2.6c-1.9-1.2-1.9-1.3.6-3.6,3.4-3.1,1.8-5.2-2.7-3.5-2.8,1.1-3,1-3-1.2,0-1.3-.5-2.7-1-3-1.8-1.1-4,1.6-4,5a5.09,5.09,0,0,1-2.5,4.9l-2.5,1.6v-7.4c0-5.2-.4-7.7-1.5-8.6-2.7-2.2-3.5,0-3.5,9.5V48l-3,1.6-3,1.6v-4.9c0-5.3-1.5-7.8-3.7-6.1-.8.7-1.3,3.4-1.3,7.5,0,5.4-.3,6.5-2.2,7.8a8.74,8.74,0,0,1-3,1.6c-.5,0-.8-5.4-.8-12,0-11.6.1-12,2.5-13.6s2.7-1.5,6,.5c6.2,3.6,9.5,2,5.1-2.4l-2.5-2.5,2.6-2.6c2.4-2.4,2.5-2.7.9-3.6a4.21,4.21,0,0,0-4.2.1c-2.2.9-2.4.8-2.4-1.3,0-2.6-2.4-5.1-4-4.1-.5.3-1,2.6-1,4.9,0,2.7-.6,4.8-1.5,5.6-1.3,1.1-1.5.5-1.5-4.3,0-5.2.2-5.6,3.5-7.7,6-3.7,4-6.4-2.6-3.6-1.4.6-1.7,0-1.6-3.7C155.3,1.18,153.8-1.42,151.7.78Zm-.7,146.7V158l-5.9,3.5a40.22,40.22,0,0,1-6.6,3.6c-1.1,0-18.7-10.2-18.3-10.6.2-.2,4.2-1.2,8.8-2.3,8.4-1.9,8.6-2,14.5-8.5,3.3-3.6,6.3-6.5,6.8-6.6S151,141.78,151,147.48Zm11.8-3.5,6.7,6.8,8.8,1.8,8.8,1.8-9.1,5.3c-5,3-9.5,5.4-10,5.4s-3.4-1.5-6.5-3.4l-5.6-3.4-.2-10.6c-.1-5.8-.1-10.6.1-10.6S159.1,140.18,162.8,144ZM131,167.08l4.5,2.6.3,7.1.3,7.1-9.3,5.5c-5.1,3-9.4,5.4-9.5,5.3s1-4.2,2.6-8.9l3-8.7-3-8.7c-1.6-4.8-2.9-8.9-2.9-9.1s2.1.9,4.8,2.4S128.5,165.58,131,167.08Zm55.7,1.9-2.5,8,2.8,9.1c1.5,4.9,2.6,9,2.3,9s-4.5-2.4-9.3-5.2l-8.9-5.3-.3-7.4-.3-7.3,9-5.3c5-3,9.1-5,9.3-4.5S188,164.58,186.7,169Zm-41.6,23.7,5.9,3.5v10.5c0,5.7-.2,10.4-.4,10.4a95,95,0,0,1-7-6.8c-6.6-6.8-6.7-6.9-15.2-8.7-5-1-8.2-2.1-7.6-2.7,1.7-1.7,15.7-9.7,17.1-9.7C138.6,189.08,141.9,190.68,145.1,192.68Zm30.3.3c12.2,6.8,12.1,6.5,2.5,9-7.8,2.1-8.8,2.7-14.9,8.7a88.47,88.47,0,0,1-7,6.4c-.3,0-.4-4.9-.2-10.8l.3-10.9,5.2-3c2.9-1.7,5.6-3.2,6.1-3.2S171.5,190.88,175.4,193Z"/>
</svg>
