<svg id="ducky" xmlns="http://www.w3.org/2000/svg" width="851.03" height="407.57" viewBox="0 0 851.03 407.57">
  <title>ducky</title>
  <path id="center_ducky" data-name="center ducky" d="M437.34,309.29c5.69,2.37,5.69,2.37,2.76,7.41-.6,1-1.15,2.1-1.84,3.06-1.3,1.81-1.33,3.62-1.05,5.85a28.9,28.9,0,0,1-.5,9c-.42,2.1-1.35,2.18-3.66,1.21l-.78,2-.33,0c.22-2,.43-3.92.65-5.88l-.78-.15c-.55,3-1.11,6.06-1.66,9.09l-.49-.08c.15-1.31.31-2.61.46-3.91l-.85-.19c-1.47,6.51-3,13-4.38,19.53a32.39,32.39,0,0,0-.56,6.82c0,3.58.89,4.78,4.48,5a73.1,73.1,0,0,1,19.85,3.55l3.91,1.39L450.38,375l6.94,3.26-.06.73-5.69.9,8.75,5.55-.13.86a14.49,14.49,0,0,1-2.92.23c-6.8-.77-13.67-1.26-20.38-2.53a84,84,0,0,0-23.4-1.4c-10.05.89-13.08-2.3-9.65-11.74a90.66,90.66,0,0,0,5.46-27,44.72,44.72,0,0,0-1.05-13c-2.12-8.22-.94-16,2-23.64a151.18,151.18,0,0,1,7-15.47,13,13,0,0,0,.95-10.33c-2.57-8.35-5-16.73-7.5-25.11a17.16,17.16,0,0,0-1.36-4.13c-1.93,4.62-4.15,9.15-5.71,13.89-1.65,5-2.41,10.24-4,15.22-1.36,4.17-3.44,8.1-5.15,12.16a7.34,7.34,0,0,0-.52,2.22c-.3,3.4-.66,6.73-3.53,9.18a2.65,2.65,0,0,0-.68,2.1c2,10.67-1.59,20.19-5.92,29.59-2.87,6.22-5.88,12.41-8.19,18.84-2,5.6-3.12,11.52-1.49,17.55a3.29,3.29,0,0,1,0,2.06c-2,4.43-.27,8.53.85,12.74,1.38,5.15,2.5,10.36,3.83,15.95-5.73-.55-7.64-5.56-11.21-7.54-2.09,2.95-4,5.72-6,8.48l-1.13-.17c-1.15-2.66-2.31-5.32-3.32-7.64l-12.39,7.05-.69-.62a31.06,31.06,0,0,1,4.6-12.77c1.91-2.91,3.86-5.79,5.91-8.6,3.84-5.28,4.76-11.25,4.51-17.6-.33-7.84-.44-15.7-.74-23.55-.41-10.57,2.25-20.46,6.52-30A41.75,41.75,0,0,0,367,305.2c1-3.59,1.74-7.26,2.67-10.88.78-3.05,1.81-6.05,2.46-9.13.57-2.67,1.4-5.53,1-8.13a113.08,113.08,0,0,1,5-54.34,4.43,4.43,0,0,0-.36-3.6c-3-3.91-2.68-8.1-1.3-12.31,1-2.92,2.44-5.65,3.63-8.49,1.13-2.69,2.13-5.44,3.31-8.11,1.51-3.45-.76-6.51-.94-9.79-.21-3.94-2.38-6.93-5-10.08-3.79-4.59-6.55-10.09-9.32-15.43a53.25,53.25,0,0,1-3.57-10.09c-1-3.51-2.2-6.76-5.06-9.24a5.67,5.67,0,0,1-1.64-2.79c-1.49-6.26-3.69-12.51-4-18.85-.27-5.35-2.48-9-5.86-12.36-4.48-4.47-7.2-9.78-9.11-15.79-1.8-5.64-4.51-11-6.72-16.51a6.29,6.29,0,0,1-.65-3.66c1.83-6.56,3.91-13.05,5.88-19.57,1.89-6.29,6.06-11,10.33-15.82,2.81-3.15,5-6.86,7.59-10.21,4.82-6.23,9.06-13.11,17.72-14.9,2.69-.56,5.2-2,7.83-2.86a13.25,13.25,0,0,1,4.06-.8c.87,0,2.34.5,2.48,1a3.64,3.64,0,0,1-.84,2.85A20.7,20.7,0,0,1,383.09,8,17.36,17.36,0,0,1,385.62,11a19,19,0,0,1,1.11,4l-3.32.71c-1,2.09-1.51,5.32-3.23,6.23-3.15,1.67-5.85,4.59-10.06,4.31S364,27.41,363.59,31a61,61,0,0,1-10.34,28.5,12.13,12.13,0,0,0-1,2.48c7.27,2.8,12.26,7.61,14.83,14.94a6.64,6.64,0,0,0,2.78,3c4.75,2.91,8.86,6.33,11.29,11.54.52,1.11,2.06,1.75,3.13,2.6A12.85,12.85,0,0,0,386.05,91a27.55,27.55,0,0,0-1.62-16.94c-3.63-9-1-18.77,7-24.43l1.94-1.39c-.4-1.73-1.25-3.5-1-5.09.11-.68,2.51-1,4.11-.83a38.19,38.19,0,0,1,3.23-4.59c1.89-2,3.3-1.64,3.73,1.08.4,2.51.35,5.09.52,8,4.19,1.66,7.09,5.12,9.34,9.4a15.34,15.34,0,0,0,4.14,4.52c.59.47,2,.06,3-.19,4.2-1.07,7.46,0,9.79,3.12a4.26,4.26,0,0,1,0,5.73,15.25,15.25,0,0,1-3.37,3.34c-3.09,2-6.34,3.68-10.23,5.91h4.56c1.68,1.23,4.75,2.42,3.23,6-1.92,4.57-6.31,2.39-10,3.49-.34,2.44-.72,5.14-1.09,7.78,2,1.25,3.14.91,4.48-.75,5.63-7,12.59-11.77,21.83-12.61a4,4,0,0,0,2.26-1.18,49.39,49.39,0,0,1,18.42-12.32c-1.27-1.87-2.77-3.42-3.49-5.27-2.12-5.54-3.94-11.2-5.87-16.81-.38-1.13-.69-2.28-1.05-3.42-2.06-6.41-2.07-6.2-8.67-6.63-2.42-.16-4.76-1.53-7.12-2.39-1.55-.57-3-1.34-4.62-1.77-2-.55-5.09.27-5.24-2.55-.07-1.39,2.37-2.91,4-4.11,1.19-4.28-.16-5.9-4.73-6.61-1.73-.27-5.57.47-3.17-3.68a.57.57,0,0,0,.08-.28c0-1.12-.07-2.24-.1-3.36,1.45.2,2.9.35,4.33.63,5.88,1.18,11.71,2.6,17.62,3.53,2.67.42,4.86.91,6.7,3.15,1.6,2,3.83,3.38,5.73,5.1.87.79,2,1.6,2.32,2.62,1.81,5.48,5.76,9.44,9.28,13.73,4.86,5.92,9.51,12,11.76,19.49.9,3,1.75,6.05,2.77,9,1.46,4.26.63,6.26-2.81,9.31a36.12,36.12,0,0,0-7.37,8.36c-3.79,6.41-9.64,10.5-15.29,14.85a106.13,106.13,0,0,1-9.18,6,7.63,7.63,0,0,0-3.56,4.8c-1.45,5-3.7,9.84-5.16,14.87-2,6.78-6.31,12.76-6.26,20.27,0,2.58-1.58,5.24-2.74,7.71a6.22,6.22,0,0,0-.36,5.29c1,2.79,1.16,5.88,1.7,8.83a11.53,11.53,0,0,0,.5,1.92c.58,1.57,1.32,3.09,1.79,4.69.6,2,.57,4.24,2.57,5.75a3.63,3.63,0,0,1,.8,2.75,15.57,15.57,0,0,0,2.91,10c2.51,3.75,2.75,8,2.86,12.36a5.44,5.44,0,0,0,.57,2.47,64,64,0,0,1,8.4,27.74c.47,6.68-1.42,13.54-2.48,20.29-.82,5.28-2,10.49-3,15.74-.33,1.76-.44,3.56-.82,5.31-.6,2.7-.85,5.14.4,8a8.53,8.53,0,0,1-1.62,9C439.13,299.68,438.89,304.58,437.34,309.29Zm-70.81,44.59,1.64-1.14-1.55-2.54,3.38,2.44.83-.43c-.22-1.33,0-3.31-.77-3.83-1.1-.73-2.91-.38-4.42-.49l-.17.88,1.26,1.53-2.19,1.89,2,1.65-2.19.88,0,.65,5.46,1.58C370.29,353.67,370.29,353.67,366.53,353.88Zm22-144.7c-5.42,2.37-9.37,7.1-8.47,10.4l2.61-2.42c-6.47,9.7-6.88,20.82-8.46,31.64,1.36-2.46,2.29-5.07,3.43-7.58,2.35-5.14,4.7-10.28,7.29-15.31.73-1.43,2.26-2.45,3.43-3.66-1,2.31-2.48,4.09-3.39,6.13-3.5,7.9-6.73,15.91-10.2,23.82-1.95,4.44-1.94,8.51.75,12.73,1.13,1.76,1.28,4.15,1.88,6.25l-.57.11c-.88-2.12-1.75-4.25-2.63-6.38l-1,.33c.57,4.11,1.36,8.21,1.63,12.35.17,2.54.32,5.59-.87,7.61-2.5,4.22-2.95,8.52-2.54,13.13.05.49.28,1.06.11,1.44-1.21,2.62-2.58,5.16-3.75,7.79-1.73,3.91-.56,6.73,3.54,8.73l1.25-3.88c1,2.43-1.74,5.82,2.79,6.92,5,1.2,8.53.6,9.3-5.82l.73.8c-.33,1.57-.66,3.14-1,4.83,2.51.34,4.15-.4,4.11-3-.07-4.08-.36-8.16-.54-12l-3.92-.44c7.76-2,9.36-4.4,7.8-12.36-.43-2.22-1-4.41-1.66-7.12.67.62,1,.79,1.08,1,.82,2.1,1.59,4.21,2.39,6.32,2.61-2.11,5-8.78,4.68-12.42l-8.56.77-.07-1.12c.62,0,1.24,0,1.85,0,4.61.39,7.26-1.54,7.84-6.15.45-3.64.51-7.33.7-11,.07-1.38,0-2.76,0-4.14l1,0v12c1.57-5.82,3.2-11.67,3.77-17.62s.13-12.12.13-18.18l.45-.06c.54,6.82,1.07,13.65,1.58,20,3.4-5.48,3-12.39,4.58-18.91l.33,2.47c1.44-5.61,5-11.07,1-17.69-.54,3.92-1,7.15-1.43,10.38l-.86-.1c.32-3.31.61-6.62,1-9.93s-.43-5.12-2.8-7.06c-.53,4.44-1.1,9.17-1.66,13.91l-.9-.06a28,28,0,0,1,0-3.43c.22-1.77.69-3.51.9-5.28.35-3.08.72-6.37-1.86-8.65-4.36-3.87-9.51-4.26-14.61-1.5ZM430,173.79c-.9-.67-1.78-1.87-2.72-1.92-4.35-.2-8.71-.09-13.75-.09,4.14-3.95,1.55-8.34,2.48-12.37a16.62,16.62,0,0,1,1.44,6.26c0,2.55,1.23,4.23,3.4,4.55,2.36.34,4.85-.21,7.28-.37-.2-2.38-.3-4.77-.66-7.13-.15-.93-.93-1.74-1.29-2.66a4.14,4.14,0,0,1-.28-1.9c.33-3,.74-5.93,1.12-8.91.4,1.07.88,2.37,1.37,3.67a56.52,56.52,0,0,0,2-10.58c.16-1.32.29-2.64.46-4.21-6.47,2-12.16-.39-17.19-5.69v9.11l13.6,6.17c-5.15,1.05-8.9-2.84-13.83-4.88.2,2.66.35,4.78.5,6.91l-.69.13L411.29,144l-5.69,1.14-.18-.84,6.5-2-.64-6c-6.93.32-13.83,1.08-20.7.84-6.11-.21-11-3.15-13.26-9.36-1.37-3.73-2.71-7.49-4.43-11-1.89-3.89-2.09-7.36,1.11-10.59.09-.09,0-.32.05-.5l-4.13,3.06V111c-1.44-1.14-2.89-3-4.73-3.57-2-.65-4.43-.15-7.06-.15l1.89,1.11-1.51,1,4.66,4.9-.44.37L355,108.93a69.11,69.11,0,0,0,4.63,24.17c.33.85,1.18,1.5,2.28,2.86-.25-4.07-.45-7.2-.64-10.34l.88-.11c1.94,16.74,6.53,32.41,17.28,45.61l.73-.28q-1.23-6.24-2.47-12.46l1.08-.21c1.84,8.08,3.8,16.14,5.48,24.26.78,3.81,2.26,5.95,6,6.85s7.82,1.48,11.62,2.59c2.36.69,4.52,2.12,6.77,3.22l-.3.26-23-6c-.94,2.16.87,2.5,2.16,2.81,6.17,1.52,12.39,2.81,18.54,4.39,8,2,15.87,2.19,23.73-.6,5.57-2,5.31-1.37,3.91-7.39l-2.72,4-.77-.49c1-1.66,1.86-3.34,2.85-5,1.87-3,1-5-1.81-5.7L430,174.09A1,1,0,0,0,430,173.79ZM349.8,31.49a28.9,28.9,0,0,0-11,15.14c-1.11,3.5-1.58,7.21-2.83,10.65-2.24,6.18-.28,12,1,17.92.58,2.68,3.13,5,3.46,7.65.93,7.64,4.06,13.77,10.22,18.37.46.35.47,1.26.91,1.68,1.44,1.38,3.42,4,4.41,3.72,4.32-1.37,8.45-.68,13.33,0L365,100l.76-.52,5.08,7,4.86-5.2,1,.64c-1.2,2.54-2.54,5-3.52,7.65a5.6,5.6,0,0,0,0,3.66c1.78,4.63,3.89,9.14,5.66,13.77s5,7.53,9.58,8a102.84,102.84,0,0,0,17.46-.06c5.59-.38,7.86-5.47,5-10.33a3.7,3.7,0,0,1-.49-1.58c-.18-2.78-.35-5.57-.41-8.36a7.7,7.7,0,0,1,.59-2.11c1.16,1.67,2.42,2.75,2.63,4s-.59,2.89-.77,4.37c-.06.48.43,1.07.76,1.54.67,1,1.4,1.92,2.08,2.84-2.44,4-2.33,4.62,1.16,7.5.85.7,1.73,1.35,2.6,2,4,3,8.45,2.39,12.83,1.14a3.77,3.77,0,0,0,1.85-2.12c1.7-4,3.49-8,4.8-12.16,1-3,1.07-6.33,1.85-9.43a7,7,0,0,1,2.26-3.79c2.44-1.76,5.33-2.88,7.8-4.61,3.62-2.54,7-5.46,10.55-8.07,5.71-4.16,9.52-9.5,10.78-16.53a5.07,5.07,0,0,1,.6-1l.47,2.59c1.62-1.28,3.08-2.45,4.57-3.59,3.06-2.36,3.41-4.64,1.19-8.09l-3.07,3.24-1-.31c3.3-3.25,3.28-6.64,1.15-10.13-.15-.24-.32-.71-.22-.81,2-2,.06-3.75-.79-5.1-3.12-5-6.53-9.71-9.94-14.47-2.22-3.09-4.73-6-6.91-9.07-1.51-2.14-2.44-4.72-4.1-6.71a36.34,36.34,0,0,0-6.17-5.5,14,14,0,0,0-4.78-2.4c-3.63-.9-7.36-1.42-11-2.15a14.63,14.63,0,0,0-10,1.64l13.58,3c-4.94,1.49-6.23,3.21-4.56,7,.55,1.23,1.92,2.16,3.07,3,.51.37,1.42.22,2.15.3-.2-.75-.44-1.5-.6-2.26s-.75-2.23-.36-2.65c1.51-1.65,5.93-.69,6.53,1.49.83,3,2.67,4.72,6.05,5.49-3.56.8-5.69-.49-7-3.76-1.11-2.79-2-3.19-4.07-2.13.33,1.45,1.14,2.95.78,4.09-.25.81-2.05,1.15-3.06,1.66,2.32,2.87,5.75,3.29,9.3,2.75,3.33-.5,5.38.72,6.35,3.83,1.61,5.11,2.89,10.34,4.83,15.32A94.33,94.33,0,0,0,461,66.93c.56,1,2.18,1.42,3.38,1.94,1.49.65,3.06,1.13,4.39,1.61-3,.15-6.2-.32-8.93.55-8,2.55-13.82,8.31-19.1,13.54-8.06-.68-13.41,2.68-17.33,10.34-.48-1.39-.71-2-.72-2.08-4.08.64-3.56,6.89-8.71,5.53.23,1,.45,1.83.66,2.71l-.5.22-2.55-4c-3-.07-4.61,1.51-5.41,4.2-.11-.94-.21-1.89-.32-2.91h-4.33l2.27,4.32-.68.37a25.12,25.12,0,0,0-1.83-2.59c-.93-1-1.85-2.27-3-2.71-3.74-1.36-7.6-2.39-11.5-3.57l-1,2.28-3.16-1.17.48,2-.77.3c-1.6-3.2-2.77-6.74-4.92-9.52s-5.38-5-8.24-7.58l-3.43,8.6-1.32-.16c4-5.37,2.92-10.85-.38-15.15C361,70,358.09,65,352.51,63.74l-2.81,6.32-.72-.34c.31-1,.63-2,1.1-3.51l-3.5,2.87c4.13-7.62,8.11-14.78,11.9-22a24.8,24.8,0,0,0,1.86-5.91c1.14-5,2-10.12,3.31-15.1a6.64,6.64,0,0,1,2.73-3.15c3.11-2.21,6.34-4.25,9.59-6.27a8.1,8.1,0,0,1,2.36-.6,6.68,6.68,0,0,1,.38,2.47,17.27,17.27,0,0,1-1.57,3.24c3.45-.76,4.2-2.4,3.95-6.33-.19-2.9-1.88-3.27-4-2.86a10.3,10.3,0,0,0-3.51,1.67,24,24,0,0,0-2.66,2.29l-.52-.68c1.84-2.2,3.52-5.14,6.85-4.74,2.78.34,5.42,1.88,8.13,2.88-1.67-5.35-7.35-7.08-11.88-3.66-1.47,1.12-3,2.15-4.51,3.21l-.56-1c3.63-2,6-6,11.25-5.33,2.68.33,5-1.46,6.4-4.11a44.78,44.78,0,0,0-18.68,6.19c-3.71,2.16-6.59,6-9.31,9.53-3.14,4-5.69,8.55-8.5,12.85ZM422.21,300.2l-1.19,0c-.79-2.43-1.59-4.86-2.63-8.06-1.95,4.21-3.41,7.67-5.15,11-1.15,2.19-.55,3.43,1.44,4.54a22.55,22.55,0,0,0,13.63,2.67c6.62-.71,9.55-4.21,9.39-10.34-.27-.28-.55-.55-.82-.82l-1.62,3.21c0-2.61,0-2.61,2.42-3.95,5.05-2.77,7-9.11,4-13.3l-1.81.65a48.3,48.3,0,0,0,2.42-6.39,79.72,79.72,0,0,0,1.35-9.13c.27-2.56-.37-5.45.61-7.65a52.6,52.6,0,0,0,4.51-25,62.22,62.22,0,0,0-7.6-25.82,39.5,39.5,0,0,0-2.69-3.76c-3.93,3.6-7.2,7.13-7.44,12.2-.26,5.59-2.36,8.83-7.88,10.45-1.9.57-3.91.78-5.79,1.4-.95.3-2.22,1-2.5,1.77-2.78,8-5.06,16.12-2.17,24.71,2.13,6.3,4,12.69,5.94,19,.56,1.81,1.07,3.63,1.77,6l2.5-5.39,1.19.24C420.15,285.48,418.93,292.65,422.21,300.2Zm-5.52,35.56,1,.4c-.6,1.87-1.16,3.76-1.83,5.6-3.46,9.51-7.14,18.95-10.38,28.53-3.15,9.32-1.2,11.33,8.66,10.94a143,143,0,0,1,18.73.75c4.42.41,8.76,1.73,13.17,2.39,3.52.53,7.1.67,10.65,1l.3-1.19-22.84-9.91c6.88.7,12.17,5.92,19.59,3.56l-17.55-5.21.36-1.11c2.06.84,4.05,2,6.18,2.41s4.25.09,6.38.09c-7.33-3.92-15.15-4.37-23.33-4.76l1.93,1.46-.53.77c-1.15-.79-3.07-1.38-3.33-2.4-1.24-4.89-3.5-9.8-1-15a8.68,8.68,0,0,0,.45-1.94,4.92,4.92,0,0,0-.75-.69c-3.88-2.35-3.89-2.37-.12-4.69,1.8-1.11,1.31-2.29,0-3.26-2-1.53-2-2.58.48-3.4,2.23-.73,2.71-1.77.78-3.55a3.06,3.06,0,0,1-.24-2.31c3.68-1.28,2.82-3.4.86-5.85.83-.5,1.69-.74,2.07-1.31a3.77,3.77,0,0,0,.83-2.6c-.82-3-.59-3.32,2.85-3l-1.93-5.59c-5.94,1.43-3.72,7.82-7.43,11.19,1.22-3.92,2.24-7.22,3.13-10.11L410,312.2c-1.45,5-2.33,10.18-1,15.58.74,3,1.85,5.48,5.3,6.2l-3.5-.43c0,3.35.14,6.81,0,10.25s-.65,6.67-1,10h.27Zm-57.17,48.82,1.19.22c-3.54,6.09-3.43,12,.33,17.74,5.91-4.16,5-10.66,6-16.48a1.76,1.76,0,0,1,.47,1.34c-1.18,5.25,1.33,8.87,5.2,11.88,1.18.92,2.42,1.76,3.63,2.64l.68-.53c-1.29-5-2.48-10-3.9-14.9-1.08-3.75-2.27-7.42-.55-11.31a6,6,0,0,0,.07-2.36c-.05-3.44-.09-6.88-.19-10.32,0-.73-.07-1.84-.52-2.11-2.55-1.54-5.23-2.87-8.07-4.38l-1.58,4c-.45-1.56-.77-2.7-1.09-3.84l-.77.12a54.73,54.73,0,0,0,.05,7.47c1.15,8.24-1.55,15.2-6.54,21.54a41.48,41.48,0,0,0-4.31,6.06c-1.63,3.08-2.86,6.37-4.27,9.56l.82.53,5.5-2.78c2.85-1.47,4.82-3.47,5.4-6.9C357.47,389.32,358.67,387,359.52,384.58ZM402.94,74.5c-.47,4,.73,4.87,5.6,3.27a44,44,0,0,1,6.33-1.08,10.2,10.2,0,0,0,2.1-.57c1.15-.48,2.23-1.13,3.4-1.58,1.35-.52,2.76-.91,4.37-1.42-1-2.14.08-5.43-3.79-4.72-.52,1.44-1,2.78-1.65,4.56l-3.13-2.58-6.09,3.91a15.09,15.09,0,0,1-1.57,1c-.07,0-.68-.7-.61-.83a4.2,4.2,0,0,1,1.29-1.63c2-1.15,4.11-2,6-3.24,5-3.29,8-3.32,12.92.15,2.51-2.91,2.43-4.22-.33-6.7-2-1.75-4.37-2.43-6.64-1.42A53.62,53.62,0,0,0,412,66.85C409.11,68.92,406.52,71.45,402.94,74.5Zm-4-8.33L398.4,66a21.51,21.51,0,0,0-.14-2.67c-1-5.71-6.53-8.48-10.72-5.38-5.33,3.94-5,14.28.59,17.89,2.87,1.86,6.05,1.47,7.71-1.49C397.24,71.8,397.94,68.89,399,66.17Zm-34.5,249.88c-4.2,6.83-6.31,25.67-4.19,37.53,3.32-.06,1.8-3,2.6-4l-2.09-2.37,3.49-1.1a28.93,28.93,0,0,0-1.55-4c-.65-1.18-1.17-1.91.4-2.85a19.18,19.18,0,0,0,3.11-3l-.91-.36-2.13-2.18,3.52-1.06a18.87,18.87,0,0,0-1.36-3.24c-1-1.59-1.31-2.58,1-3.19.85-.22,1.46-1.4,2.39-2.36-2.92-1-3.59-2.2-1.42-4ZM388,86.89c-1,5.4-.67,6.51,3.45,8.16,5.07,2,10.35,3.27,15.91,2,5.1-1.13,5.76-2.06,5-7.54C404,92.41,395.88,92.12,388,86.89Zm16.45-6.36c1.15,1.35,1.78,2.82,2.77,3.12,3.91,1.16,7.91,2,11.92,2.84a3.47,3.47,0,0,0,2.8-.66,6.48,6.48,0,0,0,1.36-3.28c.06-.34-1-1.28-1.54-1.27-3.41,0-6.81.36-10.22.42-1.25,0-3.31-.1-3.59-.76C407.16,79,406.3,79.83,404.48,80.53Zm-11,115.1c9,6.76,32,7.48,39.1,1.39a13.52,13.52,0,0,0-4.06.58c-5.47,1.78-11,2.58-16.72,1.43-4.32-.87-8.63-1.8-12.95-2.64C397.08,196,395.27,195.87,393.48,195.63ZM437,319.85a37.94,37.94,0,0,0,2.61-4.37c.47-1.16,1.07-3.39.74-3.58-1.83-1-4-2.21-5.93-2.1-2.78.17-5.49,1.43-8.47,2.3v3.43l4.61-.72-2-1.17,7.35-.63C436.2,314.84,436.53,317,437,319.85ZM377,216.23l1,.81c4.06-6.15,9.43-10.87,16.73-11.84,7.68-1,13.2,3.38,17.66,10.21-2.32-8.24-13.5-14.23-20.41-11.27a42.47,42.47,0,0,0-9.42,5.6C380.33,211.47,378.8,214,377,216.23Zm34.42,91.55c-1.18,1.41-1,3,1.08,3.87a58.6,58.6,0,0,0,8.53,3.23c3.58,1,3.91.48,3.31-2.74ZM381,338.85c2.16-5.06,4.23-9.89,6.29-14.73l-.77-.68c-1.35.59-3.78,1-3.89,1.79C382,329.65,378.71,333.76,381,338.85Zm59.16-134.56c-6.63,2.28-11.44,8.46-9.62,12.3a16.23,16.23,0,0,1,1.8-3.13c2-2.14,3.86-4.53,6.28-6C440.14,206.55,440.63,206,440.18,204.29Zm-4.14,120c-2.7,3.63-3,8.29-.92,11.25C437.5,332,436.82,328.36,436,324.33Zm-53.59-2.15-.45-1-10-1.5c1.67,3.27,4.87,3.07,7.65,3.57C380.46,323.4,381.5,322.56,382.45,322.18Zm-16.64-9.47c-.95,3,.95,5.81,5.47,6.87Zm-1-287,9.33-1.48C370.81,22.22,368.11,23.28,364.85,25.67Zm66.54,5.73c-2.89-4-4.28-4.18-6-.77ZM372.45,333.32c.28-2.13.55-4.24.93-7.07C369.18,331.65,369.08,332.6,372.45,333.32Zm-3.74,10.84,2.36-5.43C367.28,338.62,367,339.2,368.71,344.16Zm6.94-20.59c.93,1.85,1.65,3.27,2.61,5.15l1.31-4.71Zm1.17,4.83-1.71.38,1,4.19c.42-.17,1.23-.37,1.22-.51C377.26,331.1,377,329.75,376.82,328.4ZM409.68,78.53l-.43,1c.86.4,2,1.33,2.51,1.08.76-.36,1.11-1.6,1.64-2.47l-.77-.62ZM383.16,321.36l.34.89c3.56.91,4.13.59,4-2.4Zm-15.29,24.57a10.36,10.36,0,0,0,2.51.41,43.48,43.48,0,0,0,1.44-4.91ZM349.8,31.49l-6.15,8.81.82.52c1.76-2.62,3.55-5.24,5.27-7.9.17-.27-.1-.83-.17-1.25ZM430,173.79c-.88,2.92-1.76,5.83-2.65,8.75l1.51.29c.38-2.91.75-5.82,1.13-8.74A1,1,0,0,0,430,173.79Zm7.68-73.19c-.49,1.41-.58,3-1.25,4.27-.94,1.82.65,4.31-2,5.91-.68.41.65,4.07.95,6.25.17,1.25.13,2.53.19,3.8l.49,0,2.35-11.88-1.23.42c.7-4.54.8-8.85,4.95-11.62,3.71-2.48,7.32-5.12,10.85-7.85,2.66-2.06,4.82-4.56,5.08-8.25-4.16,6.55-10.05,11.08-16.8,15-.26-1-.46-1.76-.83-3.23C439.33,96.23,438.45,98.4,437.69,100.6Zm-83.37-8.7c-3.47-3.4-7.08-6.94-10.48-10.29C344.23,85.25,350.51,91.56,354.32,91.9ZM354.77,77l6.51,11.23,1.05-.63-6.64-11.21ZM408,109.88c.71-.65,1.37-1,1.64-1.53,1-2,2-3.69,4.78-3.6,1.05,0,2.16-1.52,3.24-2.35C409.16,105.37,409,105.49,408,109.88Zm60.62-45.62-7.52-10-.77.55,7.39,10.1ZM400.3,105.68l-9.71-3.05C393.62,106.21,396.45,107.07,400.3,105.68ZM442.07,103c-.88-4.35,3.37-2.9,4.71-4.95a16.66,16.66,0,0,0-5.73,1.82c-.45.25-.07,2-.07,3Zm-87.3-58.3q-1.45,4.79-2.9,9.58l.88.27,3-9.54Zm113.63,4.2-4.89-7.36-.84.55,4.85,7.36ZM423.64,158.28l-9.23-4.61c-.06,4.62-4.21,3.83-7.25,4.61-3.36.86-6.81,1.41-10.22,2.1l.22.89c6.2-1.39,12.95-.61,18.36-4.72l7.92,2.28Zm-25.59,15c3.37,2.11,9.92,1.76,13.32-.72-11.56.92-14.05,2.19-17.13-10.78C393.45,166.74,395.17,171.45,398.05,173.26Zm8.58,15.84-6.33-13-.56.13c1,3.34,2,6.67,2.91,9.77l-3-1.31-.37.76,7,4.17Zm-28.52-49.88c-2.79,3.56-1.44,12.91,2.57,17.89C379.84,150.78,375.84,145.46,378.11,139.22Zm-7.89,1.26V127C368.16,130,368.19,137.43,370.22,140.48Zm16.09,7.73a12.54,12.54,0,0,0,4.39,10.41Q388.51,153.42,386.31,148.21Zm16-2.86h-10l0,.44h10Zm-26.25,155c.18,1,1.49,1.8,2.27,2.69-3.35-7.16-.75-13.32,2-19.49C376.09,288.53,374.92,294.23,376.05,300.4Zm10.56-25.8c.26-3.48.52-7,.81-10.88C384.34,267.23,385.17,270.87,386.61,274.6Zm45.26-51.48c-.41,2.66-1.2,5.34-1.15,8,.14,8.2.51,16.39,1,24.58.13,2.08,1.18,4.1,1.93,6.56-.51-13.43-1-26.23-1.47-39ZM422.19,265c-1.33-4.41-2.82-8.78-3.92-13.25s-1.83-9-2.72-13.52c-1.3,9.71,3.37,18.12,5.2,27.15Zm9.71,23.22a5.72,5.72,0,0,0-2.26,7.43C430.44,293,431.2,290.54,431.9,288.23ZM387.82,64.43c-.73,2.25-.32,4.52,2,5.58,1.81.81,3.67.51,4.55-2l-2.47-1.73c.45-1.32.88-2.58,1.37-4C390.64,61.48,388.65,61.85,387.82,64.43Z"/>
  <path id="right_ducky" data-name="right ducky" d="M509.34,349.12c-.16.94-.33,1.87-.49,2.81l.56.78c1.14-.73,2.28-1.48,3.44-2.18.6-.36,1.25-.63,1.87-.93l-.06.35-2.27,4-4.5-1.37C508.33,351.51,508.83,350.31,509.34,349.12Zm73.8-239c-1.59-1.76-3.59-1.58-4.52-.21a9.16,9.16,0,0,0-1.38,5.6c.08.87,2.24,2.11,3.5,2.17,2,.1,3.54-1.13,3.59-3.62l-2.22-1.21Zm77.31,219.4c0,.42,0,.84,0,1.26a24.31,24.31,0,0,1-3.91,2.24c-5.65,2-11.37,3.47-17.49,2.35a21.24,21.24,0,0,0-13.63,1.92c-4.75,2.38-9.6,2-14.39-.05-2.91-1.24-4.47-3.39-4-6.57.71-4.5,2.23-8.95,2.36-13.46.3-10.6.47-21.26-.24-31.83-.61-9.16.24-17.6,5.72-25.24a39.26,39.26,0,0,0,3.8-6.86c-3.77.61-7.47.24-10.93,2.6-7.81,5.35-16.81,7.47-26.15,8.15-2.32.17-3.35.91-4.5,3.2a29.18,29.18,0,0,1-7.07,8.57c-2.31,2-3.1,4-2.26,6.71,5.35,17.17,4,34.33,0,51.51-1.33,5.79-2.25,11.67-3.69,17.43A8.12,8.12,0,0,1,561,355.9a12.51,12.51,0,0,1-10.79,1.78c-9-2.6-18-5-26.93-7.62-2-.6-3.3-.45-4.39,1.53-.57,1-1.76,1.72-3,2.88-.49-1.79-.86-3.15-1.24-4.52l.06-.35c-.87-2.19-2.27-2.89-4.39-1.55-.28-.69-.4-1.81-.88-2q-13.56-5.34-27.22-10.45a14.09,14.09,0,0,0-3.22-.25c2.41,4.17,7.26,5.91,7.65,10.89h-3.19c-.17,1.1-.32,2.12-.52,3.52l-5.6-2c.07,1.05.12,1.88.2,3.15-6.27-.51-12.61.1-17.35-4.8a8.64,8.64,0,0,1-2.2-5.26c-.23-6.44-.15-12.89,0-19.33.16-5.83,5.62-9.1,11.32-6.31,7.5,3.69,15.51,4.82,23.58,5.71a23.08,23.08,0,0,0,10.24-.94c10.7-4,20.48-2.38,29.86,3.57,2.38,1.51,4.72,3.09,7.09,4.63l.91-.49c-.87-3.26-1.1-6.9-2.74-9.72-5.23-9-5.81-18.84-5.66-28.85.06-4,.25-7.95.21-11.93a3.59,3.59,0,0,0-1.11-2.69c-5.48-3.24-8.29-8.2-9.18-14.26-1-7.13,1.29-13.51,4.89-19.55a13.61,13.61,0,0,0,1.37-4.09c.47-2.23.52-4.57,1.18-6.73a28.31,28.31,0,0,0-2.76-23.24c-5.79-9.81-8.65-20.62-12.15-31.23-1.27-3.83-.55-7.64,1.24-11.27,2.46-5,2-6.38-3.2-8.22-6-2.1-8.85-6.23-9.47-12.39a12.73,12.73,0,0,0-1.88-5.23c-2.94-4.71-3.95-9.68-4.06-15.27-.08-4,.67-6.7,3.84-8.84a1.11,1.11,0,0,0,.37-.46c2.74-7.6,9.2-11.14,15.85-14.47,2.31-1.16,4.71-2.18,6.9-3.53,1.62-1,2.85-2.66,4.49-3.64a20.93,20.93,0,0,1,5.58-2.3c1.3-.34,2.82.28,4.15,0,5.09-1,8.81,1.19,12.18,4.64,1.31,1.34,1.77,2.5.67,4.15s-1.62,3.29-.5,5.3a3,3,0,0,1-.64,2.74c-1.71,1.64-3.75,2.93-5.55,4.47a4.43,4.43,0,0,1-5.5.62c-2.75-1.57-5.44-3.25-8.82-5.28-1.22,1.76-2.55,3.6-3.8,5.49-2.14,3.25-4.23,6.53-6.55,10.13l3,5.93c4.62-.07,8.44,2.32,11.08,6.81a3.36,3.36,0,0,0,2.77,1.14,54,54,0,0,0,8.76-1.7,8.17,8.17,0,0,0,6-6.84c1.13-7,2.29-13.93,3-20.94,1.22-11.39,8.9-18,20.34-17.11a5.85,5.85,0,0,0,.85-.07c.43-2.27.85-4.51,1.27-6.74l1-.18L581.68,86l5-3.7,1.1.64c-.74,3-1.48,6.06-2.31,9.43.72.74,1.95,1.87,3,3.13a15.16,15.16,0,0,1,3.55,11.65c-.26,3.09,1.21,4.19,3.93,4.14,3.37-.05,6.74-.28,10.12-.38,2.43-.08,5.11-.73,6.59,2.12,1.25,2.41.44,5.28-2.27,7.65-1.26,1.1-2.87,1.8-4.1,2.92a32.42,32.42,0,0,0-3.15,3.82c-4.14-5.23-9.53-.82-13.82-3.34.14,3.56,2.86,5.47,6.56,4.93a6,6,0,0,1,6.15,4.13,3.92,3.92,0,0,1-3.45,5,29,29,0,0,1-10.25.17c-6.22-1.28-5.64-1.12-7.77,5.16a62.55,62.55,0,0,0-1.52,7.22c2.34.33,4.85.88,7.38,1,7.62.34,12.64,4.75,16.73,10.56a9.18,9.18,0,0,1,1.27,3.87c.37,2.58,1.93,4.28,4.3,4.1,7.41-.55,12.2,3.27,17,9.11,1.72-5.69,3.75-11.31,5-17.1,1-4.44,1.11-9.07,1.5-13.63.29-3.45-.4-4.36-3.8-4.62-4.91-.37-7.19-3.83-9.14-7.59a3,3,0,0,1,.65-2.85c1.6-1.23,1.18-2.56,1.19-4.18a6.3,6.3,0,0,1,1.91-4.47c4.3-3.31,4.41-3.17,9.47-2.85a3.13,3.13,0,0,1,1.43.37c5,3,12.22,11.09,10.47,18.32-.46,1.9.49,4.1.44,6.16-.11,4.86-.69,9.73-.59,14.59a130.39,130.39,0,0,0,1.2,17.12c1,6.84-1.11,12.71-4.18,18.49-.69,1.3-1.42,2.59-2,3.94-1.2,2.71-3.37,3.78-6,2.3-3.94-2.17-8.12-2.5-12.41-2.39-9.81.25-16.9-4.26-22.75-11.88-2-2.63-5.69-4-8.7-5.85-.36-.21-1.32.55-2,.89-3.26,1.62-6.55,3.18-9.75,4.93a5.28,5.28,0,0,0-2.15,2.38,92,92,0,0,0-4,10.54c-.54,1.87-.18,4-.1,6,.09,2.35.32,4.69.51,7,.08,1,.24,1.94.33,2.91.27,3,.53,6.07.79,9.1.09,1.14.17,2.29.28,3.85,2-1,3.52-1.86,5.12-2.55a65.92,65.92,0,0,1,44.29-3.13c4.75,1.28,9.69,1.85,14.53,2.82a29.67,29.67,0,0,1,5.46,1.45c6.11,2.51,8.2,7.43,6.46,13.8-2.88,10.51-5.55,21.09-8.31,31.64-.07.29-.25.69-.14.86,2.28,3.46-1,5.83-1.62,8.72-.27,1.28-.75,2.88-.25,3.9,1.53,3.1.22,6.19.37,9.26,0,.7-.8,1.46-1.23,2.19-.33-.38-.67-.75-1-1.12l-3.31-.28-.84-.88c-1.31,5.83-2.66,11.65-3.92,17.49-.39,1.85.5,2.8,2.43,2.77q9.38-.14,18.76-.24c1.42,0,2.84,0,4.26,0l.27.84-2.57,2.69,5.7,1.65,0,1-5.71,2.95Zm-145.87,6.38-.08.05c-.14-5.58-.28-11.16-.43-17.22-3.09.62-5.81.67-8.07,1.72-5.66,2.62-11.5,2.28-17.25,1.31-6.89-1.16-13.8-2.27-20.3-5.46-4-2-9.71-.59-9.1,6.38.26,3.06.44,6.14.43,9.21,0,2.67-.33,5.35-.5,8-.18,2.87,1.19,4.79,3.48,6.46,3.91,2.86,8.43,2.35,13.45,3L473,345l8.54,2.62c.19-.24.37-.49.55-.73l-4.45-5.56,6.65,3.71.62-.8-8.2-8.88h-2.93c6.54-3.1,11.93,0,16.49.74l3.34-2.2c.24,1.1.47,2.2.87,4.05l9.23,4a27.48,27.48,0,0,1,2.18-2.4c.13-.11,1.16.41,1.15.62a22.44,22.44,0,0,1-.5,3.16c1.31.55,2.89,1.1,4.37,1.83,2.41,1.18,3,.82,3.09-1.94C514.08,340.77,514.36,338.36,514.58,335.93Zm4.84,12.22c-1.29-4.46-2.5-8.65-3.73-12.93l-1.1.71c.07,2.34.11,4.68.26,7a3.57,3.57,0,0,0,.69,2.13A40.69,40.69,0,0,0,519.42,348.15ZM529,323.09c-5.11-3.14-5.54-3.22-8.13-1.68-.18-.59-.27-1.63-.56-1.69-1.68-.35-3.41-.47-5.7-.74.32,3.5.6,6.48.88,9.46h.64l1.92-2.92c-3.55,9,.27,21.57,6.55,23.24-.35-4.31-1-8.79-1-13.27A16,16,0,0,1,529,323.09Zm57.24-195.62c-1,2-2.12,4.2-3,6.47-.25.6.22,1.49.36,2.25.5-.5,1.19-.92,1.48-1.53.85-1.82,1.55-3.7,2.3-5.56,0,2-.74,3.58-1.16,5.28-.17.68.17,2.05.61,2.22,3.94,1.44,8,2.58,12,.39,1-.54,2.19-2,2.08-2.84-.13-1.1-1.39-2.2-2.41-3a9,9,0,0,0-2.8-.86Zm-.08-4.79c4.34.36,7.89.61,11.43,1,4.42.44,8.52-.08,11.89-3.38,1.89-1.84,3.45-3.91,2.13-6.54-1.23-2.44-3.75-1.62-5.89-1.5-4.59.28-9.2,1-13.72-.69a2.11,2.11,0,0,0-1.8,1C588.72,115.83,587.46,119.23,586.11,122.68ZM572,112.94c0,4.89,3.11,8.21,7.76,8.31,3.82.07,7-3.55,7.06-8,.06-5-3.45-9.14-7.76-9.13S572,107.73,572,112.94Zm-21.28,20.17.91-.86c.66,1.11,1.11,2.48,2,3.28a46.4,46.4,0,0,0,5.78,4c2.21,1.37,5,2.15,6.66,4,3.22,3.55,7.21,5,11.94,6,.55-2,1.06-3.8,1.62-5.79-11.82-1-19.73-7.77-26.43-16C552.42,129.45,551.57,131.28,550.72,133.11Zm14.55,132.94c-1.33-2.24-5.24-3.91-10.77-3.54-9,.61-17.81,2-24.5,8.76C541.16,264.42,552.76,261.51,565.27,266.05Zm6.11-21.51c-.38,6.1-4.67,6.38-8.81,6.08-7-.49-14-1.15-20.92-2.28-5-.82-9.81-2.61-13-7.63-1.11,1.82-2.67,3.22-.56,4.93,5.52,4.48,11.26,8.45,18.95,7.54a21.17,21.17,0,0,1,2.37.13c6.33,0,12.69.29,19-.25C573.11,252.66,574.28,249.13,571.38,244.54Zm1.83-8.73c4.08,7.72,4.94,15.93,3.67,24.47C580,251.47,578.3,243.38,573.21,235.81Zm65.29,53h-1.09c-.4,3.23,1.21,6.58-.3,9.75.54-.19,1.31-.38,1.32-.59C638.53,294.94,638.5,291.88,638.5,288.83Zm20.11,41.58c-.06-.36-.11-.72-.17-1.08l-11.15-.94,8.31-4.8c0-.17-.05-.35-.07-.52h-10l6.93-4.09H628.13c-.77-6,.61-11.39,2.38-16.82,1.47-4.49,2.6-9.08,3.88-13.63l-.93.13L631,286.39l2.88-2c.37-2.17-.68-3.45-3.67-3.32-.87,0-1.8-1-2.69-1.5l10.26,1.15c.28-1.09.5-2,.94-3.7-4.7.39-8.86.73-13,1.13-.14,0-.23.63-.34,1-2.54-.62-5.1-1.2-7.62-1.9a11.15,11.15,0,0,1-2.22-1.2l3.83-.21c4.39,2,8.85,1.88,13.5.67l-1.51-2.12c5.37,2.92,9.61.74,9.3-4.48-9.56,1.39-18.47.16-26.21-6.36-2,2-2.45,4.11-.59,6.49L611.61,269c-.17,2.25-2.46,4.1,0,6.06-.49.82-1.37,1.62-1.4,2.46-.08,2.47.25,4.95.3,7.43.18,10.21.63,20.44.36,30.64-.13,5-1.62,9.95-2.49,14.92-.52,3,.9,4.72,3.53,5.77a15.87,15.87,0,0,0,13.29-.17,21.3,21.3,0,0,1,13.62-1.83c6.25,1.17,12.24-.33,18-2.6A8.63,8.63,0,0,0,658.61,330.41Z"/>
  <path id="left_ducky" data-name="left ducky" d="M263.89,83.73c-.29-2-.82-3.34-.56-4.55a3.11,3.11,0,0,1,2.42-1.61c.64,0,1.74,1.06,1.93,1.83a17,17,0,0,1,.67,5.81c-.1,1-1.35,2.15-2.37,2.68-.57.3-2.44-.47-2.48-.88A11.18,11.18,0,0,1,263.89,83.73Zm33.53,150c-3.75,4.82-9.38,5.3-14.3,7.37-2.45,1-4.5,1.92-6,4.29-7.22,11.16-15.46,21.46-26.17,29.53-1.7,1.29-2,2.82-.66,4.34,1.74,2,3.78,3.77,5.62,5.71,3.62,3.81,7.34,7.55,10.76,11.54,2.84,3.31,3.88,7.42,4.76,11.69,1.4,6.8,3.48,13.45,5.15,20.19.88,3.57,1.39,7.22,2.23,10.79a11.26,11.26,0,0,0,4.52,7c5,3.54,5.07,5.21,1.82,10.53a3.71,3.71,0,0,0-.45,2.22c.4,3.17-1.09,4.85-4.11,4.85-3.95,0-5.14,2.41-5.84,5.68-1,4.81-2.43,6.41-7.33,6.7-7.92.46-15.88.39-23.83.46a15,15,0,0,1-3.39-.95l3.09-2.88-5.19-2.28,5.87-3.87c-.33-.55-.69-1.17-1.2-2l3.76-1.16-6.18-2.73,0-1,9.58-3-5.09-2.21c0-.33,0-.67.08-1l6.87-2.37c-.19-.59-.38-1.18-.72-2.26l13-.78-18.85-19.62c.14,2.09.24,3.64.34,5.19l-.44.08c-.34-1.54-.67-3.09-1-4.69l-.21.77a16.37,16.37,0,0,1-1.71-1.26c-.67-.62-1.76-1.33-1.77-2-.06-3.71-2.63-5.53-5.16-7.45-1.8-1.37-3.6-2.76-5.73-4.4.93,3,2.16,5.56,2.42,8.22.22,2.25,1.82,5.47-2.2,6.64v5.36l-.36,0c-.25-1.61-.5-3.22-.79-5.06-3.27,1.11-4.17-1.16-4.15-3.33a97.67,97.67,0,0,1,1-12,4.52,4.52,0,0,0-.92-4c-.79-1-.15-3.16-.15-4.8h.78c-4.57-6.61-9.1-13.23-13.72-19.8a16.79,16.79,0,0,0-2.63-2.4c-4.28-3.92-4.62-7.67-1.92-12.78,2.2-4.18,3.68-8.74,5.69-13,1.79-3.83,3.45-7.83,5.92-11.21,5.51-7.51,11.43-14.73,17.32-22,3.09-3.8,6.46-7.38,9.73-11,1.53-1.72,2.1-7.13.93-9.12-.61-1-1.15-2.08-1.86-3.39-1.39,1.09-3.92,1.16-2.58,4.09a1.76,1.76,0,0,1-.45,1.57c-2.58,2.14-5.05,4.5-7.93,6.14a4.56,4.56,0,0,1-6.36-1.37,4.64,4.64,0,0,0-3.06-1.24c-3-.32-4.37-1.87-4.22-4.86a5.76,5.76,0,0,0-1.05-2.66c-.46-.83-1.65-1.62-1.57-2.32.21-2,.45-3.79-1.36-5.17.76-1,1.34-2.39,2.31-2.74,1.43-.51,3.17,0,4.71-.33,2.12-.42,4.41-.86,4.53-3.79.12-3.17-1.09-4.84-4.09-5.6a18.82,18.82,0,0,1-9.77-5.94c-1-1.17-2.59-1.93-3.38-3.21s-1.8-3.29-1.48-4.7c.78-3.49.31-6.72-.1-10.2-.86-7.36-.29-14.57,4.81-20.86,2.57-3.17,4.08-6.88,2.48-11.57-2.26-6.65,1.41-12.09,5.15-17.24a26.64,26.64,0,0,1,2.58-2.68,15,15,0,0,0-1.07-2.39c-3.4-5-1.86-10.35,3.62-12.69,2.15-.92,4.2-2.1,6.37-3.21a16.85,16.85,0,0,1-3.77-6.83h0c4.51-.61,2.27,3,3.81,4.59a.1.1,0,0,1,0,.05,2.08,2.08,0,0,0,.34.24l.08.06a2.71,2.71,0,0,0,.57.22V70.29c-1.36,1.3-3.3,3.3-2.91,4.62.08.3.16.59.21.86.39,1.94,0,3.44-2.16,5.36h0c-1.11-4.58.66-8.93,5.2-12.51a5.1,5.1,0,0,0,1.33-1.88c1.93-4.16,4.5-7.67,8.8-9.74.64-.31,1-1.67,1.11-2.58.44-3.36.74-6.73,1.13-10.46,4,1.46,4.59,4.42,5.61,7.24L256.55,49l.72.4c-.55,1.88-1.09,3.76-1.7,5.85a8.53,8.53,0,0,0,1.31.63c5.94,2,9.3,6.11,10.69,12.12a11.06,11.06,0,0,0,2,4.09c3.86,5.07,5,10.5,2.45,16.48a8,8,0,0,1-1.86,2.65c-3.64,3.38-3.7,7.48.05,10.68,1.81,1.54,3.92,2.74,5.7,4.31s4.14,3.23,5,5.34c1.22,3,3.35,4.59,5.7,6.44,8.26,6.5,9.88,15.43,8.4,25.21a4.36,4.36,0,0,0,1.12,4.23,11.94,11.94,0,0,1,3.07,9.37c-.62,9.78-1.39,19.55-2,29.32-.17,2.55-1.27,4.09-3.81,4.57-1.15.22-2.3.5-3.44.75-.94,4.27,1.78,7.11,4.35,9.3C304.89,209.75,306.09,222.58,297.42,233.71ZM258.18,82.62c.21,1,.52,2.76.94,4.48.55,2.28,1.32,4.41,4.13,4.78a7.32,7.32,0,0,0,7.58-3.58,13.44,13.44,0,0,0-2.73-16,3.88,3.88,0,0,0-5.6-.12C259.41,74.65,258.41,78.07,258.18,82.62Zm-3.21,4L258.15,88,257,83.24C256.25,84.51,255.75,85.31,255,86.58ZM234.21,104.4c3.93.62,6.75-1,9.35-3.9s5.17-5.7,9.51-5.79c1.71,0,3.2-3.53,1.94-4.56A92.15,92.15,0,0,0,246.38,84c-.67-.44-1.81-.16-3.31-.23.86.73,1.2,1,1.46,1.22-2.53.46-5.1.44-7.22,1.42-4.3,2-8.37,4.46-12.49,6.79-2.82,1.6-2.69,4.45-2.7,7.1,0,2.45,2.18,2.56,3.86,2.88C228.7,103.72,231.47,104,234.21,104.4Zm-2.11,56.26c-2.5,5-2.5,5,1.36,9.55C233.84,162.46,233.84,162.46,232.1,160.66Zm3-49.07c4.2.33,7.73-1.33,10.89-4,1.29-1.08,2.71-2,3.91-3.16s2.24-2.58,3.35-3.89l.6,1,.76-.52-2.11-3L249.16,101l-3.08-1.8c-.46.87-.87,1.67-1.28,2.46l3.56,1.07c-3.18,2-5.92,5-9,5.38s-6.26-1.76-9.47-2.81C229.67,109.13,231.48,111.31,235.11,111.59Zm28.49,2c4.21-1.81,4.34-2,3-7-1,.41-1.88.65-2.65,1-4.86,2.51-10.13,3.17-15.49,3.56-4.1.29-8.19.88-12.88,1.4.79,1,.92,1.26,1.14,1.36a16.5,16.5,0,0,0,2.21.85A35,35,0,0,0,263.6,113.62ZM244.47,216.05q1.56,3,3.33,5.86a1.36,1.36,0,0,0,1.25-.08,1.8,1.8,0,0,0,.29-1.52c-1.11-1.91-2.35-3.74-3.78-5.94C244.93,215.32,244.37,215.86,244.47,216.05Zm-18.18,80.69c1.4.78,3.13,2.53,4.19,2.19,5.32-1.74,9.38-5.27,12.44-10.41l-3.65-1.63Zm.91,3.06c-1.19-3.37-3.27-4.41-6.43-3.23C222.15,300.13,223.08,300.6,227.2,299.8Zm-1,18.11h-.76V328h.76Zm2.53-2.7-1.14.28,2.54,11.74,1.55-.38Q230.18,321,228.7,315.21Zm17.89,6.73c-.62-.79-1.06-1.41-1.56-2-4.91-5.61-9.83-11.19-14.73-16.8-2.21-2.55-2.74-2.7-6.54-1.3l3.46,3.21L225.06,308c1.41,0,3.48-.54,4,.12.81,1.06.59,2.91.79,4.36l5.21-.33v4.8c2,.13,4.41-.41,5.53.55s.72,3.35,1,5.37Zm5.08,5.16c-1.25-1.31-2.16-2.25-3.43-3.59V328ZM258.56,339a25.29,25.29,0,0,0-2.08-3.54c-.37-.46-1.35-.44-2.05-.63l-.48.79,3.63,4Zm2.62,23.62c1.12,0,2.91-1.61,3.31-2.83a33.7,33.7,0,0,0,1.18-7.86c.06-.69-.7-2.06-1.14-2.08-3.41-.18-6.83-.1-10.25-.1l-.06,1,9.49,1.13c-5.43.6-11.11-.66-16.23,2.09l-.09,1,14.7,1.64-19.19,2.91c0,.29,0,.58,0,.87a5.66,5.66,0,0,0,1.76.87C250.17,361.86,255.67,362.49,261.18,362.64Zm21.75-4.12-5.1,4C282.79,362.93,283.92,362,282.93,358.52ZM272.8,338.77a14.62,14.62,0,0,1-5.71-8c-1.73-5.47-3-11.06-4.6-16.58-1.11-4-1.39-4.06-5.3-3.3a25,25,0,0,1-3.55.44c-3.94.19-7.85-1.57-9.77-4.56,1.47.82,2.64,1.53,3.87,2.15a12.87,12.87,0,0,0,9.53,1c2.3-.64,3.29-2.06,2.39-4.19-3.13-7.46-8.06-13.27-14.78-16.2l-14.37,11.81a14.45,14.45,0,0,0,1.21,1.66c4.86,5.52,9.76,11,14.63,16.51q6.12,6.9,12.17,13.8l-4.4-3.36v4.27l4.38-.92c2.38.79,1.9,2.51,1.12,4.06-1.16,2.3-.84,4.08,1.24,5.63a23.22,23.22,0,0,1,2.11,2.1c4.45,4.28,5.63,9.95,2.85,15.43-1.32,2.61-3.22,4.77-6.76,4.29a48.27,48.27,0,0,0-7.1-.44c-2.13,0-4.25.4-6.37.62,0,.37.06.74.1,1.11l8-.69c-4.52.91-8.89,1.8-13.2,5.39,9.36,1.17,17.42.17,24.65-5.19a14.49,14.49,0,0,1-10.48,5.71,39.81,39.81,0,0,0-7,1.24,27,27,0,0,0-4.43,2.08,222.51,222.51,0,0,0,23.57.47c4.51-.17,5.69-1.67,6.75-6.1a16.76,16.76,0,0,1,7.29-10.5,18.78,18.78,0,0,0,3.83-3.28c2.3-2.63,2.09-4.66-.5-6.91C280.37,345.12,276.84,341.57,272.8,338.77ZM250.14,291a33.52,33.52,0,0,1,12.14,19.29c.88,4.05,2.34,8,3.12,12,1.57,8.2,6.17,14.32,12.93,20.07-2.67-11.54-5.17-22.31-7.64-33l-3.14.55c2.62-1.49,2.31-3.76,1.58-5.83-2.65-7.55-8.19-12.89-13.77-18Zm-4.17-3.1c1.71.58,3.22,1.65,4,1.26a9.75,9.75,0,0,0,3.68-3.62c.24-.39-1.24-1.84-2-2.92Zm5-69.4q-1.19-2.79-2.35-5.58l-1.22.28c-1,2.65,1.72,3.8,2.54,5.72Zm8.65-3-7.73,3.2s.06.7.12,1.44A9.08,9.08,0,0,0,259.59,215.51Zm25.07-12.64c2.43-.7,4.76-1.75,7.1-2.62-1.19-3.93-2.33-4.45-5.43-2.92a10.82,10.82,0,0,1-2.76.93c-9.17,1.67-17.52,4.86-24.05,11.93-2.39,2.58-6.29,3.19-8,1.47-1.15-1.13-1.8-2.79-2.67-4.21l-1.05.1c.24,1.41.16,3,.82,4.19a26.7,26.7,0,0,0,3.58,4.35c1.2,1.38,2.52,1.37,3.9.25C264.48,209.49,274.39,205.82,284.66,202.87Zm14.86,24.18c4.33-11.48,2.78-18.1-5.21-24.5a4.46,4.46,0,0,0-3.38-.87c-3.54.92-7,2.11-10.45,3.36-4.86,1.76-9.67,3.67-14.5,5.52a2.76,2.76,0,0,0,1.56,1.21c5.94,2.36,11.64,5.13,16.28,9.68l0,0,.12.1-3.34-1.8c-4.16-2.26-8.28-4.6-12.5-6.76a4.31,4.31,0,0,0-5.49,1.13c1.65.48,3.4.66,4.78,1.46,5.56,3.21,11.29,6.25,16.41,10.08,3.12,2.33,5.24,6,7.83,9.07a24.65,24.65,0,0,0,1.81,1.73c.38-.89,1.2-1.87,1-2.67a18.4,18.4,0,0,0-1.71-4h0l.09.11s0,0,0-.08l3.68,2.91A42.39,42.39,0,0,0,299.52,227.05Z"/>
</svg>
