<svg id="full" xmlns="http://www.w3.org/2000/svg" width="90.44" height="151.81" viewBox="0 0 90.44 151.81">
  <defs>
    <style>
      .cls-1 {
        fill: #d5424d;
      }

      .cls-2 {
        fill: #da5862;
      }

      .cls-3 {
        fill: #df6e77;
      }

      .cls-4 {
        fill: #fff;
      }

      .cls-5 {
        fill: #f2c4c8;
      }

      .cls-6 {
        fill: #8719ce;
      }

      .cls-10, .cls-7, .cls-8, .cls-9 {
        isolation: isolate;
      }

      .cls-10, .cls-8, .cls-9 {
        font-size: 3.44px;
        font-family: Midnight-Coffee-Light, Midnight Coffee Light;
        font-weight: 300;
      }

      .cls-9 {
        letter-spacing: -0.05em;
      }

      .cls-10 {
        letter-spacing: -0.21em;
      }

      .cls-11 {
        fill: #f3aeac;
      }
    </style>
  </defs>
  <title>marketplace3</title>
  <g id="mouth">
    <path id="inside" class="cls-1" d="M17.7,103.66a34.69,34.69,0,0,0-1,3.93c-.29,1.37-.81,2.81-1,4.06-.06.42,0,.86-.07,1.29a44.5,44.5,0,0,0-.71,9.79,30.61,30.61,0,0,0,.91,5.22,22,22,0,0,0,1.41,4.7A12.7,12.7,0,0,0,22.86,137a80.75,80.75,0,0,0,7.92,2.39c1.34.41,2.53,1.07,3.8,1.35,6.28,1.4,12.91-.1,16.78-3.46-.34.29-.7.57-1.07.83.78-.63,1.52-1.33,2.25-2l-.18.21a21.85,21.85,0,0,0,1.81-2.26c.73-1.06,1.54-2.09,2.25-3.16,1.46-2.2,2.69-4.67,3.93-7s2.49-4.78,3.74-7.15c.62-1.19,1.33-2.3,1.93-3.48-.1.2-.21.4-.32.6.49-1.21,1-2.43,1.51-3.63.31-.72.62-1.45.92-2.18-.23.66-.47,1.33-.72,2,.59-1.56,1.12-3.17,1.64-4.64s.85-2.76,1.29-4.19c.81-2.68,1.31-5.61,2.06-8.7.33-1.37.71-2.84,1-4.38s.83-3,1-4.44.52-3,.58-4.58c.1-2.67.27-5-1-6.18-3.26-1.79-8.95-.94-12,.51-3.52,2.48-7.19,4.38-9.92,7.41L52,81a37.15,37.15,0,0,1,8.37-5.5,35.5,35.5,0,0,1,7.27-2.7c1.47-.36,4-.88,5.41.1a5.31,5.31,0,0,1,.75,2.66,32.94,32.94,0,0,1-.73,7.34c-.85,4.92-2.31,9.71-3.57,14.52-.63,2.38-1.13,4.78-1.93,7.11s-1.91,4.76-2.92,7.12-1.9,4.7-3,7c-.69,1.45-1.75,2.66-2.39,4.11a.79.79,0,0,0-.3.36c-.82,1.91-1.41,3.9-2.34,5.77a16.14,16.14,0,0,1-3.76,4.47,44.56,44.56,0,0,1-4.54,3.93,14.26,14.26,0,0,1-5.71,2.08c-4.32.76-8.58-.38-12.7-1.56a38.79,38.79,0,0,1-6.64-2,12.25,12.25,0,0,1-2.52-1.76c-.55-.46-1.62-1.08-1.93-1.72a.77.77,0,0,0-.55-.45,16.46,16.46,0,0,1-1.86-7.17,42.51,42.51,0,0,1,.5-9.95,76,76,0,0,1,2.55-10.62,82.38,82.38,0,0,1,4.33-10.25c1.31-2.79,2.49-5.65,4-8.35a17.55,17.55,0,0,1,2.63-3.69,8.28,8.28,0,0,1,.82-.75c.14,0,1.9-1.26,2.66-1.75l.42-.25c.53-.31,1.07-.6,1.61-.85.16-.07.31-.14.48-.2a19.36,19.36,0,0,1,3.63-.94,8.12,8.12,0,0,1,4.22.89c2.47,1.24,3,4,2.31,6.5-.16.26-1.15,2.24-1.44,2.64-3.36,4.53-6.66,14.7-8.6,20-.31.82,1.83-2.86,2.49-3.8,0-.09.07-.17.1-.25.83-2,1.66-3.91,2.53-5.82a.61.61,0,0,0,0,.12,48.49,48.49,0,0,1,3.48-7c.8-1.42,1.64-2.79,2.55-4.1A44,44,0,0,1,52,80.47c.66-.67,1.37-1.26,2-1.86.2-.19.57-.47.45-.58a21,21,0,0,0-12.22-3l.47,0-.45,0-.41,0h-.07a16,16,0,0,0-2.46.4,18.73,18.73,0,0,0-6.89,3,20.2,20.2,0,0,0-2.64,2.32,26.43,26.43,0,0,0-2.13,2.9,82.14,82.14,0,0,0-7.28,12.63C19.34,98.67,18.57,101.16,17.7,103.66Zm26.66,44.86c-2.91-.54-5.85-.73-8.74-1.38a42.32,42.32,0,0,1-9.84-3.41,37.21,37.21,0,0,1-12-9.61l-.15-.17-.14-.19c-.22-.3-.43-.6-.65-.89-.42-.6-.83-1.22-1.22-1.84a42.15,42.15,0,0,1-2.32-4.22L9,126s-.28-.66-.29-.7c-.28-.71-.54-1.42-.78-2.15a41.21,41.21,0,0,1-1.29-4.91c-1.53-7.42-.36-14.74,1.32-22.1A2.68,2.68,0,0,0,8,95.9H8l.27-1.19c-.06,2.27-.64,14.84-.34,18,.27,2.86.09,5.32.86,8.08.35,1.85,1.16,4.24,1.61,6s2.5,4.46,4.2,6.35c3.68,4.74,9.46,7.49,15.4,8.66,14,2.79,18.33.73,21.55-.79,3.05-1.43,12.14-11.57,14.14-14.85,3-4.83,4.88-12.33,5.91-14.23,1.9-3.5,5.49-17.84,6.08-21.72a100.48,100.48,0,0,0,1.27-12.1,260.2,260.2,0,0,0-3.53-41h0c-1.51-8.26-3.62-15.85-6.59-20.62a0,0,0,0,0,0,0L68.5,16c-8.17-12.33-26.77-4.44-30.68-4.34-5.27.14-10.75.93-15.52,3.27a25,25,0,0,0-11,11.33c-2,4-2.54,8.41-3.05,12.81a80.36,80.36,0,0,1-1-9,32.85,32.85,0,0,1,1.11-4.5,35.32,35.32,0,0,1,4.12-8.35c.27-.41.54-.81.82-1.21,0,0,.43-.56.46-.62a17.59,17.59,0,0,1,1.4-1.46c.27-.26.56-.49.84-.73l.1-.09a2,2,0,0,0,.27-.19c.6-.43,1.23-.82,1.86-1.19A76,76,0,0,1,25.89,8l.11,0c1.44-.06,2.87-.13,4.31-.32,6.55-.86,12.55-3.46,18.86-5.3,1.34-.39,2.68-.79,4-1.16-1.2,0-2.42.09-3.61.23a28.31,28.31,0,0,0-3.8.9C43,3,36.29,5.84,35.8,6c-1.56.49-5.59,1.67-6,1.54.77-.38,4.15-1.66,5-2.12a14.89,14.89,0,0,0-5.8-.33A28.73,28.73,0,0,0,23,5.87,22.13,22.13,0,0,0,18,7.8a27,27,0,0,0-4.32,2.64c-.37.33-.68.83-1.09,1.29a20.84,20.84,0,0,0-2.13,2.64,32.71,32.71,0,0,0-2.06,5c-.15.56-.31,1.12-.45,1.67-1.15,4.3-1.32,10.09-1.16,14.56,0,1.25.4,2.45.51,3.74.28,3.31,1,9.68,1,9.92.18,1.51.44,3.1.71,4.77s.7,3.42.84,5.22c.21,2.68.52,5.43.84,8a20.55,20.55,0,0,1,.26,2.77c0,1.1-.38,2.27-.39,3.41A59.35,59.35,0,0,1,9.52,84c-.41,2.17-1,4.28-1.55,6.37-.26,1.09-3.6,10.89-4.64,15.14-.24,1-1.89,7.39-2.19,9.6a22.9,22.9,0,0,0,.07,7c.85,4.7,2,8.41,4.31,11.41,2.72,3.57,6.77,6.58,10.57,9.21.78.54,5.77,3.47,7.6,4.32,2.62,1.21,11.64,3,12.69,3.09.84.1,1.73.12,2.58.19,1.77.15,7-.06,8-.13a65.24,65.24,0,0,0,7.54-1.09l1.48-.29-.46.09C51.91,149.45,45,148.47,44.36,148.52ZM9.52,90.26c.24-1.21.8-2.52,1.16-3.73.67-2.25,1.2-4.21,2.58-5.42a33,33,0,0,0-3,8.77,47.16,47.16,0,0,0-1.29,9c-.09,3.36.4,6.86.39,10.06.6-2,.47-4.14.71-6.19.69-6.16,2.29-12.07,4.83-16.43,0,.33-.28.81-.52,1.42a60.46,60.46,0,0,0-2.9,10.89,20.09,20.09,0,0,0-.71,5.86c.56-.58,0-1.37.13-2.06.16-1.24,1.41-2.27,1.61-3.55.16-1-.22-1.92.07-2.83.19-.63.64-1.23.84-1.85l-.06.17c.06-.4.15-.9.26-1.46a3.54,3.54,0,0,1,.17-.86C15,86,18,74.12,18.5,72.22c-.7,2.08-5.16,14.38-6,13.88S15.4,76,15,77c-.76,1.77-1.92,2.68-3.79,3.91a72.48,72.48,0,0,0,1-9.69c0-1.59,0-3.18,0-4.76.06-5.55-.81-11.12-.7-16.69a43.54,43.54,0,0,1,1-8.29A32,32,0,0,0,16.14,50a17.2,17.2,0,0,0,4,4.91,2.29,2.29,0,0,0,3.21,0A3.59,3.59,0,0,0,24,52.83a1.7,1.7,0,0,0,0-.39,4.55,4.55,0,0,1,.75.78,2.54,2.54,0,0,1,0-.39c.29,2.47,3.35,6,1.48,8.38a2.87,2.87,0,0,1-1.22.9h0c-.09.19-.18.39-.26.6-.66,1.83.64,3.87,2.15,4.76.56.33,3,1.54,3.67,2a10.69,10.69,0,0,0,4.86,1.78h.05c-1,.87-5.4,4.75-5.63,5s1.86-1.23,2-1a17.76,17.76,0,0,0-2.63,2.13c-.54.54-2.95,3-2.29,2.54a49.08,49.08,0,0,1,7.66-3.53,21.41,21.41,0,0,1,11.51-2,18.85,18.85,0,0,1,3.74.84,21.17,21.17,0,0,0,3.29,1.22c2.77.41,4.33-1.29,5.92-2.25,1.08-.65,4.14-2.15,4.83-2.42s1.48-.5,2-.74,1.13-.43,1.68-.64A11.72,11.72,0,0,1,73,69.19c-3.2.2-4.92,1-4.45,1.23a15,15,0,0,0,2.13,0,31.4,31.4,0,0,1-3.09.77,30.34,30.34,0,0,1,4.06.19c.41.08,1,.24,1.61.39a7.57,7.57,0,0,0,1.54.45c1.12-.16,1.14-3,1.23-4.38.07-1.14.43-3.27-.52-3.48-.51-.11-1.44.55-1.93.77a9.43,9.43,0,0,1-1.94.71c-1.52.27-3.05-.06-4.5.26-3,.66-5.1,2.69-7.09,4.44a17.94,17.94,0,0,1-3.16,2.52c-.61.22-1.1.47-1.67.64-1,.31-2.4.71-3.22-.13a5.14,5.14,0,0,1-1-2.64c0-.66.44-1.42.32-2.06-.2-1-1.31-1.43-2.52-1.42-2.38,0-4.55,1-7.27.77-3.21-.31-5.65-1.4-6.77-4a2.67,2.67,0,0,1-.39-1A12.89,12.89,0,0,0,35.68,65a5.25,5.25,0,0,0,1,1.16,11.25,11.25,0,0,0,7,1.68c1-.08,2.15-.36,3.22-.52,1.51-.22,3-.66,4.06.26.49-.35.66-1,1.42-1.1-.67.33-1.12,1-.71,1.16s.7-.35,1.09-.58a4.54,4.54,0,0,1,2.52-.9c-1.67.74-3.8,2.38-3.68,5.16a2.54,2.54,0,0,0,1.23,2.19c2.35.2,3.69-1,5-1.94,1-.76,4.15-3.86,5.22-4.64a10.87,10.87,0,0,1,4.71-1.73c.86-.11,1.66,0,2.44,0a8.32,8.32,0,0,0,4.38-1.61,4.64,4.64,0,0,0,1.61-2.26,13,13,0,0,0-.32-2.83c-.1-.94-.12-1.9-.26-2.71-.57-3.55-1.16-7-1.8-10.18-.17-.84-.35-1.67-.58-2.51A63.22,63.22,0,0,1,71.43,35c-.13-1-.31-2-.51-2.9a41.12,41.12,0,0,0-1.49-5.6c-.47-.1-.92.2-1.41.19-.84,0-1.78-.53-2.84-.58a11.62,11.62,0,0,1-2.9-.26c-.38-.13-.65-.45-1-.51a8.32,8.32,0,0,0-1.48.19,32.82,32.82,0,0,1-3.67-.06,19.06,19.06,0,0,0-3.41-.13,33.89,33.89,0,0,0-3.29,1c-.57.15-1.13.29-1.68.45a23.11,23.11,0,0,1-3.8,1,11.19,11.19,0,0,1-3.22-.06c-1.37-.23-2.54-1-3.93-.84a15.2,15.2,0,0,0-2.9,1,25.91,25.91,0,0,1-2.83.84,27,27,0,0,1-4.71.71c-.57,0-1.2,0-1.8.06-1.58.18-2.63,1.24-3.8,2a6,6,0,0,1-1.1,2.89,15.79,15.79,0,0,1,.65,3c0,1.09-.52,2.08-.32,3.48.24,1.8,1.39,3.58,1,5.48a7.37,7.37,0,0,1,.83,2.38c.41,1.41,1.55,2.8.65,4.13-1.76.4-3.89.26-4.64-1.23-.22-.43-.4-1.11-.65-1.74-.41-1-1-1.77-.9-3a11.72,11.72,0,0,1-1.67-5c-1.89-1.06-1.52-4.53-1.36-7.15C12.08,37.49,11.36,46.44,11,47.09c-.42-.16.06-5.52.39-7.66,0-.36.61-2.77.83-3.68.61-2.45,1-5.25,1.48-7.66-1,.8-1.38,2.24-1.93,3.8-.26.75-.9,3.89-1,4.64S9.91,40,9.65,41.81c-.26-2.48,1-9.29,1.16-10a17.66,17.66,0,0,1,1.35-3.35,26.44,26.44,0,0,1,4.64-7,13,13,0,0,1,2.06-2.19,21.11,21.11,0,0,1,3.35-1.54c.35-.15.66-.42,1-.58a27.79,27.79,0,0,1,3.74-1,31.4,31.4,0,0,1,6.7-1.35c1.28-.05,2.41.35,3.8.26s2.52-.37,3.86-.39,2.59-.17,3.93-.19c1.5,0,3.09-.06,4.64,0s3,0,4.51.13a22.57,22.57,0,0,1,5.29,1.35,17.25,17.25,0,0,1,1.93.52,15.49,15.49,0,0,1,5.41,4.25,16.13,16.13,0,0,1,2,2.83A31.5,31.5,0,0,1,70.4,27c1.27,3.6,1.32,8.23,2.38,12.11.33,1.2,2.33,8.37,2.64,10.76.45,3.38.75,7,1.23,10.38a54.26,54.26,0,0,1,0,11.4c-.13,1.85-.15,3.71-.39,5.48s-.55,3.4-.77,5.09S74.71,85.39,74.4,87s-.63,3.3-1,4.9c-.73,3.37-1,6.69-2,9.73s-2,5.71-3.09,8.57-2.44,5.42-3.61,8.11c-.31.71-.5,1.46-.84,2.13-.9,1.82-2.11,3.74-3.15,5.6a40.32,40.32,0,0,1-4.58,7.15A60.34,60.34,0,0,1,52,137.74c-.51.46-.94,1.07-1.42,1.48-.72.6-1.76.95-2.38,1.55-3.94,1.47-8.29,1.42-12.37,1.09a20,20,0,0,1-4.06-.84c-2.55-.71-5.2-1.31-7.67-2.25a25.79,25.79,0,0,1-6.64-3.22,38.67,38.67,0,0,1-3.21-3.36A7.36,7.36,0,0,1,13,130.62a12.3,12.3,0,0,1-2.16-3.83c-.52-2-1-4.44-1.42-6.51a88.4,88.4,0,0,1-.9-15.46A63.71,63.71,0,0,1,9.52,90.26Zm29.18-51a1.41,1.41,0,0,1-1.16.45A1.09,1.09,0,0,1,38.7,39.3Zm-3.93-3.48q-.1,0-.12-.06a4.9,4.9,0,0,1,3.67-.58C37.27,35.56,35.61,35.42,34.77,35.82Zm3.42-3.6a18.68,18.68,0,0,0-6.38,1.54,6.85,6.85,0,0,1-2.06,1c-.08,0-.06-.12-.07-.19,2.57-1.4,5.58-3.12,9.41-2.64C38.94,32.35,38.46,32.19,38.19,32.22ZM50.75,74.16c-2.37-1.21-5-2.47-8.5-2.32C45.47,70.87,50.75,74.05,50.75,74.16ZM46.69,71c.68-.12,3.92,1.29,3.93,2.32A6.34,6.34,0,0,0,49,72.16,14,14,0,0,0,46.69,71Zm4.84-36.08c2-.16,4.17.74,5.66,1.29.11,0,.12,0,.13.13s-.06.06-.13.06c-1.65-.31-3.27-1-5.28-1.09-.62,0-1.32.36-1.87-.07A3.49,3.49,0,0,1,51.53,34.92Zm-.71-4.38c.27-.37.72-.14,1.09-.13a15.78,15.78,0,0,0,2-.19,10.12,10.12,0,0,1,5.47,1.55.27.27,0,0,1,.07.19c-1.62-.41-3.26-1.45-5.28-1.42A14.44,14.44,0,0,1,50.82,30.54ZM60,67.72c.32-.16.62-.36.93-.54a3.54,3.54,0,0,1,.52-.25l-.19.21a26.7,26.7,0,0,1-2.52,2.1,50.15,50.15,0,0,1-4.17,3.39c-2.13,1.47-2.26-1.75-1.87-3,0-.09.06-.2.1-.3A2.37,2.37,0,0,1,54.16,68c.32-.12,1.67.53,2,.59A6.23,6.23,0,0,0,60,67.72ZM53.84,40.27c.52,0,.93.11,1.1.45C54.68,40.71,53.92,40.67,53.84,40.27Zm1,1.55c-.18.09-.7.08-.65-.26A.56.56,0,0,1,54.81,41.82ZM51.59,55.54a1.21,1.21,0,0,1-.52-1.35C51.41,54.47,51.39,55.11,51.59,55.54Zm-.71,1.22a5.09,5.09,0,0,1-1.22-2.13C50.3,54.86,50.49,56.07,50.88,56.76Z"/>
    <path id="lips" class="cls-2" d="M15.06,90.33a9.37,9.37,0,0,0,.19-1.48c.37-1.76,1.43-4.07,2.9-4.84.8-.4,1.65.31,2.26.26s1.63-1.11,2.38-1.48c.36-.17.83-.27,1.23-.45a3.52,3.52,0,0,1,1.48-.52c.51,0,1.11.32,1.54.26.88-.13,1.74-1.52,2.39-2.19a12.23,12.23,0,0,1,1.22-1.09c.13-.11.27-.21.41-.31l.12-.1.3-.22.14-.09a4,4,0,0,1,.34-.23l.09-.07c.3-.2.61-.39.93-.58l.09-.06.41-.23.09,0c.33-.19.68-.37,1-.54a49,49,0,0,0-7.66,3.52c-.65.44,1.76-2,2.29-2.54a19.14,19.14,0,0,1,2.63-2.13c-.11-.22-2.21,1.24-2,1s4.67-4.09,5.63-5h-.05a10.84,10.84,0,0,1-4.86-1.77c-.63-.41-3.11-1.63-3.67-2-1.51-.88-2.81-2.93-2.15-4.75.08-.22.17-.42.26-.61h0l-.23.08h-.07l-.17,0-.09,0H24l-.16,0h-.1l-.16,0-.1,0-.18-.06-.09,0L22.92,62a9.35,9.35,0,0,1-1-.71,6.51,6.51,0,0,1-1.81-1.48c.91.19,2.06,1.44,3.09,1.87,1.73.71,3.12-.83,3.1-2.45l0-.42a.68.68,0,0,0,0-.14l0-.27a.94.94,0,0,0,0-.16c0-.08,0-.16,0-.24l-.05-.16-.06-.23a1.54,1.54,0,0,0-.05-.17c0-.07-.05-.14-.07-.22A.75.75,0,0,1,25.9,57a1.55,1.55,0,0,1-.08-.23,1.12,1.12,0,0,1-.05-.13c0-.1-.08-.2-.11-.29v0c-.11-.29-.23-.58-.33-.86a.36.36,0,0,0,0-.09l-.09-.27s0-.08,0-.11-.06-.18-.08-.26a.56.56,0,0,0,0-.12c0-.09-.05-.17-.07-.26s0-.08,0-.12L24.88,54s0-.07,0-.11,0-.19,0-.28a.22.22,0,0,0,0-.08c0-.1,0-.21,0-.31a4,4,0,0,0-.75-.79,1.7,1.7,0,0,1,0,.39,3.6,3.6,0,0,1-.71,2.08,2.3,2.3,0,0,1-3.21,0,17.33,17.33,0,0,1-4-4.91,32.13,32.13,0,0,1-3.67-8.56,42.75,42.75,0,0,0-1,8.29c-.11,5.56.75,11.13.69,16.68.06,1.59.07,3.18,0,4.76a71.18,71.18,0,0,1-1,9.7c1.87-1.23,3-2.14,3.8-3.92.4-.93-3.3,8.66-2.51,9.13s5.32-11.8,6-13.88C18,74.13,15,86.05,13.76,92.07c0-.07.05-.13.08-.19C14.07,91.39,14.85,90.87,15.06,90.33Zm9.66-12.57c.11.37-1.14,1.36-1.22,1.36C23.67,78.42,24.33,78.22,24.72,77.76Zm3.1-1.22c.52-.13,1-.36,1.61-.52-.34.6-1,.71-1.55.91a7,7,0,0,0-1.61.83c-1,.72-2.9,2.32-3,2.32C23.25,79.64,26.23,76.94,27.82,76.54ZM88.05,39a60.59,60.59,0,0,0-1.67-8c-.74-2.61-1.32-5.21-2.19-7.61a62.09,62.09,0,0,0-3-6.82,35.37,35.37,0,0,0-3.68-6.12,19.74,19.74,0,0,0-5-4.77c-3-1.79-6.12-3.8-10.25-4.45A26.55,26.55,0,0,0,58.42.84c-1.4,0-2.81.2-4.25.26l-1,0c-1.35.37-2.69.77-4,1.16-6.3,1.84-12.3,4.44-18.86,5.3-1.44.19-2.87.26-4.31.32l-.1,0a76.15,76.15,0,0,0-7.72,3.73c-.63.37-1.26.76-1.85,1.19l-.27.19-.11.09c-.28.24-.56.47-.83.73a17.7,17.7,0,0,0-1.41,1.46c0,.06-.45.61-.46.62-.27.4-.55.8-.81,1.21a34.94,34.94,0,0,0-4.12,8.35A32.88,32.88,0,0,0,7.2,30a80.36,80.36,0,0,0,1,9c.52-4.4,1-8.78,3.05-12.81A25,25,0,0,1,22.3,14.93c4.78-2.34,10.25-3.13,15.53-3.27,3.91-.1,22.51-8,30.68,4.34l.33.51a22.25,22.25,0,0,1,2.27,3.25c2.87,5,4,11,4.39,16.82a1.61,1.61,0,0,0-.09.54,262,262,0,0,1,3.54,41,100.5,100.5,0,0,1-1.28,12.1c-.58,3.88-4.17,18.22-6.08,21.72-1,1.9-3,9.4-5.9,14.23-2,3.28-11.1,13.42-14.14,14.85-3.22,1.52-7.52,3.58-21.56.79-5.93-1.17-11.72-3.92-15.39-8.66-1.71-1.89-3.73-4.5-4.21-6.35s-1.25-4.15-1.61-6c-.76-2.76-.58-5.22-.85-8.08-.3-3.19.28-15.76.34-18-.09.4-.19.8-.28,1.19C8.06,97,6.51,106.39,6.5,109.48c0,3.3,1.46,13.11,1.22,13.14a43.35,43.35,0,0,1-1.12-4.35,41.24,41.24,0,0,0,1.3,4.91c.24.73.49,1.44.77,2.15,0,0,.29.67.3.7.11.26.23.52.35.78A41.17,41.17,0,0,0,11.63,131c.4.62.8,1.23,1.23,1.83.21.3.42.6.65.89l.14.2.14.17a37.34,37.34,0,0,0,12,9.61,42.56,42.56,0,0,0,9.85,3.41c2.88.65,5.83.84,8.73,1.38.68-.05,7.55.93,11.16.43l.46-.1.08,0,.4-.08.16,0,.35-.08.2,0,.32-.07.21-.06.3-.07.24-.07.27-.07.34-.1.32-.1.3-.1.21-.07.27-.1.21-.08.26-.11.2-.08.25-.12.19-.09.25-.12.18-.1.25-.14.16-.1.26-.17.14-.09c.13-.08.25-.18.37-.27a39.41,39.41,0,0,0,4-4.06,46.78,46.78,0,0,0,6.18-11.73c2.13-5.87,8.74-25,9.92-28.67a95.47,95.47,0,0,0,3-11.66c.52-2.73,2.12-15.72,2.26-17.2.26-2.8.51-5.51.64-8.24.07-1.36,0-2.69.2-4.06a65.18,65.18,0,0,0,.19-13.14C89,46.13,88.25,40.45,88.05,39ZM24.69,141.65a33,33,0,0,1-5.5-2.78,20.35,20.35,0,0,1-1.69-1.18,65.66,65.66,0,0,0,7.75,3.73c3.72,1.22,8,2,8.51,2.15A40.67,40.67,0,0,1,24.69,141.65Zm42.43-7.85a45.07,45.07,0,0,1-6.05,5.27c.61-.45,1.21-.93,1.79-1.42a36,36,0,0,0,8.72-11.55A39.36,39.36,0,0,1,67.12,133.8ZM64.86,130a25.73,25.73,0,0,1-5,5.26c.53-.52,1.05-1,1.56-1.6a38.32,38.32,0,0,0,6.09-9.29,123.79,123.79,0,0,0,6.35-16.78C73.64,108.66,70.2,122.34,64.86,130ZM83.2,77.58c-.4-5-.57-10-.74-15l.21,1.54A73.89,73.89,0,0,1,83.2,77.58Zm1.29-25.23c-.21-1.22-1.57-16.46-3.11-22.65-1.66-6.67-4-13.06-9-18A27.63,27.63,0,0,0,64.09,6.2C60.63,4.7,57,5,53.32,5.19a27.32,27.32,0,0,0-5.89.95c-2,.56-3.81,1.46-5.7,2.2a30.57,30.57,0,0,1-5.09,1.42c-2.66.37-5.3.84-8,1.42a39.64,39.64,0,0,0-11.62,4.14,18.45,18.45,0,0,0-1.79,1.18l-.24.17c.45-.51.92-1,1.42-1.48,2.56-2.42,5.66-3.62,9-4.64,1-.3,2-.59,3-.86,1.65-.25,3.31-.51,5-.85,3.72-.76,7.3-1.79,10.89-2.89,2.05-.46,4.09-.93,6.13-1.43a28.69,28.69,0,0,1,9.72-.9,25.77,25.77,0,0,1,16.76,8.27c4.13,4.69,5.82,10.86,6.46,17C84,35.64,84.57,52.8,84.49,52.35Z"/>
    <path id="tongue" class="cls-3" d="M36.56,107.13c1.95-5.26,5.24-15.44,8.6-20,.29-.4,1.28-2.39,1.45-2.64.65-2.45.15-5.26-2.32-6.51a8,8,0,0,0-4.22-.88,18.8,18.8,0,0,0-3.63.94l-.48.19c-.54.26-1.08.54-1.61.86l-.42.24c-.75.5-2.52,1.75-2.66,1.75a8.27,8.27,0,0,0-.81.75,17.75,17.75,0,0,0-2.64,3.69c-1.5,2.7-2.68,5.56-4,8.36a82.88,82.88,0,0,0-4.33,10.24A76.13,76.13,0,0,0,17,114.79a42.39,42.39,0,0,0-.49,9.94,16.39,16.39,0,0,0,1.85,7.18.72.72,0,0,1,.55.44c.31.65,1.38,1.26,1.93,1.73a12.53,12.53,0,0,0,2.52,1.76,40.66,40.66,0,0,0,6.64,2c4.13,1.17,8.38,2.31,12.7,1.56a14.37,14.37,0,0,0,5.71-2.09,44.46,44.46,0,0,0,4.54-3.92,16.33,16.33,0,0,0,3.76-4.48c.93-1.86,1.52-3.85,2.34-5.76a.82.82,0,0,1,.3-.37c.65-1.45,1.7-2.65,2.39-4.11,1.08-2.29,2-4.66,3-7s2.09-4.69,2.92-7.12,1.3-4.72,1.93-7.1c1.26-4.82,2.72-9.61,3.58-14.52a33.6,33.6,0,0,0,.72-7.34,5.42,5.42,0,0,0-.74-2.67c-1.45-1-3.94-.46-5.42-.1a36.12,36.12,0,0,0-7.27,2.71A36.81,36.81,0,0,0,52,81l0,0c-.73.84-1.37,1.76-2.06,2.7h0l-.32.43C44.66,90.82,41.06,99,37.8,107.14c-.41,1-.64,2.18-1,3.28a77.73,77.73,0,0,0-2.44,10.12c-.33,1.59-.47,3.34-.65,5a26.08,26.08,0,0,0,1,9.92c-1.16-2.47-1.28-5.53-1.35-8.43a44.33,44.33,0,0,1,1-8.57,62.61,62.61,0,0,1,1.93-8c.11-.32.21-.64.32-.95s.11-.33.17-.49l.15-.44.21-.57c0-.12.09-.24.13-.35s.16-.41.23-.62l.12-.28c.08-.23.17-.45.26-.67a2,2,0,0,0,.08-.22c.11-.25.21-.5.31-.75,0,0,0-.08,0-.11l.71-1.71C38.39,104.27,36.25,108,36.56,107.13Zm7-24.73h.13a.44.44,0,1,1,0,.88h-.13a.44.44,0,1,1,0-.88Zm-1.75,3.89a.44.44,0,0,1,0,.88A.44.44,0,0,1,41.79,86.29ZM38.31,89.6a.5.5,0,0,1,.53.53.45.45,0,0,1-.45.44.64.64,0,0,1-.53-.53A.45.45,0,0,1,38.31,89.6Zm-.45,3.58a.44.44,0,0,1,0,.88A.44.44,0,0,1,37.86,93.18Zm-9.22,12.43a.45.45,0,0,1,0-.89A.45.45,0,0,1,28.64,105.61Zm-1.41-6.77c.19-.86.4-1.71.66-2.55a42.8,42.8,0,0,1,1.9-5.14A78.74,78.74,0,0,0,27.23,98.84Zm25.21-3.43a.45.45,0,0,1,0-.89A.45.45,0,0,1,52.44,95.41ZM52,85.68c.3,0,.45.25.49.51a.45.45,0,0,1-.45.45H52a.45.45,0,0,1-.44-.45C51.59,85.93,51.74,85.68,52,85.68Zm-.9,5.75a.45.45,0,0,1,.63,0l.09.09a.44.44,0,0,1,0,.62.45.45,0,0,1-.63,0l-.09-.09A.44.44,0,0,1,51.14,91.43Zm1.81,8a76.94,76.94,0,0,1,5.74-12.29,93,93,0,0,0-5.35,12.6c-.83,2.5-1.62,5-2.38,7.55A39.05,39.05,0,0,1,53,99.44Zm-3.38,9a.44.44,0,1,1-.88,0v-.18a.44.44,0,1,1,.88,0Zm-.44-20.3a.44.44,0,0,1,0,.88A.44.44,0,0,1,49.13,88.17Zm-.71,9.92a.44.44,0,0,1,.44-.44.45.45,0,0,1,.45.44v.09a.46.46,0,0,1-.45.45.45.45,0,0,1-.44-.45Zm-.81-5.9h.09a.45.45,0,0,1,0,.89h-.09a.45.45,0,0,1,0-.89ZM45.46,96.4a.45.45,0,0,1,0,.89A.45.45,0,0,1,45.46,96.4Zm-2,3.35a.66.66,0,0,1,.49-.22.44.44,0,0,1,.44.44.63.63,0,0,1-.93.41A.45.45,0,0,1,43.45,99.75Zm-.83,19.88c.05-.2.09-.41.13-.61-.16,1.33-.29,2.67-.39,4-.16,2.2-.16,4.4-.33,6.6a21.94,21.94,0,0,0,0,4.21s-.44-2-.48-2.5A44,44,0,0,1,42.62,119.63ZM31.33,96.93a.45.45,0,0,1,0-.89A.45.45,0,0,1,31.33,96.93Zm2.32-4.38a.45.45,0,0,1,0,.89A.45.45,0,0,1,33.65,92.55Zm.09,5.27a.45.45,0,0,1,0-.89A.45.45,0,0,1,33.74,97.82Zm.44,7.43a.44.44,0,1,1-.88,0v-.09a.44.44,0,1,1,.88,0Zm1-16.38a.44.44,0,0,1,0-.88A.44.44,0,0,1,35.17,88.87Z"/>
    <path id="lines" class="cls-1" d="M47.61,93.08h.09a.45.45,0,0,0,0-.89h-.09a.45.45,0,0,0,0,.89ZM33.74,96.93a.45.45,0,0,0,0,.89A.45.45,0,0,0,33.74,96.93Zm0,7.79a.44.44,0,0,0-.44.44v.09a.44.44,0,1,0,.88,0v-.09A.44.44,0,0,0,33.74,104.72ZM35.17,88a.44.44,0,0,0,0,.88A.44.44,0,0,0,35.17,88ZM31.33,96a.45.45,0,0,0,0,.89A.45.45,0,0,0,31.33,96ZM44,100.4a.44.44,0,0,0,.34-.43.44.44,0,0,0-.44-.44.66.66,0,0,0-.49.22.45.45,0,0,0,0,.63A.44.44,0,0,0,44,100.4Zm-10.39-7a.45.45,0,0,0,0-.89A.45.45,0,0,0,33.65,93.44Zm11.81,3.85a.45.45,0,0,0,0-.89A.45.45,0,0,0,45.46,97.29ZM38.34,105s0,.07,0,.11S38.33,105.08,38.34,105Zm-.7,1.75c0,.09-.07.19-.11.29C37.57,107,37.61,106.88,37.64,106.79Zm.35-.89c0,.07-.05.15-.08.22A2,2,0,0,1,38,105.9Zm-.69,1.79a3.62,3.62,0,0,0-.13.35A3.62,3.62,0,0,1,37.3,107.69Zm-.66,1.85c-.11.31-.22.63-.32.95C36.42,110.17,36.53,109.85,36.64,109.54Zm.32-.93-.15.44ZM51.23,92.14a.45.45,0,0,0,.63,0,.44.44,0,0,0,0-.62l-.09-.09a.45.45,0,0,0-.63,0,.44.44,0,0,0,0,.62Zm.76-5.5h.09a.45.45,0,0,0,.45-.45c0-.26-.19-.51-.49-.51s-.45.25-.49.51A.45.45,0,0,0,52,86.64Zm.45,8.77a.45.45,0,0,0,0-.89A.45.45,0,0,0,52.44,95.41ZM43.8,92.88l-.08.14S43.77,92.92,43.8,92.88Zm-.89,1.77-.12.25Zm-.45.94a.3.3,0,0,1,0,.08S42.45,95.62,42.46,95.59Zm.9-1.86-.11.23A2.4,2.4,0,0,0,43.36,93.73Zm-1.57-6.56a.44.44,0,0,0,0-.88A.44.44,0,0,0,41.79,87.17Zm7.07,11.46a.46.46,0,0,0,.45-.45v-.09a.45.45,0,0,0-.45-.44.44.44,0,0,0-.44.44v.09A.45.45,0,0,0,48.86,98.63ZM38,90.39a.44.44,0,0,0,.35.18.45.45,0,0,0,.45-.44.51.51,0,0,0-.54-.53.44.44,0,0,0-.44.44A.44.44,0,0,0,38,90.39Zm-9.4,14.33a.45.45,0,0,0,0,.89A.45.45,0,0,0,28.64,104.72Zm9.22-10.66a.44.44,0,0,0,0-.88A.44.44,0,0,0,37.86,94.06Zm11.27-5a.45.45,0,0,0,0-.89A.45.45,0,0,0,49.13,89.05Zm0,18.8a.44.44,0,0,0-.44.44v.18a.44.44,0,1,0,.88,0v-.18A.44.44,0,0,0,49.13,107.85ZM41.68,97.27c.25-.54.49-1.07.74-1.6a.3.3,0,0,0,0-.08l.33-.69.12-.25.34-.69a2.4,2.4,0,0,0,.11-.23l.36-.71s.05-.1.08-.14c.42-.83.86-1.65,1.31-2.45a49,49,0,0,0-3.48,6.95ZM56.18,68.6c-.35-.06-1.7-.71-2-.59a2.34,2.34,0,0,0-1.33,1.27c0,.1-.07.2-.1.3-.39,1.3-.26,4.52,1.87,3a52.26,52.26,0,0,0,4.17-3.39,26.7,26.7,0,0,0,2.52-2.1l.19-.21a3.54,3.54,0,0,0-.52.25c-.31.18-.61.38-.93.54A6.23,6.23,0,0,1,56.18,68.6Zm-3,2.45a3.31,3.31,0,0,1,.29-1.51c0,.75-.14,1.46.45,1.85.81.54,1.09,0,1.36,0C54.85,71.8,53.34,72.51,53.23,71.05ZM27.88,76.93c.51-.2,1.21-.31,1.55-.91-.57.16-1.09.39-1.61.52-1.59.4-4.57,3.1-4.51,3.54.06,0,2-1.6,3-2.32A7,7,0,0,1,27.88,76.93Zm-3.16.83c-.39.46-1,.66-1.22,1.36C23.58,79.12,24.83,78.13,24.72,77.76ZM49.66,54.63a5.09,5.09,0,0,0,1.22,2.13C50.49,56.07,50.3,54.86,49.66,54.63Zm1.93.91c-.2-.43-.18-1.07-.52-1.35A1.21,1.21,0,0,0,51.59,55.54Zm2.58-14c-.06.34.46.35.64.26A.55.55,0,0,0,54.17,41.56Zm-.33-1.29c.08.4.84.44,1.1.45C54.77,40.38,54.36,40.27,53.84,40.27Zm-15.14-1a1.09,1.09,0,0,0-1.16.45A1.41,1.41,0,0,0,38.7,39.3Zm13.21-4c2,.06,3.63.78,5.28,1.09.07,0,.08,0,.13-.06s0-.15-.13-.13c-1.49-.55-3.61-1.45-5.66-1.29a3.49,3.49,0,0,0-1.49.32C50.59,35.67,51.29,35.29,51.91,35.31Zm-17.26.45q0,.08.12.06c.84-.4,2.5-.26,3.55-.64A4.9,4.9,0,0,0,34.65,35.76ZM39.09,32c-3.83-.48-6.84,1.24-9.4,2.64,0,.07,0,.18.06.19a6.85,6.85,0,0,0,2.06-1,18.68,18.68,0,0,1,6.38-1.54C38.46,32.19,38.94,32.35,39.09,32Zm15.08-1.42c2,0,3.66,1,5.28,1.42a.27.27,0,0,0-.07-.19,10.12,10.12,0,0,0-5.47-1.55,15.78,15.78,0,0,1-2,.19c-.37,0-.82-.24-1.09.13A14.44,14.44,0,0,0,54.17,30.54ZM90.44,54.38c0-5.12-.11-10.21-1.16-14.75s-2-8.75-3.22-13a64,64,0,0,0-4.71-11.6,26.92,26.92,0,0,0-5-7.15c-.69-.69-1.42-1.26-2.19-1.93a19.65,19.65,0,0,0-4.9-3.23A31.57,31.57,0,0,0,63.31.65,39.54,39.54,0,0,0,48.75.71a45.76,45.76,0,0,0-9.53,2.64,13.84,13.84,0,0,1-3,1.1,7.38,7.38,0,0,1-2.12-.26c-.55-.06-1.1-.05-1.68-.06C27.68,4,22.9,4.62,19.64,6c-.86.35-1.62.87-2.52,1.22a13.53,13.53,0,0,0-4.31,3.16c-.66.65-1.31,1.18-1.87,1.8C9,14.27,8.45,16.8,7.46,19.78A34.69,34.69,0,0,0,6,32.22C6.29,39,6.9,45.34,7.85,51.93,8,53,8,54.08,8.23,55.15A76.43,76.43,0,0,1,9.65,71.71,66.27,66.27,0,0,1,8,84.66c-.5,2-1,4-1.48,5.93S5.4,94.34,4.88,96.26s-.9,4-1.55,5.92a77.21,77.21,0,0,0-2.76,11.6,24.84,24.84,0,0,0-.52,6.31,27.27,27.27,0,0,0,1.29,6.19,28.4,28.4,0,0,0,2,5.48,23.29,23.29,0,0,0,3.1,4.31,47.26,47.26,0,0,0,3.8,3.67,54.67,54.67,0,0,0,8.7,6.25,29,29,0,0,0,5.15,2.26A38.73,38.73,0,0,0,29.81,150c3.87.7,8.92,2,13.08,1.8a93.41,93.41,0,0,0,13.92-2.06,16.57,16.57,0,0,0,10-6.25C68,142,69,140.2,70,138.52c2.16-3.45,3.49-7.28,5.15-11.15.83-1.93,1.26-4,2.13-6.05s1.34-4,2.06-6.06c1-3,2.25-5.9,3.09-9s1.94-6.2,2.71-9.41c.51-2.16,1.1-4.33,1.54-6.57s.83-4.53,1.23-6.83c.82-4.74,1-9.55,1.54-14.37A55.6,55.6,0,0,0,90,61.79C89.92,59.37,90.44,56.93,90.44,54.38Zm-1.55,6.31c-.15,1.37-.12,2.71-.19,4.06-.14,2.73-.39,5.44-.65,8.25-.13,1.47-1.74,14.46-2.25,17.2a98.32,98.32,0,0,1-3,11.66c-1.19,3.71-7.79,22.79-9.92,28.67a46.74,46.74,0,0,1-6.19,11.72,39.33,39.33,0,0,1-4,4.06c-.12.1-.25.19-.38.28l-.13.08-.26.17-.17.1-.24.14-.19.1-.24.12-.2.1-.25.11-.2.09-.26.1-.2.08-.27.1-.21.07-.3.1-.32.1-.35.1-.27.08-.24.06-.29.08-.22.05-.32.08-.19,0-.35.08-.16,0-.4.09-.09,0-1.48.29A64.93,64.93,0,0,1,47,150.24c-1,.07-6.22.28-8,.13-.85-.07-1.74-.09-2.58-.19-1.05-.13-10.07-1.88-12.69-3.09-1.82-.85-6.81-3.78-7.6-4.32-3.8-2.63-7.85-5.64-10.56-9.21-2.28-3-3.46-6.71-4.32-11.41a22.6,22.6,0,0,1-.06-7c.29-2.21,1.94-8.57,2.18-9.6,1-4.25,4.38-14,4.64-15.14.51-2.09,1.14-4.2,1.55-6.37a59.35,59.35,0,0,0,1-10.51c0-1.14.36-2.31.39-3.41a20.55,20.55,0,0,0-.26-2.77c-.32-2.62-.63-5.37-.84-8-.14-1.8-.56-3.54-.84-5.22s-.53-3.26-.7-4.77c-.07-.24-.75-6.61-1-9.92-.11-1.29-.48-2.49-.52-3.74-.16-4.47,0-10.26,1.16-14.56l.45-1.67a32.71,32.71,0,0,1,2.06-5,20.84,20.84,0,0,1,2.13-2.64c.42-.46.72-1,1.09-1.29A27,27,0,0,1,18,7.8a22.61,22.61,0,0,1,5-1.93,28.73,28.73,0,0,1,5.93-.78,14.89,14.89,0,0,1,5.8.33c-.81.46-4.18,1.74-5,2.12.46.13,4.49-1,6-1.54.49-.16,7.17-3,10-3.74a28.31,28.31,0,0,1,3.8-.9c1.19-.14,2.41-.19,3.61-.23l1,0C55.61,1,57,.84,58.42.84a26.55,26.55,0,0,1,3.86.45c4.13.65,7.21,2.66,10.24,4.45a19.62,19.62,0,0,1,5,4.77,34.69,34.69,0,0,1,3.67,6.12,62.09,62.09,0,0,1,3,6.82c.88,2.4,1.46,5,2.19,7.61a59,59,0,0,1,1.68,8c.2,1.41.89,7.09,1,8.51A64.44,64.44,0,0,1,88.89,60.69ZM9.39,120.28c.38,2.08.9,4.47,1.42,6.51A12.33,12.33,0,0,0,13,130.63c.4.54.83,1.07,1.26,1.57a36.41,36.41,0,0,0,3.21,3.35,25.16,25.16,0,0,0,6.64,3.22c2.47.94,5.12,1.55,7.67,2.26a21.39,21.39,0,0,0,4.06.84c4.08.32,8.43.38,12.37-1.1.62-.6,1.66-.94,2.38-1.54.48-.41.91-1,1.42-1.49a60.19,60.19,0,0,0,4.18-4.57A40.32,40.32,0,0,0,60.74,126c1-1.87,2.25-3.78,3.15-5.61.34-.67.53-1.41.84-2.12,1.17-2.69,2.55-5.34,3.61-8.12s2.12-5.66,3.09-8.57,1.27-6.35,2-9.72c.34-1.61.63-3.25,1-4.9s.88-3.16,1.09-4.77.55-3.37.77-5.09.27-3.62.39-5.47a54.35,54.35,0,0,0,0-11.41c-.48-3.38-.78-7-1.23-10.37-.31-2.39-2.31-9.56-2.64-10.76C71.72,35.22,71.67,30.59,70.4,27a30.75,30.75,0,0,0-1.35-3.48,15.76,15.76,0,0,0-2-2.83,15.52,15.52,0,0,0-5.41-4.26,17.19,17.19,0,0,0-1.93-.51,23.09,23.09,0,0,0-5.29-1.36c-1.49-.1-3-.07-4.51-.12s-3.14,0-4.64,0c-1.34,0-2.65.18-3.93.19s-2.58.3-3.86.39-2.52-.31-3.8-.26A31.4,31.4,0,0,0,27,16.11a29.48,29.48,0,0,0-3.74,1c-.37.16-.68.44-1,.58a21.13,21.13,0,0,0-3.35,1.55,12.61,12.61,0,0,0-2.06,2.19,26.28,26.28,0,0,0-4.64,7,17.4,17.4,0,0,0-1.35,3.35c-.18.76-1.42,7.56-1.16,10.05.26-1.86.95-4.47,1.09-5.29s.77-3.88,1-4.64c.55-1.56,1-3,1.93-3.8-.47,2.41-.87,5.22-1.48,7.67-.22.91-.78,3.32-.83,3.67-.33,2.14-.81,7.51-.39,7.67.36-.65,1.08-9.6,2.25-12.37-.16,2.62-.53,6.08,1.36,7.15a11.5,11.5,0,0,0,1.67,5c-.12,1.26.49,2,.9,3,.25.63.43,1.31.65,1.74.75,1.48,2.88,1.62,4.64,1.22.9-1.32-.24-2.71-.65-4.12A7.34,7.34,0,0,0,21,46.32c.37-1.9-.79-3.67-1-5.47-.2-1.4.33-2.4.32-3.48a15.79,15.79,0,0,0-.65-3,6,6,0,0,0,1.1-2.9c1.17-.75,2.22-1.81,3.8-2,.6-.07,1.23,0,1.8-.07A26.1,26.1,0,0,0,31,28.67a25.83,25.83,0,0,0,2.83-.83,15.2,15.2,0,0,1,2.9-1c1.39-.16,2.56.6,3.93.84a11.56,11.56,0,0,0,3.22.06,22.12,22.12,0,0,0,3.8-1l1.68-.45c1.14-.3,2.27-.88,3.29-1a20,20,0,0,1,3.41.13,33,33,0,0,0,3.67.07,8.44,8.44,0,0,1,1.48-.2c.38.07.65.39,1,.52a12.11,12.11,0,0,0,2.9.26c1.06,0,2,.56,2.84.58.49,0,.94-.3,1.41-.2a41.27,41.27,0,0,1,1.49,5.61c.2.93.38,1.94.51,2.9A63.06,63.06,0,0,0,73.3,43.1c.23.84.41,1.68.58,2.52.64,3.14,1.23,6.63,1.8,10.18.14.81.16,1.77.26,2.7a13.68,13.68,0,0,1,.32,2.84,4.66,4.66,0,0,1-1.61,2.25,8.24,8.24,0,0,1-4.38,1.61c-.78,0-1.58-.1-2.44,0a11,11,0,0,0-4.71,1.74c-1.07.77-4.18,3.87-5.22,4.64-1.33,1-2.67,2.13-5,1.93a2.53,2.53,0,0,1-1.23-2.19c-.12-2.77,2-4.41,3.68-5.15a4.46,4.46,0,0,0-2.52.9c-.39.23-.75.67-1.09.58s0-.83.71-1.16c-.76.08-.93.75-1.42,1.1-1-.92-2.55-.49-4.06-.26-1.07.16-2.18.43-3.22.51a11.19,11.19,0,0,1-7-1.67,5.48,5.48,0,0,1-1-1.16,13.55,13.55,0,0,1-1.36-1.74,2.75,2.75,0,0,0,.39,1c1.12,2.59,3.56,3.67,6.77,4,2.72.27,4.89-.74,7.27-.77,1.21,0,2.32.4,2.52,1.42.12.63-.32,1.4-.32,2.06a5.14,5.14,0,0,0,1,2.64c.82.84,2.21.43,3.22.13.57-.17,1.06-.42,1.67-.65A17.11,17.11,0,0,0,60,70.55c2-1.75,4.09-3.78,7.09-4.45,1.45-.32,3,0,4.5-.25a9.43,9.43,0,0,0,1.94-.71c.49-.22,1.42-.89,1.93-.77,1,.21.59,2.34.52,3.48-.09,1.36-.11,4.22-1.23,4.38a8.27,8.27,0,0,1-1.54-.45c-.61-.15-1.2-.32-1.61-.39a28.77,28.77,0,0,0-4.06-.19,29.33,29.33,0,0,0,3.09-.78,13.67,13.67,0,0,1-2.13,0c-.47-.17,1.25-1,4.45-1.22a11.85,11.85,0,0,0-5.41,1.09c-.55.22-1.14.41-1.68.65s-1.46.53-2,.74-3.75,1.77-4.83,2.42c-1.59,1-3.15,2.65-5.92,2.25a22.24,22.24,0,0,1-3.29-1.22,18.17,18.17,0,0,0-3.74-.84,21.32,21.32,0,0,0-11.51,2c-.35.17-.7.35-1,.54l-.09,0-.41.24-.09,0c-.32.19-.63.39-.93.59l-.09.06-.34.23-.14.1-.3.22-.13.09-.4.31a12.23,12.23,0,0,0-1.22,1.09c-.65.67-1.51,2.07-2.39,2.19-.43.07-1-.26-1.54-.25a3.32,3.32,0,0,0-1.48.51c-.4.19-.87.28-1.23.45-.75.37-1.73,1.44-2.38,1.48S19,83.61,18.15,84c-1.47.76-2.53,3.08-2.9,4.83a9.22,9.22,0,0,1-.19,1.48c-.21.54-1,1.06-1.22,1.55a1.08,1.08,0,0,0-.08.19,3.37,3.37,0,0,0-.17.85A10.66,10.66,0,0,1,13.45,94l-.06.21c-.2.62-.65,1.22-.84,1.85-.29.91.09,1.84-.07,2.84-.2,1.27-1.45,2.31-1.61,3.54-.09.7.43,1.48-.13,2.06a20.17,20.17,0,0,1,.71-5.86,60.46,60.46,0,0,1,2.9-10.89c.24-.61.56-1.09.52-1.41-2.54,4.35-4.14,10.27-4.84,16.43-.23,2-.1,4.2-.7,6.18,0-3.19-.48-6.7-.39-10a47.26,47.26,0,0,1,1.29-9,32.77,32.77,0,0,1,3-8.76c-1.38,1.21-1.91,3.16-2.58,5.41-.36,1.21-.92,2.52-1.16,3.74a63.67,63.67,0,0,0-1,14.56A88.28,88.28,0,0,0,9.39,120.28ZM15,27.13c.95,1.75,1.68,3.73,3.8,4.31a1.19,1.19,0,0,1-.39,2.13c-1.12-.43-2.81-.28-4.12-.52C13.53,31.06,14.32,28.77,15,27.13Zm-1,13c-.61-1.43-.06-4.22.12-5.8a3.87,3.87,0,0,1,4.32.32c1.21,1.39.23,3.61,0,5.48-.31.27-.77.25-1.22.39C16,40.88,14.59,41.61,14,40.14Zm6.63,7c.55.11.79,1.89,1,2.39A14.68,14.68,0,0,1,22.15,52c-.21.34-.89.16-1.29.13,0-.32-.78-1.29-1.23-1.16-.12-.69-.69-.93-1.28-1.15a4.09,4.09,0,0,1,1,1.54,1.71,1.71,0,0,0,.7.06c.24.27.19.8.46,1-1.88.29-2.21-1.06-2.78-2.51-.31-.79-1-1.68-.45-2.12a3.24,3.24,0,0,0,2.13,0C20,47.6,20.24,47.09,20.6,47.16Zm-.77-3.67a6.6,6.6,0,0,1,.58,2.32,2.55,2.55,0,0,1-.84,1.29,2.16,2.16,0,0,1-2.83-.45c-.8-1.13-1.62-3.3-1.16-4.83a7.1,7.1,0,0,0,2.64-.91,5.59,5.59,0,0,1,.9.32A13.63,13.63,0,0,1,19.83,43.49Zm-.34-12.76h0a1,1,0,0,1-.25,0h-.29l-.25,0h0l-.3-.07A3.17,3.17,0,0,1,17,29.38c-.24-.41-.42-1.17-.7-1.87a5,5,0,0,1-.59-2.89,8,8,0,0,1,1.74-2.84,5.54,5.54,0,0,1,2.39-2.13,29.27,29.27,0,0,0,1.61,5.87c0,.09,0,.18.08.27l0,.08c0,.08.05.16.07.23l0,.07c0,.09.05.19.07.28s0,0,0,0a2.21,2.21,0,0,1,.05.25.13.13,0,0,1,0,.06,2.74,2.74,0,0,1,.05.28h0c0,.1,0,.2,0,.29v.05a2,2,0,0,1,0,.25v0a3.1,3.1,0,0,1-.36,1.4A3,3,0,0,1,19.49,30.73Zm49-5.09-.14,0h0l-.1,0h-.3c-.5,0-1-.24-1.56-.31-1-.13-1.9.2-2.77-.07s-1.34-.92-2.06-1.16c.25-1.18.43-3.57.25-2.76-.06.29-.21,1.05-.39,1.75a3.68,3.68,0,0,1-.52,1.29l-.05,0a4.25,4.25,0,0,1-1.93.19c-2.21,0-5.14,0-5.8-1.87a23.42,23.42,0,0,0-.13-3.29c-.35,1.29-.11,3.33-.51,4.51-1.43.91-4.77,1.8-7.54,2.39a13.53,13.53,0,0,1-5.09.13,5.39,5.39,0,0,1-2.17-1.95s0,0,0-.05a3.71,3.71,0,0,1-.26-1c-.1-1.44,0-3.08-.06-4.19-.38.49-.25,1.46-.26,2.32,0,1.13.13,3-.39,3.74l-.06.08,0,.05,0,0-.07.06,0,0a7,7,0,0,1-1.89,1.1c-.83.3-1.89.54-3,.84a13,13,0,0,1-4.12.58c-1.3-.07-2.48-.07-3.74-.19l-.13-.09h0c-1-.66-1.46-2.12-1.89-3.5-.05-.18-.11-.36-.17-.54a12.45,12.45,0,0,1-1-4.44c.15-.53.88-.57,1.48-.78,1.63-.57,3.51-1.3,5.54-1.8l3-.71A13.56,13.56,0,0,1,37,15.72c.15.36,0,1,.32,1.23.27-.2.1-.85.32-1.1a8.35,8.35,0,0,0,3.16-.38c.19-.07.14,0,.25-.07a57.09,57.09,0,0,1,12.12,0c0,.72-.13,1.7.19,2.19a12.7,12.7,0,0,1,.32-2.06,20.74,20.74,0,0,1,8.57,2.13,9.11,9.11,0,0,1,.06,1.41c.29-.23.18-.85.39-1.15a16.11,16.11,0,0,1,4.64,4.63A4.8,4.8,0,0,1,68.47,25.64ZM14.8,131.43a17.31,17.31,0,0,1-1.61-2.71c-.41-.69-1-1.07-1.29-1.67-.45-1.06-1.28-2.78-.38-3.35.76.11,1.71.1,2.32.19a9,9,0,0,1,.51,2.58c.07.28.26.54.32.83.2.85.17,1.67.39,2.45s.67,1.52.9,2.45C15.48,132.24,15.24,131.94,14.8,131.43ZM27.62,83.75a27.65,27.65,0,0,1,2.13-2.89,18.1,18.1,0,0,1,9.53-5.35,16,16,0,0,1,2.46-.41h.08l.38,0h0a21.06,21.06,0,0,1,12.22,3c.13.12-.25.39-.45.58-.63.61-1.34,1.19-2,1.87a45.48,45.48,0,0,0-4.32,5.86c-.91,1.32-1.75,2.69-2.55,4.1-.45.8-.89,1.62-1.31,2.45l-.08.14c-.12.24-.24.47-.35.71l-.12.23c-.11.23-.22.46-.34.69l-.12.25-.33.69a.3.3,0,0,1,0,.08c-.25.53-.49,1.06-.74,1.6-.86,1.9-1.69,3.85-2.52,5.81,0,.09-.07.17-.11.25L38.34,105s0,.07,0,.11c-.1.25-.2.5-.31.75a2,2,0,0,1-.08.22c-.09.22-.18.44-.26.67a2.49,2.49,0,0,0-.11.29l-.24.61c0,.11-.08.23-.13.35s-.14.38-.2.57-.11.29-.16.44-.12.33-.17.49-.21.63-.32.95a64.34,64.34,0,0,0-1.93,8,44.33,44.33,0,0,0-1,8.57c.07,2.9.19,6,1.35,8.44a26.15,26.15,0,0,1-1-9.93c.19-1.68.32-3.43.65-5a77.73,77.73,0,0,1,2.44-10.12c.39-1.1.62-2.24,1-3.28C41.06,99,44.67,90.82,49.6,84.2c.1-.14.21-.28.31-.43h0c.69-.94,1.33-1.86,2.06-2.7,0,0,0,0,0,0l.09-.1c2.73-3,6.4-4.93,9.92-7.41,3.1-1.45,8.78-2.3,12-.52,1.23,1.2,1.07,3.51,1,6.19-.06,1.55-.37,3-.58,4.57s-.72,3-1,4.45-.69,3-1,4.38c-.75,3.09-1.24,6-2.06,8.7-.44,1.42-.81,2.82-1.29,4.18s-1,3.08-1.64,4.64l0,.07-.21.56,0,.1c-.16.41-.33.81-.5,1.2,0,0,0,.1-.07.16l-.19.42s-.05.11-.08.17l-.27.54c-.6,1.19-1.31,2.29-1.93,3.48-1.24,2.38-2.43,4.74-3.74,7.15s-2.46,4.76-3.93,7c-.71,1.07-1.52,2.1-2.25,3.16a23,23,0,0,1-1.8,2.25l-.43.45-.12.11-.37.34-.09.08c-3.87,3.36-10.5,4.86-16.78,3.47-1.26-.29-2.46-1-3.8-1.36A81.55,81.55,0,0,1,22.86,137a12.67,12.67,0,0,1-5.6-4.38,22,22,0,0,1-1.42-4.71,30.49,30.49,0,0,1-.9-5.21,44,44,0,0,1,.7-9.8c.08-.43,0-.86.07-1.28.16-1.25.68-2.7,1-4.06a34.14,34.14,0,0,1,1-3.93c.87-2.51,1.64-5,2.65-7.28A82.58,82.58,0,0,1,27.62,83.75ZM15.79,90.07h0c0-.16,0-.31.06-.47h0c0-.15,0-.31.07-.46v0a3.29,3.29,0,0,1,.09-.43s0,0,0,0,.07-.26.1-.39l0-.1c0-.12.07-.23.11-.34s0-.11.05-.16.07-.19.1-.28l.1-.24L16.6,87c.06-.15.13-.29.2-.43s.07-.13.1-.2l.05-.09s0-.07.05-.1l.07-.12,0-.06.09-.14h0a2.12,2.12,0,0,1,2.51-1.14c.66.12.82.77,1.35,1.15.3.13-.1-.07-.07-.25a1.92,1.92,0,0,0,2.13-.45c-.51,0-1.65.34-2.06-.2,1.81-.62,2.66-2.58,5-2.32.32.4.83.83.77,1.36a2.2,2.2,0,0,1-.63.91l0,0L26,85v0l-.06.06,0,0,0,0-.06.08a45.35,45.35,0,0,0-2.58,4.12c-.48.49-1,.5-1.87.64l-.23.06h0l-.21.07-.06,0-.16.07-.15.06-.06,0a2.85,2.85,0,0,1-1.47.39,2.11,2.11,0,0,1-.74-.32l-.09,0-.06,0L18,90.26l-.27-.06h-.07l-.2,0H16.8l-.22,0h0c-.26,0-.52.06-.8.07A1.37,1.37,0,0,1,15.79,90.07ZM13.9,95c.47.12,1-.31,1.61-.39s1.07.15,1.48-.06c-.51-.82-1.95-.3-2.77-.13A3.13,3.13,0,0,1,16,90.78a6.88,6.88,0,0,1,1.87,0c.52.16.79.52,1.35.51a2,2,0,0,0,.78-.18c.27-.1.53-.24.8-.35h0l.14-.06.06,0,.06,0,.08,0h.06a.23.23,0,0,1,.11,0l.05,0,.11,0h.35l.14,0h0l.14,0h0l.15,0h0l.16.07c-1,1.43-2,4.24-3,6.12-.48.9-1,2.27-2,2.19-.55,0-1-.41-1.61-.45.14-.09,1.61-.47,1.74-1-1.13.35-3.37,1.07-4.38.07a2.62,2.62,0,0,1,0-.28A3.9,3.9,0,0,1,13.9,95ZM12,103.92c.78,0,1.24.43,1.81.32s1-.89,1.8-1h0a.7.7,0,0,0-.6-.16c-.44.1-.79.63-1.33.68s-1.94-.35-2.06-.77c-.18-.62.29-1.32.51-1.74s.57-.87.84-1.29.54-1.07,1-1.16l.11,0h.26l.12,0h0l.12,0h0l.12,0h0l.13,0h0l.13,0h0l.15.06h0l.68.28,0,0,.09,0,0,0,.09,0,0,0,.11,0c.65.17,1.45.1,1.74.58-.73,3-1.91,5.4-2.58,8.37-1.55,0-2.83.7-4-.06-.16-.32-.5-.44-.71-.71C10.86,106.05,11.63,105.17,12,103.92Zm-1.88,7.71c0-.08,0-.16,0-.24h0a13.31,13.31,0,0,1,.7-2.69,4.71,4.71,0,0,0,3.31.46l.9-.11.24,0c-.29,2.23-.65,4.18-1,6.19-1.18.34-1.53-.75-2.06-1.1s-1.53-.36-1.87-1.09l-.09-.21s0-.06,0-.09l0-.13s0-.08,0-.13a.44.44,0,0,0,0-.1s0-.1,0-.15a.28.28,0,0,1,0-.09v-.48Zm.53,2.4a4.69,4.69,0,0,1,1.29.58c.36.33.34,1,.64,1.23a7.05,7.05,0,0,0,1.55.06c0,2.38-.25,4-.32,6.12a1.88,1.88,0,0,1-2.77.32c-1-1.66-.88-3.72-1.1-6.37C9.9,115.14,10,114.09,10.68,114ZM24.81,53.54a.25.25,0,0,0,0,.08c0,.09,0,.18,0,.28s0,.07,0,.1a1.31,1.31,0,0,0,.06.27l0,.12c0,.08.05.17.07.26a.76.76,0,0,0,0,.11,2,2,0,0,0,.08.26.36.36,0,0,0,0,.11l.09.28,0,.08.33.86,0,0,.1.28a.78.78,0,0,1,0,.14l.09.23a1,1,0,0,0,.05.16l.07.22.05.17.06.22a1.36,1.36,0,0,1,0,.17,2,2,0,0,1,0,.24l0,.16a2.51,2.51,0,0,1,0,.27s0,.09,0,.14,0,.28,0,.42c0,1.61-1.36,3.16-3.09,2.45-1-.43-2.18-1.68-3.09-1.87A6.79,6.79,0,0,0,22,61.27a11.15,11.15,0,0,0,1,.71,1.51,1.51,0,0,0,.26.12l.09,0,.18.06.09,0,.17,0h.1l.16,0h.36l.16,0h.08l.18,0,.06,0,.24-.07a2.93,2.93,0,0,0,1.22-.9c1.87-2.42-1.2-5.91-1.48-8.38a2.54,2.54,0,0,0,0,.39C24.79,53.33,24.8,53.43,24.81,53.54Z"/>
    <path id="teeth" class="cls-4" d="M13.88,97.34l.51-.07a4.93,4.93,0,0,0,1.25-.11A4.13,4.13,0,0,0,18.71,96c.95-1.09,1.95-2.94,1.49-4.42a1.4,1.4,0,0,0-.24-.45,1.93,1.93,0,0,1-.78.18c-.56,0-.83-.35-1.35-.51a6.88,6.88,0,0,0-1.87,0,3.14,3.14,0,0,0-1.74,3.67c.82-.17,2.26-.69,2.77.13-.41.21-1,0-1.48.06s-1.13.51-1.61.39a4,4,0,0,0-.65,2.3A1.33,1.33,0,0,0,13.88,97.34Zm2,3.46a2.32,2.32,0,0,0-1.84-2l-.12,0c-.42.08-.74.8-1,1.16s-.66.94-.84,1.28-.69,1.13-.51,1.74c.12.43,1.57.82,2.06.78s.89-.58,1.33-.68A4,4,0,0,0,15.92,100.8Zm-5,6.63c.79,1,2.28.25,3-.43s2.33-3.29,1.77-3.79c-.76.14-1.11.91-1.8,1s-1-.32-1.81-.32c-.4,1.25-1.17,2.13-1.22,3.73,0-.1,0-.21,0-.31Zm25.42-81.9c-.28-2.6,1.59-5.65-.47-7.93s-5.14-.49-7.43.23c-1.12.34-7.9,1.52-6.63,5.08a48.77,48.77,0,0,0,1.77,5h0l.13.08c1.26.13,2.44.13,3.74.2a13,13,0,0,0,4.12-.58c1.08-.31,2.14-.54,3-.84a7,7,0,0,0,1.89-1.1l-.08.07C36.32,25.65,36.33,25.59,36.32,25.53ZM62,20.39a7.65,7.65,0,0,0-3.43-3.54,4,4,0,0,0-5.12,1.26,4,4,0,0,0-.55,1.2A3.08,3.08,0,0,0,52,17.63a13,13,0,0,0-4.47-1.56c-2.55.18-5-.15-7.39,1.06-2.86,1.48-3,4.59-2.48,7.46a5.35,5.35,0,0,0,2.17,2,13.53,13.53,0,0,0,5.09-.13c2.77-.59,6.11-1.49,7.54-2.39.4-1.19.16-3.22.51-4.51a23.36,23.36,0,0,1,.13,3.29c.66,1.86,3.59,1.84,5.8,1.87a4.08,4.08,0,0,0,1.93-.2l.05,0a4,4,0,0,0,.52-1.29c.06-.28.1-.54.14-.73A20.4,20.4,0,0,1,62,20.39Zm2,.35A4.13,4.13,0,0,0,62,20.53a.59.59,0,0,0,0-.08,20.42,20.42,0,0,1-.48,3.71c.72.24,1.25.91,2.06,1.16s1.8-.06,2.77.07c.55.07,1.06.28,1.56.31a3.5,3.5,0,0,1-.55-.09A7.11,7.11,0,0,0,64,20.74ZM17.67,85.28a1.35,1.35,0,0,0-.27.55,3.58,3.58,0,0,0-.09.45,1.54,1.54,0,0,0,.37,1.23c.82,1.44,2.79,1.66,4.28,1,1.74-.83,3-2.66,4.33-4a1.32,1.32,0,0,0,.4-1,.91.91,0,0,1,.1.4c-.22.33-.43.66-.64,1,.29-.31.61-.65.63-.91.06-.53-.44-1-.77-1.35-2.3-.27-3.15,1.69-5,2.31.41.54,1.55.21,2.06.2a1.91,1.91,0,0,1-2.12.45c0,.18.36.38.06.25-.53-.38-.69-1-1.35-1.15a2.12,2.12,0,0,0-2.51,1.14,3.94,3.94,0,0,1,.44-.59A.43.43,0,0,0,17.67,85.28ZM21.85,28a18.69,18.69,0,0,1-1.43-4.72,1.55,1.55,0,0,0-.17-.54,1.17,1.17,0,0,0-.3-.4,1.47,1.47,0,0,0-2.55.31c-.93,2.4.25,5.94,2.09,8.07a3,3,0,0,0,2-1.61,3.1,3.1,0,0,0,.36-1.4C21.86,27.81,21.86,27.91,21.85,28Zm-7.91,83.25a1.31,1.31,0,0,0,.24-2.11,4.71,4.71,0,0,1-3.31-.46,13.31,13.31,0,0,0-.7,2.69,2.34,2.34,0,0,1,0-.26A3.25,3.25,0,0,0,13.94,111.26Z"/>
    <path id="gums" class="cls-5" d="M18.71,96a4.15,4.15,0,0,1-3.07,1.18,4.93,4.93,0,0,1-1.25.11l-.51.07a1.33,1.33,0,0,1-.63,0,2.62,2.62,0,0,0,0,.28c1,1,3.25.28,4.38-.07-.13.56-1.6.94-1.74,1,.62,0,1.06.41,1.61.45,1,.08,1.52-1.29,2-2.19,1-1.88,2-4.69,3-6.12l-.16-.07h0l-.16-.06h0l-.15,0h0l-.15,0h-.34l-.11,0h-.05l-.12,0-.05,0-.08,0-.07,0-.06,0-.13.06s0,0,0,0c-.27.11-.53.25-.8.35a1.6,1.6,0,0,1,.23.45C20.66,93,19.66,94.89,18.71,96Zm-.3-55.84c.23-1.87,1.21-4.09,0-5.48a3.87,3.87,0,0,0-4.32-.32c-.18,1.58-.73,4.37-.12,5.8s2,.74,3.22.39C17.64,40.39,18.1,40.41,18.41,40.14Zm-6.89,68.23c1.16.75,2.44.09,4,.06.67-3,1.85-5.34,2.58-8.38-.29-.48-1.09-.4-1.74-.58l-.11,0h0l-.09,0,0,0-.09,0h0L15.26,99h0L15.11,99h0l-.13,0h0l-.13,0h0l-.12,0h0l-.12,0h0l-.12,0h-.26a2.33,2.33,0,0,1,1.85,2,4.17,4.17,0,0,1-.89,2.25.7.7,0,0,1,.6.16h0c.56.49-1.05,3.08-1.77,3.79s-2.18,1.39-3,.43a.61.61,0,0,1-.07-.1c0,.11,0,.21,0,.32C11,107.92,11.36,108.05,11.52,108.37Zm-.45,14a1.88,1.88,0,0,0,2.77-.32c.07-2.14.33-3.74.32-6.12a7.05,7.05,0,0,1-1.55-.06c-.31-.28-.28-.9-.64-1.23a4.69,4.69,0,0,0-1.29-.58c-.65.06-.78,1.11-.71,1.94C10.18,118.62,10.09,120.68,11.07,122.34Zm3.6,5c-.06-.3-.25-.56-.32-.84a9,9,0,0,0-.51-2.58c-.61-.09-1.56-.08-2.32-.19-.9.57-.07,2.29.38,3.35.26.6.88,1,1.29,1.67a17.31,17.31,0,0,0,1.61,2.71c.44.51.68.81,1.16.77-.23-.93-.66-1.58-.9-2.45S14.87,128.15,14.67,127.31Zm3.74-93.74a1.19,1.19,0,0,0,.39-2.13c-2.12-.58-2.85-2.56-3.8-4.31-.68,1.64-1.47,3.93-.71,5.92C15.6,33.29,17.29,33.14,18.41,33.57Zm-.19,7.34a7.17,7.17,0,0,1-2.64.91c-.46,1.53.36,3.7,1.16,4.83a2.16,2.16,0,0,0,2.83.45,2.55,2.55,0,0,0,.84-1.29,6.6,6.6,0,0,0-.58-2.32,13.63,13.63,0,0,0-.71-2.26A5.59,5.59,0,0,0,18.22,40.91Zm.38,5.93c0,.12-.08.14-.06.26-.21-.19-.38-.53-.64-.84a1.91,1.91,0,0,1-.65-1.48c.78-.47.67-2.17,1.42-2.45.27,0-.15.38-.19.52-.14.45-.05.9-.2,1.35s-.46.55-.51.84C17.61,45.93,18.31,46.1,18.6,46.84Zm-1.28,1c-.53.44.14,1.33.45,2.12.56,1.44.89,2.8,2.77,2.51-.27-.23-.22-.77-.45-1a1.75,1.75,0,0,1-.71-.06,4.09,4.09,0,0,0-1-1.54c.59.22,1.16.46,1.29,1.15.44-.13,1.18.84,1.22,1.16.41,0,1.08.21,1.29-.13a13.74,13.74,0,0,0-.58-2.44c-.17-.5-.42-2.28-1-2.39-.36-.07-.65.44-1.16.65A3.21,3.21,0,0,1,17.32,47.81Zm45.35-29.9c-.21.31-.1.93-.39,1.16a9.11,9.11,0,0,0-.06-1.41,20.74,20.74,0,0,0-8.57-2.13,12.7,12.7,0,0,0-.32,2.06c-.32-.49-.16-1.48-.19-2.19A57.09,57.09,0,0,0,41,15.4c-.11,0-.06,0-.25.07a8.35,8.35,0,0,1-3.16.38c-.22.25,0,.9-.32,1.1-.29-.23-.17-.87-.32-1.23a13.56,13.56,0,0,0-6.45.39l-3,.71c-2,.5-3.91,1.23-5.54,1.8-.6.21-1.33.25-1.48.78a12.45,12.45,0,0,0,1,4.44c.06.18.12.36.17.54.43,1.38.9,2.84,1.89,3.5h0a48.77,48.77,0,0,1-1.77-5c-1.27-3.56,5.51-4.74,6.63-5.08,2.29-.72,5.41-2.47,7.43-.23s.19,5.33.47,7.93a1.08,1.08,0,0,1,0,.18l.09-.07,0,0,.07-.06,0,0,0-.05.07-.08c.52-.72.38-2.61.39-3.74,0-.86-.12-1.83.26-2.32.11,1.11,0,2.74.06,4.19a3.71,3.71,0,0,0,.26,1s0,0,0,.05c-.47-2.87-.38-6,2.48-7.46,2.37-1.22,4.84-.89,7.39-1.07A12.87,12.87,0,0,1,52,17.64a3,3,0,0,1,.9,1.67,3.84,3.84,0,0,1,.55-1.19,3.94,3.94,0,0,1,5.11-1.26A7.6,7.6,0,0,1,62,20.39l0,.06a.2.2,0,0,0,0,.08,4.41,4.41,0,0,1,1.95.21,7.11,7.11,0,0,1,3.37,4.87,3.53,3.53,0,0,0,.55.1h.29l.11,0h0l.13,0a4.76,4.76,0,0,0-1.16-3.1A16.12,16.12,0,0,0,62.67,17.91ZM16.58,90.19h0l.23,0h.61l.2,0h.07l.27.06.15.06.05,0,.1,0,.35.19.28,0a1.15,1.15,0,0,1,.58.13,4.76,4.76,0,0,0,1-.37l.06,0,.15-.07.17-.06.05,0,.21-.07h0l.22-.06c.83-.14,1.39-.15,1.87-.64a45.35,45.35,0,0,1,2.58-4.12l.06-.08,0,0a.08.08,0,0,1,0,0L26,85l0,0,.08-.09,0,0c.21-.33.42-.66.64-1a1,1,0,0,0-.1-.41,1.33,1.33,0,0,1-.4,1c-1.31,1.34-2.59,3.17-4.32,4-1.5.7-3.47.48-4.29-1a1.59,1.59,0,0,1-.37-1.23,3.58,3.58,0,0,1,.09-.45,1.29,1.29,0,0,1,.27-.55.25.25,0,0,0,0-.07,3.94,3.94,0,0,0-.44.59h0L17.1,86l0,.06-.06.12-.06.1,0,.09c0,.07-.07.14-.11.2s-.13.28-.2.43l-.07.18a2.44,2.44,0,0,0-.1.24c0,.09-.07.19-.1.28l-.06.16c0,.11-.07.22-.11.34a.3.3,0,0,0,0,.1c0,.13-.07.26-.11.39s0,0,0,0l-.09.43v0c0,.15-.06.31-.08.46h0l-.06.47h0a2.53,2.53,0,0,1,.59.14Zm.82-67.53A1.48,1.48,0,0,1,20,22.35a1.31,1.31,0,0,1,.3.4,1.55,1.55,0,0,1,.17.54A18.66,18.66,0,0,0,21.84,28a1.46,1.46,0,0,0,0-.29v-.3a.43.43,0,0,1,0-.05,1.33,1.33,0,0,0,0-.28h0c0-.09,0-.19,0-.28s0,0,0-.06a2.21,2.21,0,0,0-.05-.25s0,0,0,0-.05-.19-.07-.28l0-.07c0-.07,0-.15-.07-.23a.31.31,0,0,0,0-.08c0-.09-.05-.18-.08-.27a30,30,0,0,1-1.61-5.87,5.54,5.54,0,0,0-2.39,2.13,7.93,7.93,0,0,0-1.73,2.84,4.88,4.88,0,0,0,.58,2.89c.28.7.46,1.46.7,1.87a3.12,3.12,0,0,0,1.36,1.29l.3.07h0l.25,0h.29l.26,0h0C17.64,28.6,16.47,25.05,17.4,22.66Zm-7.25,89.27v.18a.28.28,0,0,0,0,.09.76.76,0,0,0,0,.15s0,.07,0,.1,0,.09,0,.13,0,.08,0,.13,0,.06,0,.09a1.21,1.21,0,0,0,.09.2c.34.74,1.24.68,1.86,1.1s.89,1.43,2.07,1.09c.38-2,.74-4,1-6.18l-.24,0-.91.12a1.29,1.29,0,0,1-.24,2.1,3.22,3.22,0,0,1-3.72-.13,2.34,2.34,0,0,0,0,.26h0c0,.08,0,.16,0,.23v0c0,.07,0,.14,0,.21A.13.13,0,0,0,10.15,111.93ZM18.28,44.2c.16-.45.07-.9.2-1.36,0-.13.46-.48.19-.51-.75.28-.64,2-1.42,2.45a1.91,1.91,0,0,0,.65,1.48c.26.31.43.65.64.84,0-.13.07-.15.07-.26-.3-.74-1-.91-.84-1.81C17.82,44.74,18.16,44.55,18.28,44.2Z"/>
    <path id="whites" class="cls-4" d="M21,90.65l.08,0Zm.61-.13h0Zm-.31,0,.11,0Zm-.16,0,.11,0Zm.3-.06h0Zm.32,0,.14,0Zm.51.12.16.07Zm-.33-.1.14,0Zm.14,0,.16,0Zm-1.2.11.06,0Zm-.16.07h0Zm-6.55,8h0Zm-.13,0h0Zm.26,0,.12,0Zm1.9.67.11,0Zm-1.6-.61.12,0Zm-.15,0,.12,0Zm1.62.61.09,0Zm-1-.41.14.05ZM15,98.93l.13,0Zm1,.41.09,0Zm-.72-.29.68.28Zm-.47-.17.13,0Zm34.8-14.67.32-.43Zm-7.77-9.12.38,0Zm8.1,8.68c.69-1,1.32-1.87,2.06-2.71C51.24,81.9,50.61,82.82,49.92,83.77Zm-6.38-.49h.13a.44.44,0,1,0,0-.88h-.13a.44.44,0,1,0,0,.88Zm8.82,53.05-.43.44C52.08,136.62,52.23,136.48,52.36,136.33Zm-.54.55-.38.35Zm14.74-24.69c-.07.14-.13.28-.19.42C66.43,112.47,66.49,112.33,66.56,112.19Zm.56-1.35c-.16.4-.32.8-.49,1.19C66.8,111.64,67,111.24,67.12,110.84Zm.26-.66-.21.55Zm-1.09,2.6-.27.55ZM36.5,25.56l-.07.06Zm.07-.09,0,.05Zm-14.9-1.09c.43,1.38.9,2.84,1.89,3.5C22.56,27.22,22.1,25.76,21.67,24.38Zm46.63,1.3-.11,0Zm-.27,0h0Zm.44-.06-.14,0Zm-.31.06h0ZM17.07,90.16h0Zm.55,0-.2,0Zm1.27.37-.28,0-.35-.19a2.06,2.06,0,0,0,.73.32,2.8,2.8,0,0,0,1.47-.39,4.76,4.76,0,0,1-1,.37A1.15,1.15,0,0,0,18.89,90.56Zm-2.52-.35a2.45,2.45,0,0,0-.58-.14,1.23,1.23,0,0,0,0,.19c.28,0,.54,0,.8-.07Zm.43,0-.22,0Zm.32,0h0ZM16,88.64c0-.13.07-.26.1-.39C16.1,88.38,16.06,88.51,16,88.64Zm1-2.51.06-.12ZM26,85l-.05.06Zm.1-.11L26,85Zm-9,1,.09-.14Zm8.82-.83,0,0Zm-5.25,5.1-.15.07Zm.22-.08-.05,0Zm.26-.08h0Zm-5.36,0c0-.16,0-.31.06-.47C15.82,89.76,15.81,89.91,15.79,90.07Zm.06-.47c0-.15.05-.31.07-.46C15.89,89.29,15.87,89.45,15.85,89.6Zm.08-.48c0-.14.06-.29.09-.43Zm2,1.14-.27-.06Zm.2.08-.05,0Zm-1.26-4a.56.56,0,0,1,.05-.08A.56.56,0,0,0,16.9,86.32Zm-.74,1.83c0-.12.07-.23.11-.34C16.23,87.92,16.2,88,16.16,88.15Zm.36-1L16.6,87Zm-.19.52c0-.09.06-.19.09-.27C16.39,87.46,16.36,87.56,16.33,87.65Zm5.21-61.78c0,.08.05.16.07.23S21.57,26,21.54,25.87Zm.17.62a2.21,2.21,0,0,1,.05.25A2.21,2.21,0,0,0,21.71,26.49Zm.07.31c0,.09,0,.19,0,.28C21.81,27,21.79,26.89,21.78,26.8Zm0,.29a2.66,2.66,0,0,1,0,.28A1.33,1.33,0,0,0,21.82,27.09Zm-.19-.92c0,.09.05.19.07.28C21.68,26.36,21.65,26.26,21.63,26.17Zm-2.15,4.56a1,1,0,0,1-.25,0A1,1,0,0,0,19.48,30.73Zm2-5.21c0,.09,0,.18.08.27C21.49,25.7,21.47,25.61,21.44,25.52Zm.42,1.9v0Zm-2.64,3.35h0Zm-.57,0-.3-.07Zm.29,0-.25,0ZM15.08,109l.24,0Zm-4.87,3.54s0-.09,0-.13S10.2,112.54,10.21,112.58Zm.06.22s0-.06,0-.09S10.26,112.77,10.27,112.8Zm-.12-1.17c0-.08,0-.16,0-.24C10.16,111.47,10.16,111.55,10.15,111.63Zm0,.72s0-.1,0-.15S10.17,112.3,10.17,112.35Zm0-.48c0-.07,0-.14,0-.21S10.14,111.8,10.14,111.87Zm0,.24v0ZM25,54.39a.5.5,0,0,1,0-.12A.5.5,0,0,0,25,54.39ZM24.88,54s0-.07,0-.1S24.87,54,24.88,54Zm.19.76s0-.08,0-.11S25.06,54.72,25.07,54.76Zm.59,1.63,0,0S25.65,56.38,25.66,56.39Zm-.47-1.26a.36.36,0,0,1,0-.11A.36.36,0,0,0,25.19,55.13Zm.13.37a.36.36,0,0,0,0-.09A.36.36,0,0,1,25.32,55.5ZM61.9,146.84l-.17.1ZM58,148.39l-.29.07Zm.51-.14-.27.08ZM25.81,56.81a.78.78,0,0,0,0-.14A.78.78,0,0,1,25.81,56.81Zm33.36,91.24-.32.1ZM33.07,77.14l-.09,0Zm.5-.28-.09,0Zm22.89,71.89-.4.09Zm.51-.11-.35.08Zm2.71-.76-.21.07Zm2.61-1.29-.13.08Zm-.8.49-.19.1ZM24.82,53.62a.25.25,0,0,1,0-.08A.25.25,0,0,0,24.82,53.62ZM61.06,147.3l-.2.1Zm-.91.4-.2.08Zm.46-.19-.2.08Zm-3.13,1-.32.07ZM26.31,58.79a.68.68,0,0,0,0-.14A.68.68,0,0,1,26.31,58.79Zm0-.41,0-.16Zm-2.72,3.83-.09,0Zm-.27-.08-.09,0ZM26,57.2A.75.75,0,0,1,25.9,57,1,1,0,0,0,26,57.2Zm.12.39L26,57.42Zm.1.39,0-.17Zm-1.6,4.26h0Zm.25-.05h0Zm-1,.07h0Zm7.81,15.82-.14.09Zm-.44.31-.12.09ZM24.33,62.27h0Zm-.26,0h0Zm8,15.5-.09.07ZM14.23,132.2c-.43-.5-.86-1-1.26-1.57A7.62,7.62,0,0,0,14.23,132.2Zm28-57.13.45,0-.47,0h0l-.38,0h0Zm8.06,63.07a11.26,11.26,0,0,0,1.07-.83l.09-.08.38-.35.11-.11.43-.44.18-.21C51.81,136.8,51.07,137.51,50.28,138.14ZM67.21,110.3c-.52,1.2-1,2.41-1.51,3.63.11-.2.22-.4.32-.61s.18-.36.27-.54a1.3,1.3,0,0,1,.08-.17c.06-.14.12-.28.19-.42a1.11,1.11,0,0,1,.07-.16c.17-.39.33-.79.49-1.19a1.17,1.17,0,0,1,0-.11l.21-.55,0-.07c.25-.66.49-1.33.72-2C67.83,108.85,67.52,109.57,67.21,110.3ZM13.59,92.92c-.11.56-.2,1.06-.26,1.46l.06-.17.06-.21A10.66,10.66,0,0,0,13.59,92.92ZM42,133.84a21.94,21.94,0,0,1,0-4.21c.17-2.2.17-4.41.33-6.61.11-1.33.23-2.67.39-4l-.12.61a43.53,43.53,0,0,0-1.1,11.7A23.64,23.64,0,0,0,42,133.84ZM58.69,87.15A76.94,76.94,0,0,0,53,99.44a39.05,39.05,0,0,0-2,7.86c.77-2.52,1.55-5,2.38-7.55A93,93,0,0,1,58.69,87.15ZM27.23,98.84a78.74,78.74,0,0,1,2.56-7.69,42.8,42.8,0,0,0-1.9,5.14C27.63,97.13,27.42,98,27.23,98.84ZM54,71.4c-.59-.4-.45-1.11-.45-1.86a3.46,3.46,0,0,0-.3,1.51c.11,1.46,1.63.75,2.11.31C55.06,71.41,54.78,71.93,54,71.4ZM75.41,37.12h0a1.51,1.51,0,0,1,.09-.53c-.41-5.78-1.53-11.78-4.4-16.83a20.81,20.81,0,0,0-2.27-3.25h0C71.79,21.27,73.9,28.86,75.41,37.12Zm-14,96.57c-.5.55-1,1.08-1.56,1.6a25.73,25.73,0,0,0,5-5.26c5.34-7.69,8.78-21.37,9-22.41a123.79,123.79,0,0,1-6.35,16.78A38.32,38.32,0,0,1,61.43,133.69Zm1.43,4c-.58.49-1.18,1-1.79,1.42a44.54,44.54,0,0,0,6.05-5.28,39,39,0,0,0,4.46-7.69A36,36,0,0,1,62.86,137.65Zm-45.36,0a20.35,20.35,0,0,0,1.69,1.18,33,33,0,0,0,5.5,2.78,40.71,40.71,0,0,0,9.06,1.92,87,87,0,0,1-8.5-2.15A65.66,65.66,0,0,1,17.5,137.69ZM7.93,96.17c-1.69,7.36-2.86,14.68-1.33,22.1a43.31,43.31,0,0,0,1.11,4.35c.24,0-1.22-9.84-1.22-13.14C6.5,106.39,8.06,97,8,95.9H8ZM82.46,62.61c.17,5,.34,10,.74,15a73.92,73.92,0,0,0-.53-13.43ZM76.84,11.89A25.77,25.77,0,0,0,60.08,3.62a28.69,28.69,0,0,0-9.72.9q-3.06.75-6.13,1.42c-3.59,1.11-7.17,2.14-10.89,2.9-1.65.33-3.3.6-5,.85-1,.27-2,.56-3,.86-3.3,1-6.41,2.22-9,4.63-.5.48-1,1-1.42,1.49l.24-.17a19.76,19.76,0,0,1,1.79-1.18,39.64,39.64,0,0,1,11.62-4.14c2.66-.58,5.3-1,8-1.43a29.6,29.6,0,0,0,5.09-1.41c1.9-.74,3.75-1.64,5.7-2.2a27.32,27.32,0,0,1,5.89-.95C57,5,60.63,4.7,64.09,6.2a27.63,27.63,0,0,1,8.31,5.53c5,4.91,7.32,11.3,9,18,1.54,6.19,2.9,21.43,3.11,22.65.08.45-.49-16.72-1.19-23.51C82.66,22.75,81,16.58,76.84,11.89Zm-34.59,60a16.29,16.29,0,0,1,8.5,2.32C50.75,74.05,45.47,70.87,42.25,71.84ZM46.69,71A14.9,14.9,0,0,1,49,72.16a6.34,6.34,0,0,1,1.67,1.16C50.61,72.29,47.37,70.88,46.69,71Z"/>
  </g>
  <g id="logo">
    <circle class="cls-6" cx="36.32" cy="124.02" r="10.02"/>
    <g class="cls-7">
      <text class="cls-8" transform="matrix(0.98, 0.21, -0.21, 0.98, 29.03, 120.38)">whole</text>
      <text class="cls-8" transform="matrix(0.98, 0.21, -0.21, 0.98, 29.01, 124.6)">l</text>
      <text class="cls-9" transform="matrix(0.98, 0.21, -0.21, 0.98, 31.57, 125.16)">o</text>
      <text class="cls-8" transform="matrix(0.98, 0.21, -0.21, 0.98, 34.62, 125.83)">t</text>
      <text class="cls-10" transform="matrix(0.98, 0.21, -0.21, 0.98, 37.42, 126.44)">t</text>
      <text class="cls-8" transform="matrix(0.98, 0.21, -0.21, 0.98, 39.52, 126.89)">a</text>
      <text class="cls-8" transform="matrix(0.98, 0.21, -0.21, 0.98, 28.84, 128.79)">icons</text>
    </g>
  </g>
  <g id="marketplace">
    <path class="cls-11" d="M23.36,101.86c.66.23,1.11.64,1,1s-.71.35-1.37.11-1.12-.66-1-1S22.69,101.62,23.36,101.86Zm13.21,5.87L26,103.92l.32-.89,10.59,3.81Z"/>
    <path class="cls-11" d="M38.27,101.76a2,2,0,0,1,.11,1.62c-.53,1.47-3,1.64-6.27.48s-5.25-3-4.68-4.64a1.89,1.89,0,0,1,1-1l1.41.74a1.33,1.33,0,0,0-.87.84c-.4,1.12,1.17,2.37,3.38,3.16,2.45.88,4.22.7,4.57-.27a1.63,1.63,0,0,0-.14-1.27Z"/>
    <path class="cls-11" d="M35.22,94.58C39.14,96,40.39,97.85,40,99c-.47,1.32-2.94,1.58-6.28.38-3.55-1.27-5.24-3.09-4.75-4.44S32,93.41,35.22,94.58Zm-1.28,3.9c2.32.83,4.29.85,4.6,0s-1.19-2.1-3.58-2.95c-1.79-.65-4.21-1.06-4.59,0S31.93,97.76,33.94,98.48Z"/>
    <path class="cls-11" d="M33.29,92.61c-1.1-.39-2-.7-2.88-1l.28-.78,1.77.58v0c-.92-.61-1.71-1.52-1.42-2.33s1.5-1.41,5.13-.1l6.32,2.27-.32.89-6.1-2.2c-1.71-.61-3.23-.83-3.53,0-.21.58.52,1.36,1.54,1.89a5.58,5.58,0,0,0,.87.39l6.36,2.28-.31.89Z"/>
    <path class="cls-11" d="M41,89.21a1.75,1.75,0,0,0,1.18-.89c.23-.64-.36-1.2-1.23-1.51a2.33,2.33,0,0,0-2.28.2,3.81,3.81,0,0,1-3.45.22c-1.71-.62-2.88-1.76-2.51-2.8a1.65,1.65,0,0,1,1.09-1l1.32.72a1.4,1.4,0,0,0-1,.78c-.19.52.36,1,1.15,1.33A2.12,2.12,0,0,0,37.44,86a4,4,0,0,1,3.65-.13c1.86.67,2.93,1.81,2.52,3A1.88,1.88,0,0,1,42.39,90Z"/>
  </g>
  <g id="icons">
    <path class="cls-11" d="M49.58,121.73c-.91-.3-1.66-.54-2.39-.75l.21-.65,1.43.44v0c-.77-.5-1.43-1.13-1.21-1.8s1-.74,2.15-.58h0a4.51,4.51,0,0,1-1-.83,1.09,1.09,0,0,1-.32-1.1c.17-.54,1.2-1.08,4.26-.08l5.19,1.7-.23.72-5-1.64c-1.7-.55-2.81-.6-3,0-.14.42.43,1,1.17,1.35a8,8,0,0,0,.79.32l5.45,1.78-.24.72-5.29-1.73c-1.4-.46-2.51-.51-2.7.06s.54,1.06,1.31,1.44a6,6,0,0,0,.76.31l5.32,1.74-.23.72Z"/>
    <path class="cls-11" d="M59,114.59l-1.13-.31v0c.61.45,1.09,1.09.9,1.67-.27.82-1.66.83-2.94.41-2.13-.7-3-2-2.48-3.51l-.18-.06c-.73-.24-2.07-.58-2.34.25a1.43,1.43,0,0,0,.31,1.27l-1.12-.18a1.78,1.78,0,0,1-.34-1.59c.4-1.24,2.34-.94,4.11-.36l3.3,1.08c.76.25,1.52.48,2.13.62Zm-4.53-1.37c-.3.8-.29,1.81,1.42,2.37,1,.34,1.64.18,1.76-.19.17-.53-.45-1.11-1.16-1.47a4.25,4.25,0,0,0-.49-.21Z"/>
    <path class="cls-11" d="M53.56,110.8c-1-.34-1.93-.62-2.76-.86l.21-.65,1.74.54v0c-1.12-.58-1.72-1.26-1.56-1.76a.41.41,0,0,1,.12-.19l1.52.49a.53.53,0,0,0-.14.24c-.17.52.56,1.17,1.73,1.66.22.09.47.19.74.28l4.7,1.54-.24.73Z"/>
    <path class="cls-11" d="M56,107.72v0c-.28-.2-.61-.47-.88-.69l-2.66-2.18.29-.89,3.12,2.75,5.78-.08-.3.89-4.68,0,.78.68,3.32,1.08-.24.73L47.6,105.78l.24-.73Z"/>
    <path class="cls-11" d="M57.85,104.31c2.17.7,3.27.35,3.51-.39a1.6,1.6,0,0,0-.08-1.27l1.18.25a2,2,0,0,1,.11,1.53c-.41,1.25-2.44,1.41-5.1.54s-4.52-2.28-4.13-3.46,3.08-.85,4.7-.32c.33.11.58.21.74.27Zm-.44-2.53c-1-.35-2.67-.66-2.94.17s1.14,1.56,2.23,2Z"/>
    <path class="cls-11" d="M52.14,97.26l2.54.83L55,97l1.22.4-.34,1,4.75,1.56c1.1.36,1.76.42,1.9,0a1,1,0,0,0,0-.47l1.21.36a1.06,1.06,0,0,1,0,.73,1,1,0,0,1-.94.58,6.76,6.76,0,0,1-2.39-.47l-4.81-1.58-.2.63-1.22-.4.2-.62-2.11-.7Z"/>
    <path class="cls-11" d="M58.17,97.15c-1.13-.37-2-.65-2.89-.91l.22-.66L57,96v0c-1-.65-1.46-1.34-1.24-2,.32-1,2.37-1.13,5-.26,3.18,1,4.45,2.44,4.14,3.4-.18.54-.84.84-1.8.8h0L68,99.54l-.24.73Zm2.59,0,.67.18c1.16.23,2.07,0,2.24-.5.26-.78-1-1.68-3-2.34-1.77-.58-3.42-.65-3.68.13-.16.5.47,1.23,1.62,1.77a5.34,5.34,0,0,0,.64.26Z"/>
    <path class="cls-11" d="M52.74,90.08l.24-.74,12.94,4.24-.24.74Z"/>
    <path class="cls-11" d="M67.06,90.09l-1.13-.31v0c.62.45,1.1,1.09.91,1.67-.27.82-1.66.83-2.94.41-2.13-.7-3-2-2.48-3.51l-.18-.06c-.73-.24-2.08-.58-2.35.25a1.49,1.49,0,0,0,.31,1.27l-1.11-.18a1.81,1.81,0,0,1-.35-1.59c.41-1.24,2.35-.94,4.12-.36l3.3,1.08c.76.25,1.51.48,2.13.63Zm-4.53-1.37c-.3.8-.29,1.81,1.42,2.37,1,.34,1.63.18,1.76-.19.17-.53-.45-1.11-1.16-1.47a4.25,4.25,0,0,0-.49-.21Z"/>
    <path class="cls-11" d="M68.27,85.29a1.71,1.71,0,0,1,.13,1.33c-.4,1.23-2.47,1.43-5.16.55s-4.41-2.39-4-3.71a1.51,1.51,0,0,1,.79-.88l1.18.58a1.1,1.1,0,0,0-.7.71c-.3.93,1,1.93,2.87,2.53,2,.67,3.49.48,3.76-.33A1.4,1.4,0,0,0,67,85Z"/>
    <path class="cls-11" d="M64.88,82.82c2.17.69,3.28.35,3.52-.39a1.64,1.64,0,0,0-.09-1.27l1.19.25a2,2,0,0,1,.1,1.53c-.4,1.25-2.44,1.41-5.1.54S60,81.2,60.37,80s3.08-.85,4.7-.32c.33.11.58.21.74.27Zm-.44-2.54c-1-.34-2.67-.66-2.94.17s1.14,1.56,2.24,2Z"/>
  </g>
</svg>
