<svg id="ducky" xmlns="http://www.w3.org/2000/svg" width="124.97" height="108.06" viewBox="0 0 124.97 108.06">
  <title>mickey</title>
  <path d="M22,.06A24.66,24.66,0,0,0,3.74,10.8,22.23,22.23,0,0,0,.46,27.68a23.46,23.46,0,0,0,10.76,15,30.65,30.65,0,0,0,4.31,2.07,7.25,7.25,0,0,1,1,.39,1.83,1.83,0,0,1-.18.79c-.35,1-.95,3.14-1.25,4.43a46.73,46.73,0,0,0,19,48.95,48.74,48.74,0,0,0,61-4.37A46.6,46.6,0,0,0,108.81,50.4c-.27-1.14-.88-3.34-1.21-4.28a2.41,2.41,0,0,1-.16-.62s.63-.24,1.34-.48a30,30,0,0,0,5-2.3c.47-.29,1.36-.89,2-1.36a22.44,22.44,0,0,0,2.44-34.27A24.62,24.62,0,0,0,104.33.24,20.56,20.56,0,0,0,100.66,0C99.3,0,98,.07,97.49.14A24.6,24.6,0,0,0,82.94,7.23a22.78,22.78,0,0,0-5.37,8.36l-.21.56s-.69-.17-1.51-.41a49.22,49.22,0,0,0-27.46-.11l-.86.24-.09-.21A23.22,23.22,0,0,0,42,7.19a24.56,24.56,0,0,0-14.07-7A36.29,36.29,0,0,0,22,.06Z"/>
</svg>
