<svg id="ducky" xmlns="http://www.w3.org/2000/svg" width="117.83" height="105.19" viewBox="0 0 117.83 105.19">
  <title>random</title>
  <g>
    <path d="M92.57,14.7V14c0-3.91,0-7.82,0-11.73A2,2,0,0,1,95,0a3.27,3.27,0,0,1,1.56.89q6.9,6.83,13.74,13.71l6.66,6.66a2.26,2.26,0,0,1,0,3.64L96.41,45.45a2.11,2.11,0,0,1-3.42-.1,3,3,0,0,1-.41-1.51c0-3.85,0-7.71,0-11.56v-.71l-.52,0c-5.39,0-10.78.05-16.17,0A14.74,14.74,0,0,0,63.4,37.81a48.59,48.59,0,0,0-5.51,9.45c-2.4,5.25-4.67,10.56-7.07,15.8a72.33,72.33,0,0,1-7.63,13.35A41,41,0,0,1,35,84.79a28.41,28.41,0,0,1-12.25,5.1,38.71,38.71,0,0,1-6.09.53c-4.75.08-9.51,0-14.27,0C.76,90.45,0,89.69,0,88v-12c0-1.69.74-2.43,2.43-2.43,4.84,0,9.67,0,14.51,0a14,14,0,0,0,9-2.91,22.59,22.59,0,0,0,4.67-5.32,91,91,0,0,0,6.81-13.47c2.44-5.57,4.78-11.18,7.74-16.5a55.78,55.78,0,0,1,8.54-11.65,29.11,29.11,0,0,1,15.36-8.38,34.5,34.5,0,0,1,7.17-.68H92.57Z"/>
    <path d="M92.57,90.5c-2.51,0-4.91,0-7.32,0-3.48,0-7,0-10.45-.14a33,33,0,0,1-9.42-1.58,27.7,27.7,0,0,1-11-6.71,47.86,47.86,0,0,1-5.46-6.42,142.41,142.41,0,0,0,8.92-17.92c.76,1.48,1.44,2.9,2.2,4.28a29.66,29.66,0,0,0,5.58,7.74,14.2,14.2,0,0,0,9.65,3.84c5.67.08,11.33,0,17,0l.36,0V61.4a4.71,4.71,0,0,1,0-.75,2,2,0,0,1,2.81-1.59,3.34,3.34,0,0,1,1,.7l20.6,20.58a2.17,2.17,0,0,1,.66,2.31,2.47,2.47,0,0,1-.58,1Q106.72,94.08,96.27,104.5a2.12,2.12,0,0,1-2.39.51,2.14,2.14,0,0,1-1.31-2.12V90.5Z"/>
    <path d="M43.83,29.43a128.88,128.88,0,0,0-9,18c-.15-.3-.27-.51-.37-.73A53,53,0,0,0,29,37.58a14.7,14.7,0,0,0-9-5.69,18.09,18.09,0,0,0-3.67-.33c-4.66,0-9.33,0-14,0A2.1,2.1,0,0,1,0,29.14v-12A2.11,2.11,0,0,1,2.4,14.7c4.86,0,9.71,0,14.56,0A30.7,30.7,0,0,1,40.54,25.45C41.68,26.72,42.72,28.08,43.83,29.43Z"/>
  </g>
</svg>
