<svg id="ducky" xmlns="http://www.w3.org/2000/svg" width="130.23" height="130.43" viewBox="0 0 130.23 130.43">
  <title>rocket</title>
  <g>
    <path d="M.53,125.18c.14-1.2.24-2.4.41-3.6,1-7.35,2.39-14.61,5.55-21.4a31.86,31.86,0,0,1,8.84-11.81c1.08-.86,2.28-1.56,3.42-2.34l.17.15c-.14.24-.27.49-.41.74a47.53,47.53,0,0,0-6.59,24.39,15.86,15.86,0,0,0,.14,2.18,5.79,5.79,0,0,0,4,4.79,12.3,12.3,0,0,0,6.59.42,84.23,84.23,0,0,0,14-3.29,32.88,32.88,0,0,0,7-3.56c.29-.19.6-.36,1.07-.65-.16.35-.24.54-.34.72A26.29,26.29,0,0,1,34.17,122a54.51,54.51,0,0,1-15.39,5.81A94.72,94.72,0,0,1,4.09,130a3.35,3.35,0,0,1-3.56-2Z"/>
    <path d="M128.28.08c.1,0,.2.09.3.12,1.2.3,1.72.86,1.67,2.1a33.13,33.13,0,0,1-.4,4.21c-1,5.72-2.09,11.43-3.15,17.15-.06.32-.18.63-.33,1.15-7.25-6.66-13.94-13.71-21-20.6,1-.26,1.83-.53,2.71-.69q9.27-1.65,18.54-3.26l1.1-.18Z"/>
    <path d="M38.57,69.68a1.72,1.72,0,0,0-2.17-.31L30.17,73c-2.65,1.53-5.29,3.1-8,4.59-1.48.82-1.81.77-3-.39s-2.32-2.24-3.41-3.42S14.7,72.15,15.63,71q3-3.69,6.14-7.28c3.9-4.47,7.86-8.9,11.78-13.35a2.18,2.18,0,0,1,1.53-.81l6.13-.49,9.62-.76a2.2,2.2,0,0,0,1.64-1c3.21-4.21,6.3-8.51,9.69-12.56,7.55-9,16-17,26.17-23a79,79,0,0,1,13.22-6.32,1.07,1.07,0,0,1,1.28.26c3.61,3.53,7.26,7,10.85,10.58,3.77,3.72,7.49,7.49,11.25,11.21a1,1,0,0,1,.27,1.15,75.38,75.38,0,0,1-5.86,12.63,98.91,98.91,0,0,1-19,23.13A167.15,167.15,0,0,1,82.79,78.31a1.19,1.19,0,0,0-.59,1c-.34,5-.72,10-1,15.05a3.71,3.71,0,0,1-1.27,2.76c-3.67,3.24-7.28,6.54-11,9.79-2.81,2.48-5.66,4.92-8.5,7.37a11.6,11.6,0,0,1-1,.81,1.54,1.54,0,0,1-2.22,0c-1.51-1.41-2.94-2.91-4.38-4.4a1.38,1.38,0,0,1-.18-1.72c.81-1.46,1.59-3,2.43-4.39,1.81-3.08,3.65-6.14,5.46-9.22a6.82,6.82,0,0,0,.79-1.66,2.07,2.07,0,0,0-.19-1.34c-.07-.14-.76,0-1.11.09-.85.34-1.67.78-2.5,1.18a1.59,1.59,0,0,1-1.94-.31c-1.41-1.33-2.88-2.61-4.25-4C46.9,84.9,42.53,80.45,38.14,76c-.23-.23-.42-.52-.66-.74a2,2,0,0,1-.37-2.72C37.61,71.62,38.07,70.67,38.57,69.68ZM91.09,47.82a8.6,8.6,0,0,0-8.8-8.42c-4.38,0-8.2,4-8.31,8.56a8.65,8.65,0,0,0,8.47,8.63A8.52,8.52,0,0,0,91.09,47.82ZM64.86,57.09a8.61,8.61,0,0,0-8.59,8.44,8.58,8.58,0,0,0,17.16.24A8.64,8.64,0,0,0,64.86,57.09ZM91.69,30.3c-.38,4.34,4.34,8.67,8.1,8.55,5.33-.17,8.85-3.4,8.92-8.4.07-4.33-2.94-8.71-9-8.68C95.87,21.8,91.29,26.15,91.69,30.3Z"/>
    <path d="M35.37,95.24A13.43,13.43,0,0,0,42,93.4c1.08-.64,2.17-1.27,3.19-2A2,2,0,0,1,48.48,93,14,14,0,0,1,45,104a23.76,23.76,0,0,1-9.78,6.45,51.53,51.53,0,0,1-12.95,3c-1,.12-2.06.24-3.1.3-1.77.09-2.59-.65-2.49-2.42.12-2,.38-3.91.64-5.85a39.19,39.19,0,0,1,4.76-14.68c2.44-4.21,5.83-7.4,10.71-8.63a9.3,9.3,0,0,1,5.1,0c1.71.53,2.16,1.71,1.16,3.2A26.32,26.32,0,0,0,36,91.35,8.42,8.42,0,0,0,35.37,95.24Z"/>
  </g>
</svg>
