<svg id="yeezy" xmlns="http://www.w3.org/2000/svg" width="1280" height="1024" viewBox="0 0 1280 1024">
  <title>Artboard 1</title>
  <g id="shoe1">
    <path id="frame" d="M299.81,562.19c2.67,2.3,4.31,4.86,6.42,5.34,12.36,2.77,24.31,6.85,37,8.92,12,1.95,23.65,1.88,35.42,1.9,93.11.23,186.21.11,279.31.15a67.15,67.15,0,0,0,41.57-13.68c15.52-11.68,32.68-20.72,50.37-28.25,11-4.69,23.13-7.31,35.14-9.85,12.4-2.62,24.53-2.05,36.77-2.11,46.77-.25,93.55,0,140.33-.2,10.16,0,19.48,1.82,28,7.43,1,.62,2.35.57,4.73,1.09,0-13.88,1.26-27.4-.41-40.53-1.31-10.36-7.31-19.68-14.71-27.52-4.31-4.56-8.75-9-13.66-14.05-8.13,5.81-16.11,11.43-24,17.18-4.17,3.05-8,6.54-12.28,9.48-8.59,5.95-17.91,5.21-25.7-1.92-10.6-9.7-15.9-23.09-23.8-34.67a11.33,11.33,0,0,1-1.46-4.77c-1.53-11.41,4-19.44,13.21-24.86,10.41-6.13,21.32-11.44,32.05-17,8.76-4.59,11.34-8.75,7.78-17.39-3.93-9.55-4.33-19.74-6.78-29.51-1.24-4.94-2-9.89-4.42-14.42H863c-.13,3.38-.37,6.8-.39,10.23,0,11.69.23,23.39-.07,35.08-.61,24.14-12.74,36.28-33.4,46.17-15.93.07-31.55,2.39-46-9.48-9.7-8-17.15-18.75-28.83-24.39-1.53-.73-2.72-2.36-3.83-3.76-3.52-4.43-4.31-11.84-1.14-14.65a20.85,20.85,0,0,1,7.72-4c2.62-.8,5,.1,7.07,2.46,1.27,1.46,3.88,1.67,5.4,3,8.95,7.84,17.76,15.83,26.6,23.8,8.43,7.6,18.55,7.22,28.2,4.48C834.47,399,841,388.54,841,378.15c.06-13.49-.36-27,.13-40.48.39-10.83,4.28-19.74,15.3-24.65a20.32,20.32,0,0,1,8.75-1.65c19.79-.11,39.58.12,59.37-.17,5.55-.09,10.74,1.28,14,5,2.81,3.22,4.41,8.26,4.83,12.66,1.38,14.47,7.24,28,8.66,42.47.25,2.63,1.23,8.77,8.14,7.74,3.21-.47,7.5,1.68,10.3,3.9,9.65,7.64,16.35,17.92,20.8,29.08,3.14,7.85.23,16.06-5.32,22.69-1.33,1.59-1,2.07-.32,4,1.77,4.88,5.46,7.86,8.86,11.17,6.24,6.07,12.1,12.26,15.31,20.66s6.64,16.48,6.62,25.6c0,18,0,36,0,54a13.88,13.88,0,0,0,2.67,8.4,65.55,65.55,0,0,1,10.53,44c-.91,8.52-4.37,17-7.95,24.94-4.59,10.16-12.49,18.61-21.4,24.61C990,659,978.7,665,965.18,664.94q-307.65-.23-615.3-.1c-15,0-28.64-5.59-39.66-14.66-11.57-9.53-22.82-19.88-28.29-35.3-4.65-13.14-9.78-26.27-7.27-39.94,3.11-17,9.94-32.72,26.85-41.17q34.65-17.29,69.43-34.36c5.69-2.8,13.64,1.41,14,7.5.32,5.78-1.61,10.21-7.35,12.95-19.92,9.49-39.47,19.79-59.66,28.66C310.7,551.68,306.09,556.68,299.81,562.19ZM902.63,643V546.36H869.06c-.49.6-1,.93-1,1.27-.06,4.49,0,9,0,13.48,0,2.24.49,4.64-.12,6.7a19,19,0,0,1-3.95,7.7,10.82,10.82,0,0,1-6.78,2.83c-5.75.23-10.64-5.46-10.72-11.93-.08-6.63,0-13.26,0-20.31-6.66,0-12.44-.11-18.22,0s-11.38-.71-16.39.51V643h34.61c0-10-.08-19.8,0-29.58,0-4.92,4.19-10.13,9.47-10.39,3.83-.19,7.37,1.76,9.63,6.08,1.49,2.84,2.56,5.26,2.5,8.45C867.92,626,868,634.39,868,643Zm56.93-96.46H924.69v96.24h34.87ZM789.31,642.92v-94c-12.79-1.17-22.88,6.17-34,8.81v85.18ZM732.76,569.1l-34.38,22v51.53h34.38ZM959.07,400.58c-17.23,8.76-34.19,17.33-51.1,26-2.61,1.34-6,2.58-7.22,4.84-1.78,3.43,2.76,4.85,4.27,7.34,4.22,7,8.28,14.09,12.51,21.32l53.39-41.44ZM981.75,638c18.91-9.31,26.36-25.55,26.16-44.17-.19-18-8.45-33.2-26.16-42.49Zm-418.9-37.42H525.29c0,7.57-.1,14.7,0,21.81s-.57,14,.32,20.45h37.21Zm-116,0H412c0,7.55-.1,14.67,0,21.79s-.54,14.05.31,20.49H446.8Zm195-.23v43h17.75l16.44,0V600.29Zm-286.29,42.5h34.87c0-7.57.1-14.69,0-21.8s.56-14-.32-20.46H355.49Zm147.76.23V600.07c-6.21,0-12,0-17.75,0l-16.43,0V643Zm116.06,0V600.74H585.09V643ZM333.68,598c-9.65-2.94-19.14-5.85-28.64-8.73-2.69-.82-6.3-3.08-7.94-2.1-4.72,2.84,2,4.65,1.56,7.56-.31,2.18-.8,4.8.06,6.62,7.39,15.61,16.91,29.37,33.41,36.76.63-1,1.49-1.66,1.5-2.36C333.71,623.31,333.68,610.86,333.68,598Z"/>
    <path id="upper" d="M534.44,442.63c-1.34,10.95-2,20.88-3.9,30.57-2,10-2.91,20.27-5.58,30.06-1,3.79-2,9.78-8.09,10.41-5.41.56-10.53.48-14.17-4.91-6.67-9.87-13.82-19.43-20.55-29.26-5.07-7.39-6.26-8-14.16-4.26-12.05,5.64-24.62,10.47-35.84,17.46-7.38,4.59-14.3,5.13-22,4.55-6-13.81-5.19-12.79,7.11-19.67,14.15-7.92,28.89-14.81,43.44-22,3.09-1.53,6.8-2.16,5.24-7.09-1-3.06,1.26-4.82,3.12-6.79,3.41-3.61,6.51-5.31,11.25-1.51,3.52,2.82,7.87,2.65,12,0,3.86-2.47,8-4.58,12-6.7,8.1-4.2,8.12-4.15,12-12.08,5.62-11.32,8.76-12.59,20-7.44,2.67,1.22,4.51,1.81,7.32,0a76.61,76.61,0,0,1,15.5-8.05c6.8-2.37,11.48-5.13,13.27-13.21,1.73-7.81,9.45-11.17,17-7.33,6.37,3.27,11.51.93,15.47-1.82,4.62-3.21,10.64-6.79,9.64-14.74-.38-3.07,1.25-6.58,2.6-9.6,1.23-2.78,3.16-5.21,7-4.79,5,.55,6.58-2.51,9.5-6.41,7.92-10.59,13.39-22.57,20.77-33.43,4-5.9,8.55-10.2,14.55-11,8.41-1.17,17.13-1.53,24.88,4.71,11.54,9.3,21.5,20.39,33.71,29,3,2.08,5,7.19,5.24,11,.43,7.84-7.19,11.37-15.63,7.78a24.35,24.35,0,0,1-6.48-3.81q-13.41-11.75-26.53-23.84c-2.35-2.18-4.35-4.24-8-3.67-2.51.4-3.84.25-5.53,3.58-5.31,10.47-12.06,20.23-18.5,30.11-3.79,5.82-3.95,9.12,1.2,12,17.62,9.91,32.52,23.51,48.72,35.33,1.36,1,2.87,1.77,4.28,2.69,4.28,2.8,6.68,8.45,5.14,12.06s-8,7.42-11.94,6.74c-2.85-.48-6.21-1-8.22-2.76-14.5-12.79-31.45-22.27-47.85-36.47,1,4.67,1.57,7.35,2.27,10,4.29,16.14,9.41,32,14.32,48,1.56,5.07-.66,10.32-4.73,13.61-5.42,4.37-9.54,3.2-16.28-.56-7.93-4.43-13.43-11.29-19.74-17.35-7.65-7.34-15-15-24.18-24.11.56,5.42.77,8.75,1.29,12,.33,2,1.44,4,1.66,6,1,9.5,1.82,19,2.79,28.54.13,1.2,1,2.32,1.17,3.53.58,3.83,2,7.87,1.31,11.49-2,10.49-15.51,14.48-23.24,6.94-13.19-12.87-26.07-26.05-39.17-39C539.27,445.48,537,444.39,534.44,442.63Zm95.88-21.8L629,419.26l-1.2,1.2a12.32,12.32,0,0,0,1.62,1.2c.1,0,.54-.52-1.51-.93-.67-8.66-3.9-19.19-6.57-22.74L612,404.75A142.63,142.63,0,0,0,630.32,420.83ZM558.4,431.31,578,450.88c-.56-6.76-1.33-16.13-2.14-25.83C568.3,422.93,563.76,429.54,558.4,431.31ZM511,454.43c-1,.72-1.75,1.34-2.56,1.93-3.17,2.36-8.36,1.47-10.1,6.09-2.07,5.53,5.09,6.65,5.55,11.17.09.89,2.41,1.55,3.7,2.31a12.34,12.34,0,0,0,1.47-3.3C509.76,466.82,510.31,461,511,454.43Z"/>
  </g>
</svg>
