<svg id="yeezy" xmlns="http://www.w3.org/2000/svg" width="851.03" height="407.57" viewBox="0 0 851.03 407.57">
  <title>shoe1</title>
  <g id="shoe1">
    <path id="frame" d="M29.05,291.91c3,2.58,4.85,5.46,7.23,6,13.91,3.13,27.36,7.71,41.63,10,13.46,2.19,26.62,2.11,39.87,2.15,104.8.25,209.6.11,314.4.16,17.34,0,32.95-5,46.79-15.39,17.47-13.16,36.8-23.33,56.71-31.81,12.41-5.28,26-8.22,39.56-11.09,14-2.95,27.61-2.3,41.38-2.37,52.65-.29,105.31,0,158-.22,11.44-.06,21.93,2.05,31.53,8.35,1.08.71,2.65.65,5.33,1.24,0-15.63,1.42-30.84-.46-45.63-1.48-11.65-8.23-22.15-16.56-31-4.85-5.14-9.85-10.15-15.38-15.82-9.15,6.54-18.13,12.86-27,19.34-4.7,3.44-9,7.36-13.83,10.67-9.66,6.7-20.15,5.86-28.92-2.16-11.94-10.92-17.9-26-26.79-39a12.65,12.65,0,0,1-1.65-5.37c-1.72-12.84,4.52-21.88,14.87-28,11.73-6.91,24-12.88,36.08-19.19,9.86-5.17,12.76-9.86,8.76-19.59C736.13,72.5,735.68,61,732.92,50c-1.39-5.56-2.23-11.13-5-16.23h-64.9c-.16,3.8-.43,7.66-.44,11.51-.06,13.17.25,26.34-.08,39.49-.69,27.18-14.34,40.84-37.6,52-17.93.08-35.52,2.7-51.73-10.66-10.92-9-19.31-21.11-32.46-27.46-1.72-.83-3.06-2.66-4.31-4.23-4-5-4.85-13.34-1.29-16.5a23.68,23.68,0,0,1,8.7-4.5c2.95-.9,5.66.12,7.95,2.77,1.43,1.64,4.38,1.88,6.09,3.39,10.07,8.82,20,17.82,29.94,26.79,9.48,8.55,20.88,8.13,31.74,5,11.34-3.22,18.65-15,18.71-26.69.07-15.18-.4-30.39.15-45.56C638.85,27,643.23,17,655.64,11.43a22.93,22.93,0,0,1,9.85-1.87c22.27-.12,44.55.14,66.82-.19,6.26-.1,12.1,1.45,15.76,5.65,3.17,3.63,5,9.3,5.45,14.26,1.55,16.29,8.14,31.49,9.74,47.8.29,3,1.39,9.87,9.16,8.72,3.62-.54,8.44,1.89,11.6,4.39,10.86,8.6,18.4,20.16,23.41,32.72,3.53,8.84.26,18.09-6,25.55-1.49,1.79-1.13,2.33-.36,4.46,2,5.49,6.15,8.85,10,12.57,7,6.83,13.62,13.8,17.23,23.26s7.47,18.54,7.46,28.81c0,20.25,0,40.5,0,60.75a15.62,15.62,0,0,0,3,9.46,73.78,73.78,0,0,1,11.86,49.52c-1,9.59-4.92,19.15-9,28.07-5.17,11.44-14.06,20.95-24.09,27.7-11.58,7.8-24.28,14.52-39.5,14.51q-346.3-.27-692.61-.12c-16.92,0-32.25-6.3-44.64-16.51-13-10.72-25.7-22.37-31.85-39.73-5.24-14.79-11-29.57-8.19-44.95C4.25,287.18,11.93,269.42,31,259.91q39-19.47,78.15-38.67c6.4-3.16,15.36,1.58,15.74,8.43.36,6.52-1.81,11.5-8.28,14.58-22.42,10.68-44.43,22.27-67.15,32.26C41.32,280.08,36.12,285.7,29.05,291.91Zm678.57,91V274.08H669.83c-.55.67-1.12,1.05-1.13,1.43-.06,5.06,0,10.12,0,15.17,0,2.53.56,5.22-.13,7.55-.92,3.09-2.28,6.41-4.45,8.67a12.12,12.12,0,0,1-7.63,3.18c-6.47.26-12-6.15-12.07-13.43-.09-7.47,0-14.93,0-22.87-7.5,0-14-.12-20.51,0s-12.81-.79-18.44.58V382.85h39c0-11.29-.09-22.3,0-33.3.07-5.55,4.72-11.41,10.66-11.7,4.31-.21,8.31,2,10.85,6.84,1.67,3.21,2.87,5.92,2.81,9.51-.17,9.49-.06,19-.06,28.68ZM771.7,274.3H732.46v54.89c0,18,0,36,0,53.44H771.7ZM580.06,382.78V277c-14.39-1.32-25.76,6.94-38.33,9.92v95.88Zm-63.65-83.1-38.7,24.76v58h38.7ZM771.15,110c-19.39,9.85-38.48,19.51-57.52,29.27-2.94,1.51-6.8,2.91-8.13,5.45-2,3.87,3.12,5.46,4.81,8.27,4.76,7.87,9.32,15.85,14.08,24l60.1-46.65Zm25.54,267.19c21.28-10.48,29.66-28.75,29.44-49.72-.22-20.28-9.52-37.37-29.44-47.83ZM325.15,335.06H282.87c0,8.52-.12,16.54,0,24.55s-.64,15.8.36,23h41.89Zm-130.63,0H155.28c0,8.5-.11,16.51,0,24.52s-.61,15.82.35,23.07h38.86ZM414,334.79v48.35h20l18.49-.05v-48.3ZM91.73,382.63H131c0-8.52.11-16.53,0-24.54s.64-15.81-.35-23H91.73Zm166.33.26V334.54c-7,0-13.49,0-20,0-6.35,0-12.71,0-18.49.06v48.29Zm130.64,0V335.3H350.18v47.57ZM67.18,332.23c-10.87-3.32-21.55-6.59-32.24-9.84-3-.92-7.09-3.46-8.94-2.35-5.31,3.18,2.23,5.22,1.76,8.5-.35,2.46-.91,5.41.06,7.46,8.33,17.56,19,33.06,37.61,41.38.72-1.09,1.68-1.87,1.69-2.66C67.21,360.71,67.18,346.69,67.18,332.23Z"/>
    <path id="upper" d="M293.17,157.32c-1.52,12.33-2.27,23.5-4.4,34.41-2.2,11.28-3.28,22.81-6.28,33.83-1.16,4.28-2.26,11-9.11,11.73-6.08.63-11.84.54-15.94-5.53-7.51-11.11-15.56-21.87-23.14-32.94-5.7-8.32-7-9-15.93-4.8-13.56,6.36-27.71,11.79-40.35,19.66-8.31,5.17-16.1,5.77-24.75,5.12-6.72-15.54-5.85-14.4,8-22.14,15.93-8.92,32.53-16.67,48.9-24.78,3.48-1.72,7.65-2.44,5.9-8-1.09-3.45,1.41-5.42,3.51-7.64,3.84-4.06,7.33-6,12.67-1.7,4,3.17,8.85,3,13.5,0,4.35-2.78,9-5.16,13.56-7.54,9.11-4.73,9.13-4.68,13.57-13.6,6.32-12.74,9.85-14.17,22.5-8.38,3,1.37,5.07,2,8.23,0,5.53-3.5,11.32-6.92,17.45-9.06,7.66-2.66,12.92-5.77,14.93-14.86,1.95-8.8,10.64-12.58,19.08-8.25,7.18,3.68,13,1,17.42-2,5.21-3.62,12-7.64,10.86-16.6-.43-3.45,1.4-7.4,2.91-10.8,1.39-3.13,3.56-5.86,7.9-5.39,5.58.61,7.41-2.82,10.7-7.22,8.91-11.92,15.07-25.41,23.38-37.63,4.51-6.64,9.61-11.49,16.37-12.43,9.46-1.32,19.28-1.72,28,5.31,13,10.46,24.21,23,37.95,32.62,3.33,2.34,5.67,8.09,5.91,12.42.47,8.82-8.1,12.79-17.6,8.75a27.29,27.29,0,0,1-7.3-4.29q-15.09-13.23-29.86-26.83c-2.65-2.46-4.89-4.78-9-4.14-2.83.45-4.33.29-6.22,4-6,11.79-13.59,22.77-20.83,33.89-4.27,6.56-4.45,10.27,1.35,13.54,19.83,11.15,36.6,26.46,54.85,39.76,1.52,1.12,3.22,2,4.8,3,4.82,3.16,7.52,9.52,5.79,13.58S483.53,140.79,479,140c-3.2-.54-7-1.11-9.25-3.11-16.32-14.39-35.4-25.07-53.87-41,1.19,5.26,1.78,8.28,2.56,11.24,4.83,18.17,10.6,36.05,16.12,54,1.76,5.71-.74,11.62-5.32,15.32-6.1,4.92-10.74,3.61-18.33-.63-8.93-5-15.11-12.71-22.22-19.52-8.61-8.27-16.92-16.85-27.22-27.14.63,6.09.87,9.85,1.46,13.54.37,2.3,1.62,4.49,1.87,6.79,1.14,10.69,2,21.41,3.14,32.11.14,1.36,1.11,2.62,1.31,4,.66,4.31,2.24,8.85,1.47,12.93-2.21,11.81-17.45,16.29-26.15,7.8-14.85-14.48-29.35-29.32-44.1-43.9C298.6,160.53,296.06,159.29,293.17,157.32Zm107.92-24.54L399.66,131l-1.36,1.35a13.06,13.06,0,0,0,1.83,1.35c.11.06.61-.58-1.7-1.05-.76-9.75-4.4-21.6-7.4-25.59l-10.55,7.61A160.81,160.81,0,0,0,401.09,132.78Zm-81,11.79,22,22c-.63-7.61-1.51-18.16-2.41-29.08C331.28,135.14,326.17,142.59,320.13,144.57Zm-53.37,26-2.88,2.18c-3.57,2.65-9.42,1.64-11.37,6.85-2.33,6.22,5.73,7.49,6.25,12.57.1,1,2.71,1.74,4.16,2.6.57-1.23,1.5-2.43,1.66-3.71C265.39,184.54,266,178,266.76,170.6Z"/>
  </g>
</svg>
