<svg id="ducky" xmlns="http://www.w3.org/2000/svg" width="164" height="101.73" viewBox="0 0 164 101.73">
  <title>stork</title>
  <path d="M42.38.15a1.33,1.33,0,0,0-1,1.45c0,.81,0,.81-1.2.46a5.69,5.69,0,0,0-3.33.16c-.51.28-1.11.85-1.11,1.07,0,.07.28.2.63.29a7.66,7.66,0,0,1,3.24,1.87,2.53,2.53,0,0,1,.59,1.89c0,.31-.11.32-1.83.37a11.47,11.47,0,0,0-5.57,1.47c-3.26,1.8-4,4.82-1.68,6.54.36.26.61.54.57.63a3.8,3.8,0,0,1-.81.5,25.47,25.47,0,0,0-3.55,2,6.63,6.63,0,0,1-1.23.79,6.36,6.36,0,0,0-1.34.9.79.79,0,0,1-.4.28,1.87,1.87,0,0,0-.64.53,9.57,9.57,0,0,1-1.13,1,7.84,7.84,0,0,0-1.87,2c0,.09-.17.25-.37.36a3.63,3.63,0,0,0-1.07,1.56c0,.15-.14.27-.2.27A7.81,7.81,0,0,0,18,28.49c-.09.2-.28.59-.44.87a7.12,7.12,0,0,0-.43,4.25A6.09,6.09,0,0,0,18.53,36a7.28,7.28,0,0,0,2.39.93,1.64,1.64,0,0,1,.57.19,1.92,1.92,0,0,0,1.15.11c1-.11,1.06-.08,1.06.42a.78.78,0,0,1-.33.68c-.18.15-.48.39-.67.57a9.58,9.58,0,0,1-3.3,1.59,5.47,5.47,0,0,1-2,.13,11,11,0,0,1-5.05-1.37,3.81,3.81,0,0,0-.93-.44c-.35,0-2.41-1.78-4.82-4.15a5.78,5.78,0,0,0-1-.86A1.88,1.88,0,0,1,5,33.39a1,1,0,0,0-.57-.27.89.89,0,0,1-.51-.26c-.2-.19-.5-.25-1.38-.28l-1.14,0-.54.57a1.94,1.94,0,0,0-.65,1.26c-.07.37-.14.87-.18,1.07-.14.74,1.58,4.27,2.49,5.09A2.32,2.32,0,0,1,3.17,42a7,7,0,0,0,.88,2.58,6.43,6.43,0,0,1,.58,1A9.5,9.5,0,0,0,5.6,47,5.73,5.73,0,0,1,6.37,48c0,.06-.11.19-.25.27a2.75,2.75,0,0,0-.59.9c-.4.9-.36,1.33.28,2.81a8.81,8.81,0,0,0,3.52,3.73l1.28.75a2.59,2.59,0,0,0,.8.35,3.72,3.72,0,0,1,.89.29,22.16,22.16,0,0,0,4.09.87h.35l.06,1.55A6.43,6.43,0,0,0,18.34,64c2.19,2.68,6,3.16,9.64,1.21l1.11-.6,1.39.74a30.81,30.81,0,0,0,5.16,2.2c2.46.67,4.66,1.19,5.72,1.39.7.12,1.53.27,1.85.35,5,1,8.63.87,12.77-.58,2.49-.87,5.35-2.35,12-6.24,2.11-1.21,2.51-1.4,3.28-1.5a23.8,23.8,0,0,0,7.81-2.74c.43-.27,1.24-.78,1.8-1.11A10.1,10.1,0,0,0,82.37,56a2.67,2.67,0,0,1,.56-.48c.11,0,2.29-2.07,3.5-3.32.43-.44,1.15-1.15,1.6-1.57,1.82-1.71,3.08-2.88,3.72-3.43.36-.32,1.11-1,1.63-1.44s1.39-1.17,1.88-1.56c3.14-2.46,4.89-3.89,7.12-5.86.74-.65,2.21-2.13,3.35-3.37s1.09-1.17,1.59-1.09c.28.05,1.21.12,2.05.16a8.36,8.36,0,0,0,2.87-.21,11.49,11.49,0,0,0,3.63-1.41.49.49,0,0,1,.29-.2,27.34,27.34,0,0,0,2.49-1.3c1.3-.71,2.42-1.31,2.48-1.31a2.71,2.71,0,0,0,.66-.3,65.35,65.35,0,0,1,7.29-2.66c1.16-.31,2.06-.58,3.65-1.09.22-.07.88-.23,1.48-.36a10.1,10.1,0,0,0,1.35-.36,9.68,9.68,0,0,1,1.22-.36c.52-.12,1.07-.25,1.23-.31.51-.16.58.22.24,1.54-.18.68-.41,1.85-.52,2.6a18.32,18.32,0,0,1-.52,2.36,7.41,7.41,0,0,0-.3,1.4,3.36,3.36,0,0,1-.2,1c-.1.31-.29,1.08-.43,1.71-.31,1.41-.75,2.58-.95,2.49a16.89,16.89,0,0,1-1.25-2.52c-1.47-3.31-2.22-4.34-3.5-4.82s-2.85.35-4.1,1.8a18.37,18.37,0,0,0-3.12,6.38c-.53,2.36.11,4.4,2.13,6.73A4.86,4.86,0,0,0,131,46.61c.87-.24,1.09-.25,1.14-.09a7.82,7.82,0,0,1-.89,2.65,8.35,8.35,0,0,0-.49,1.24,12.93,12.93,0,0,1-1.07,1.74,44,44,0,0,0-3.48,5.67l-.78,1.56-1.53,1.19a23.31,23.31,0,0,0-6.07,6.66c-.45.78-.45,1,0,1a5,5,0,0,1,1,.25c.79.28,1,.59.66,1.1A16.25,16.25,0,0,0,118,72a11,11,0,0,1-.72,1.42,11.93,11.93,0,0,0-.89,1.89,11.06,11.06,0,0,1-.43,1.22,2.83,2.83,0,0,0-.27.78,6.43,6.43,0,0,1-.25,1c-.12.44-.3,1.07-.41,1.38a26.07,26.07,0,0,0,0,5.72,6.42,6.42,0,0,0,.73,2.17,10.79,10.79,0,0,0,2.38,2.9c1.49,1.21,1.44,1.14,1.47,1.7a3.42,3.42,0,0,0,.68,2.2c.25.36.58.83.69,1a8.47,8.47,0,0,0,2.12,1.87,1.57,1.57,0,0,1,.56.43,2.8,2.8,0,0,0,.54.44,1.42,1.42,0,0,1,.52.36,7.19,7.19,0,0,0,1.23.71c4.18,1.81,5.81,2.24,9.1,2.43s3.46.17,4,0a15.23,15.23,0,0,1,1.74-.32,5.11,5.11,0,0,0,1.34-.3,3.85,3.85,0,0,1,1.07-.35c1.76-.42,4.65-2,5.11-2.77a1.05,1.05,0,0,1,.42-.42,12.94,12.94,0,0,0,2-2.38,1.6,1.6,0,0,1,.87-.51,7.41,7.41,0,0,0,2-.82,3.58,3.58,0,0,1,.53-.4,8.25,8.25,0,0,0,3.39-4.25,16.16,16.16,0,0,0,.6-1.91c0-.32.19-1,.31-1.45a18.4,18.4,0,0,0-.26-6.71c-.11-.51-.23-1-.25-1.1s.27-.36.74-.62A10.66,10.66,0,0,0,163,72.41a12.94,12.94,0,0,0,1-5.49,9.52,9.52,0,0,0-.83-4.66,13.45,13.45,0,0,0-3.73-4.82c-1.58-1.4-1.87-1.78-2.14-2.69A3,3,0,0,0,157,54c-.17-.22,0,1.37.18,1.91.29.8.05.85-1.31.32a8.68,8.68,0,0,0-5.83-.1,9.33,9.33,0,0,0-1.86.84c-.59.43-.94.57-1.14.5s-.39-.59-.71-1.62c-.27-.85-.61-1.88-.78-2.27a13.57,13.57,0,0,1-.44-1.32,6.94,6.94,0,0,0-.28-.87c-.09-.24-.89-3-.89-3.05a9.45,9.45,0,0,1,1-.42,7,7,0,0,0,1.57-.75c1.63-1.13,4.42-5.14,5.6-8.05.65-1.57.69-1.85.45-2.54-.18-.53-.34-.67-1.44-1.32a14.63,14.63,0,0,1-1.59-1,1.81,1.81,0,0,0-1.12-.38,2.17,2.17,0,0,0-1.57.38,20,20,0,0,0-3.68,3.12c-1.46,1.48-1.73,1.55-1.89.51a5.1,5.1,0,0,0-.19-.85,20,20,0,0,1-.51-2.61,10.15,10.15,0,0,0-.25-1.16,6.54,6.54,0,0,1-.14-1.3,6,6,0,0,0-.19-1.37,4.15,4.15,0,0,1-.19-.9,24.74,24.74,0,0,0-.86-4,3.55,3.55,0,0,1-.25-1.3c.08-.35.39-.45,3.16-1l2-.43c1.8-.4,4.3-.82,8.28-1.38,1.17-.16,2.44-.36,2.82-.43s1.72-.28,2.95-.44c2.16-.29,3.24-.55,2.42-.56-.2,0-1.47.14-2.83.33s-2.76.39-3.12.43c-1.21.13-3.2.41-4.55.61-4,.62-4.55.7-9,1.15a93.41,93.41,0,0,1-16.49.21c-.7-.07-2.13-.24-3.17-.37a13.29,13.29,0,0,0-3-.13c-1.86.17-2,.16-2.48-.28-.28-.24-.43-.49-.4-.61.22-.6.23-.69,0-.39s-.3.34-.39.34c-.41,0-4.33-5-5.59-7.15a23.7,23.7,0,0,0-2.5-3.39c-.68-.68-1.27-.64-2.26.14a2.6,2.6,0,0,1-1,.34c-.59.08-.68.07-.68-.15a.92.92,0,0,1,.3-.52l.28-.27-.41.08c-.34.08-.43,0-.43-.14s.16-.3.34-.38A5.74,5.74,0,0,0,104,9.4a10.48,10.48,0,0,1,2.72-1.48c.7-.3,1.17-.56,1-.56a24.69,24.69,0,0,0-3.6.88,28.1,28.1,0,0,0-4.66,2.32,5.55,5.55,0,0,1-.6.42,14.68,14.68,0,0,0-2.67,2.35A15.44,15.44,0,0,0,93,19.08a10.91,10.91,0,0,0-.56,4.5,9.43,9.43,0,0,0,.82,4,10.31,10.31,0,0,0,1.41,2.72c1,1.48,1.09,1.59,1,1.87-.27.88-4.13,4.64-6.21,6l-1.92,1.3-2.08,1.36a31.81,31.81,0,0,1-6.83,2.62,8.82,8.82,0,0,1-2.41.26,2.66,2.66,0,0,1-1.85-.55A9.86,9.86,0,0,1,73,42.12a19.86,19.86,0,0,0-2.13-2.06,4,4,0,0,1-.68-.57,6.34,6.34,0,0,0-3-1.63c-.69-.14-.88-.24-.92-.47s-.08-1.41-.12-2.75a31.35,31.35,0,0,0-.73-6.3,9.4,9.4,0,0,1-.24-1.16,16.14,16.14,0,0,0-.68-3,2.58,2.58,0,0,1-.22-.62,38.46,38.46,0,0,0-1.45-4.06,43.14,43.14,0,0,0-4.69-8A66.18,66.18,0,0,0,53,5.66c-.19-.14-.76-.63-1.26-1.08A23.13,23.13,0,0,0,44,.21,2,2,0,0,0,42.38.15Zm86.79,34.7c.92.47,1.81,1.55,3.18,3.91,1.89,3.23,1.78,3,1.38,4.1l-.33,1-1,.47a4.25,4.25,0,0,1-2.19.47c-1.47,0-1.7-.11-3.22-1.86-1.93-2.2-2.2-3.29-1.3-5.31.74-1.73,1.91-3,2.72-3A2.72,2.72,0,0,1,129.17,34.85Zm20.51,2.48c.51.62.07,3-.93,5.05a8,8,0,0,1-3,3.3c-.95.4-2.08.56-2.32.33a2.25,2.25,0,0,1-.33-.92,6.36,6.36,0,0,0-.32-1.06,6.85,6.85,0,0,1-.43-2.45c.1-1.08,5.2-4.53,6.73-4.55A.81.81,0,0,1,149.68,37.33ZM24.52,56.4a14.29,14.29,0,0,1,.4,1.39c.18.7.41,1.43.5,1.65.3.62.09.8-1,.86-1.56.08-2.55-.57-2.83-1.89-.16-.78.07-1,1.23-1.47a9.13,9.13,0,0,0,1.26-.52C24.33,56.24,24.43,56.24,24.52,56.4Z"/>
</svg>
