<svg id="ducky" xmlns="http://www.w3.org/2000/svg" width="144.41" height="172.91" viewBox="0 0 144.41 172.91">
  <title>v letter</title>
  <path d="M21.21,2.45l-21,2.4C0,4.86,0,5.24,0,6.27V7.69l3.05,7.47c1.68,4.1,3.72,9.08,4.52,11.05s2.55,6.25,3.89,9.52C16.64,48.44,22.1,61.8,23.24,64.57c.64,1.6,2.45,6,4,9.86,4.82,11.8,12.38,30.29,26.57,65.08l13.65,33.4h3.39l.21-.44c.13-.26,7.34-16.47,16-36L111.45,81.8c4.66-10.49,14-31.43,20.72-46.56L144.41,7.73V6.3a12.15,12.15,0,0,0,0-1.44l-14-1.62L109.56.8c-4-.46-7.36-.79-7.9-.77l-1,0L97.47,8.92C95.67,13.78,89.05,31.83,82.74,49S71.23,80.24,71.19,80.24s-2.48-7.33-5.44-16.32L56.2,35c-2.3-7-5.83-17.66-7.85-23.82L44.66,0h-1.3C42.66,0,32.69,1.12,21.21,2.45Z"/>
</svg>
